%TF.GenerationSoftware,KiCad,Pcbnew,9.0.6*%
%TF.CreationDate,2026-01-10T22:29:04+00:00*%
%TF.ProjectId,Tiny_Solar_Power_Supply002,54696e79-5f53-46f6-9c61-725f506f7765,rev?*%
%TF.SameCoordinates,Original*%
%TF.FileFunction,Drillmap*%
%TF.FilePolarity,Positive*%
%FSLAX45Y45*%
G04 Gerber Fmt 4.5, Leading zero omitted, Abs format (unit mm)*
G04 Created by KiCad (PCBNEW 9.0.6) date 2026-01-10 22:29:04*
%MOMM*%
%LPD*%
G01*
G04 APERTURE LIST*
%ADD10C,0.050000*%
%ADD11C,0.200000*%
%ADD12C,0.100000*%
G04 APERTURE END LIST*
D10*
X14600083Y-9250000D02*
X14600083Y-10450000D01*
X11099917Y-9250000D02*
G75*
G02*
X11250000Y-9099917I150083J0D01*
G01*
X14600675Y-10450000D02*
G75*
G02*
X14450000Y-10600675I-150675J0D01*
G01*
X11268640Y-10495000D02*
G75*
G02*
X11141360Y-10495000I-63640J0D01*
G01*
X11141360Y-10495000D02*
G75*
G02*
X11268640Y-10495000I63640J0D01*
G01*
X14450000Y-9099917D02*
G75*
G02*
X14600083Y-9250000I0J-150083D01*
G01*
X11276745Y-9190000D02*
G75*
G02*
X11153255Y-9190000I-61745J0D01*
G01*
X11153255Y-9190000D02*
G75*
G02*
X11276745Y-9190000I61745J0D01*
G01*
X14542809Y-10477500D02*
G75*
G02*
X14413191Y-10477500I-64809J0D01*
G01*
X14413191Y-10477500D02*
G75*
G02*
X14542809Y-10477500I64809J0D01*
G01*
X14450000Y-10600675D02*
X11250000Y-10600675D01*
X11250000Y-10600000D02*
G75*
G02*
X11100000Y-10450000I0J150000D01*
G01*
X11099917Y-9250000D02*
X11099917Y-10450000D01*
X14541500Y-9207500D02*
G75*
G02*
X14418009Y-9207500I-61745J0D01*
G01*
X14418009Y-9207500D02*
G75*
G02*
X14541500Y-9207500I61745J0D01*
G01*
X11250000Y-9099917D02*
X14450000Y-9099917D01*
D11*
D12*
X12052500Y-10375000D02*
X12092500Y-10415000D01*
X12092500Y-10375000D02*
X12052500Y-10415000D01*
X12936250Y-10005000D02*
X12976250Y-10045000D01*
X12976250Y-10005000D02*
X12936250Y-10045000D01*
X13007500Y-9671960D02*
X13047500Y-9711960D01*
X13047500Y-9671960D02*
X13007500Y-9711960D01*
X13102500Y-9757500D02*
X13142500Y-9797500D01*
X13142500Y-9757500D02*
X13102500Y-9797500D01*
X13129308Y-9552752D02*
X13169308Y-9592752D01*
X13169308Y-9552752D02*
X13129308Y-9592752D01*
X13150000Y-10067500D02*
X13190000Y-10107500D01*
X13190000Y-10067500D02*
X13150000Y-10107500D01*
X13437500Y-9532500D02*
X13477500Y-9572500D01*
X13477500Y-9532500D02*
X13437500Y-9572500D01*
X11905500Y-9802500D02*
G75*
G02*
X11825500Y-9802500I-40000J0D01*
G01*
X11825500Y-9802500D02*
G75*
G02*
X11905500Y-9802500I40000J0D01*
G01*
X12667500Y-9802500D02*
G75*
G02*
X12587500Y-9802500I-40000J0D01*
G01*
X12587500Y-9802500D02*
G75*
G02*
X12667500Y-9802500I40000J0D01*
G01*
X11542500Y-9363500D02*
X11542500Y-9463500D01*
X11492500Y-9413500D02*
X11592500Y-9413500D01*
X11542500Y-9617500D02*
X11542500Y-9717500D01*
X11492500Y-9667500D02*
X11592500Y-9667500D01*
X11542500Y-9981000D02*
X11542500Y-10081000D01*
X11492500Y-10031000D02*
X11592500Y-10031000D01*
X11542500Y-10235000D02*
X11542500Y-10335000D01*
X11492500Y-10285000D02*
X11592500Y-10285000D01*
X14150000Y-9729000D02*
X14150000Y-9829000D01*
X14100000Y-9779000D02*
X14200000Y-9779000D01*
X14150000Y-9983000D02*
X14150000Y-10083000D01*
X14100000Y-10033000D02*
X14200000Y-10033000D01*
D11*
X11358193Y-10914659D02*
X11358193Y-10714659D01*
X11358193Y-10714659D02*
X11405812Y-10714659D01*
X11405812Y-10714659D02*
X11434384Y-10724183D01*
X11434384Y-10724183D02*
X11453432Y-10743230D01*
X11453432Y-10743230D02*
X11462955Y-10762278D01*
X11462955Y-10762278D02*
X11472479Y-10800373D01*
X11472479Y-10800373D02*
X11472479Y-10828945D01*
X11472479Y-10828945D02*
X11462955Y-10867040D01*
X11462955Y-10867040D02*
X11453432Y-10886087D01*
X11453432Y-10886087D02*
X11434384Y-10905135D01*
X11434384Y-10905135D02*
X11405812Y-10914659D01*
X11405812Y-10914659D02*
X11358193Y-10914659D01*
X11558193Y-10914659D02*
X11558193Y-10781325D01*
X11558193Y-10819421D02*
X11567717Y-10800373D01*
X11567717Y-10800373D02*
X11577241Y-10790849D01*
X11577241Y-10790849D02*
X11596289Y-10781325D01*
X11596289Y-10781325D02*
X11615336Y-10781325D01*
X11682003Y-10914659D02*
X11682003Y-10781325D01*
X11682003Y-10714659D02*
X11672479Y-10724183D01*
X11672479Y-10724183D02*
X11682003Y-10733706D01*
X11682003Y-10733706D02*
X11691527Y-10724183D01*
X11691527Y-10724183D02*
X11682003Y-10714659D01*
X11682003Y-10714659D02*
X11682003Y-10733706D01*
X11805812Y-10914659D02*
X11786765Y-10905135D01*
X11786765Y-10905135D02*
X11777241Y-10886087D01*
X11777241Y-10886087D02*
X11777241Y-10714659D01*
X11910574Y-10914659D02*
X11891527Y-10905135D01*
X11891527Y-10905135D02*
X11882003Y-10886087D01*
X11882003Y-10886087D02*
X11882003Y-10714659D01*
X12139146Y-10914659D02*
X12139146Y-10714659D01*
X12139146Y-10714659D02*
X12205813Y-10857516D01*
X12205813Y-10857516D02*
X12272479Y-10714659D01*
X12272479Y-10714659D02*
X12272479Y-10914659D01*
X12453432Y-10914659D02*
X12453432Y-10809897D01*
X12453432Y-10809897D02*
X12443908Y-10790849D01*
X12443908Y-10790849D02*
X12424860Y-10781325D01*
X12424860Y-10781325D02*
X12386765Y-10781325D01*
X12386765Y-10781325D02*
X12367717Y-10790849D01*
X12453432Y-10905135D02*
X12434384Y-10914659D01*
X12434384Y-10914659D02*
X12386765Y-10914659D01*
X12386765Y-10914659D02*
X12367717Y-10905135D01*
X12367717Y-10905135D02*
X12358193Y-10886087D01*
X12358193Y-10886087D02*
X12358193Y-10867040D01*
X12358193Y-10867040D02*
X12367717Y-10847992D01*
X12367717Y-10847992D02*
X12386765Y-10838468D01*
X12386765Y-10838468D02*
X12434384Y-10838468D01*
X12434384Y-10838468D02*
X12453432Y-10828945D01*
X12548670Y-10781325D02*
X12548670Y-10981325D01*
X12548670Y-10790849D02*
X12567717Y-10781325D01*
X12567717Y-10781325D02*
X12605813Y-10781325D01*
X12605813Y-10781325D02*
X12624860Y-10790849D01*
X12624860Y-10790849D02*
X12634384Y-10800373D01*
X12634384Y-10800373D02*
X12643908Y-10819421D01*
X12643908Y-10819421D02*
X12643908Y-10876564D01*
X12643908Y-10876564D02*
X12634384Y-10895611D01*
X12634384Y-10895611D02*
X12624860Y-10905135D01*
X12624860Y-10905135D02*
X12605813Y-10914659D01*
X12605813Y-10914659D02*
X12567717Y-10914659D01*
X12567717Y-10914659D02*
X12548670Y-10905135D01*
X12729622Y-10895611D02*
X12739146Y-10905135D01*
X12739146Y-10905135D02*
X12729622Y-10914659D01*
X12729622Y-10914659D02*
X12720098Y-10905135D01*
X12720098Y-10905135D02*
X12729622Y-10895611D01*
X12729622Y-10895611D02*
X12729622Y-10914659D01*
X12729622Y-10790849D02*
X12739146Y-10800373D01*
X12739146Y-10800373D02*
X12729622Y-10809897D01*
X12729622Y-10809897D02*
X12720098Y-10800373D01*
X12720098Y-10800373D02*
X12729622Y-10790849D01*
X12729622Y-10790849D02*
X12729622Y-10809897D01*
D12*
X11057417Y-11223175D02*
X11097417Y-11263175D01*
X11097417Y-11223175D02*
X11057417Y-11263175D01*
D11*
X11396289Y-11134659D02*
X11415336Y-11134659D01*
X11415336Y-11134659D02*
X11434384Y-11144183D01*
X11434384Y-11144183D02*
X11443908Y-11153706D01*
X11443908Y-11153706D02*
X11453432Y-11172754D01*
X11453432Y-11172754D02*
X11462955Y-11210849D01*
X11462955Y-11210849D02*
X11462955Y-11258468D01*
X11462955Y-11258468D02*
X11453432Y-11296563D01*
X11453432Y-11296563D02*
X11443908Y-11315611D01*
X11443908Y-11315611D02*
X11434384Y-11325135D01*
X11434384Y-11325135D02*
X11415336Y-11334659D01*
X11415336Y-11334659D02*
X11396289Y-11334659D01*
X11396289Y-11334659D02*
X11377241Y-11325135D01*
X11377241Y-11325135D02*
X11367717Y-11315611D01*
X11367717Y-11315611D02*
X11358193Y-11296563D01*
X11358193Y-11296563D02*
X11348670Y-11258468D01*
X11348670Y-11258468D02*
X11348670Y-11210849D01*
X11348670Y-11210849D02*
X11358193Y-11172754D01*
X11358193Y-11172754D02*
X11367717Y-11153706D01*
X11367717Y-11153706D02*
X11377241Y-11144183D01*
X11377241Y-11144183D02*
X11396289Y-11134659D01*
X11548670Y-11315611D02*
X11558193Y-11325135D01*
X11558193Y-11325135D02*
X11548670Y-11334659D01*
X11548670Y-11334659D02*
X11539146Y-11325135D01*
X11539146Y-11325135D02*
X11548670Y-11315611D01*
X11548670Y-11315611D02*
X11548670Y-11334659D01*
X11729622Y-11201325D02*
X11729622Y-11334659D01*
X11682003Y-11125135D02*
X11634384Y-11267992D01*
X11634384Y-11267992D02*
X11758193Y-11267992D01*
X11872479Y-11134659D02*
X11891527Y-11134659D01*
X11891527Y-11134659D02*
X11910574Y-11144183D01*
X11910574Y-11144183D02*
X11920098Y-11153706D01*
X11920098Y-11153706D02*
X11929622Y-11172754D01*
X11929622Y-11172754D02*
X11939146Y-11210849D01*
X11939146Y-11210849D02*
X11939146Y-11258468D01*
X11939146Y-11258468D02*
X11929622Y-11296563D01*
X11929622Y-11296563D02*
X11920098Y-11315611D01*
X11920098Y-11315611D02*
X11910574Y-11325135D01*
X11910574Y-11325135D02*
X11891527Y-11334659D01*
X11891527Y-11334659D02*
X11872479Y-11334659D01*
X11872479Y-11334659D02*
X11853432Y-11325135D01*
X11853432Y-11325135D02*
X11843908Y-11315611D01*
X11843908Y-11315611D02*
X11834384Y-11296563D01*
X11834384Y-11296563D02*
X11824860Y-11258468D01*
X11824860Y-11258468D02*
X11824860Y-11210849D01*
X11824860Y-11210849D02*
X11834384Y-11172754D01*
X11834384Y-11172754D02*
X11843908Y-11153706D01*
X11843908Y-11153706D02*
X11853432Y-11144183D01*
X11853432Y-11144183D02*
X11872479Y-11134659D01*
X12062955Y-11134659D02*
X12082003Y-11134659D01*
X12082003Y-11134659D02*
X12101051Y-11144183D01*
X12101051Y-11144183D02*
X12110574Y-11153706D01*
X12110574Y-11153706D02*
X12120098Y-11172754D01*
X12120098Y-11172754D02*
X12129622Y-11210849D01*
X12129622Y-11210849D02*
X12129622Y-11258468D01*
X12129622Y-11258468D02*
X12120098Y-11296563D01*
X12120098Y-11296563D02*
X12110574Y-11315611D01*
X12110574Y-11315611D02*
X12101051Y-11325135D01*
X12101051Y-11325135D02*
X12082003Y-11334659D01*
X12082003Y-11334659D02*
X12062955Y-11334659D01*
X12062955Y-11334659D02*
X12043908Y-11325135D01*
X12043908Y-11325135D02*
X12034384Y-11315611D01*
X12034384Y-11315611D02*
X12024860Y-11296563D01*
X12024860Y-11296563D02*
X12015336Y-11258468D01*
X12015336Y-11258468D02*
X12015336Y-11210849D01*
X12015336Y-11210849D02*
X12024860Y-11172754D01*
X12024860Y-11172754D02*
X12034384Y-11153706D01*
X12034384Y-11153706D02*
X12043908Y-11144183D01*
X12043908Y-11144183D02*
X12062955Y-11134659D01*
X12215336Y-11334659D02*
X12215336Y-11201325D01*
X12215336Y-11220373D02*
X12224860Y-11210849D01*
X12224860Y-11210849D02*
X12243908Y-11201325D01*
X12243908Y-11201325D02*
X12272479Y-11201325D01*
X12272479Y-11201325D02*
X12291527Y-11210849D01*
X12291527Y-11210849D02*
X12301051Y-11229897D01*
X12301051Y-11229897D02*
X12301051Y-11334659D01*
X12301051Y-11229897D02*
X12310574Y-11210849D01*
X12310574Y-11210849D02*
X12329622Y-11201325D01*
X12329622Y-11201325D02*
X12358193Y-11201325D01*
X12358193Y-11201325D02*
X12377241Y-11210849D01*
X12377241Y-11210849D02*
X12386765Y-11229897D01*
X12386765Y-11229897D02*
X12386765Y-11334659D01*
X12482003Y-11334659D02*
X12482003Y-11201325D01*
X12482003Y-11220373D02*
X12491527Y-11210849D01*
X12491527Y-11210849D02*
X12510574Y-11201325D01*
X12510574Y-11201325D02*
X12539146Y-11201325D01*
X12539146Y-11201325D02*
X12558194Y-11210849D01*
X12558194Y-11210849D02*
X12567717Y-11229897D01*
X12567717Y-11229897D02*
X12567717Y-11334659D01*
X12567717Y-11229897D02*
X12577241Y-11210849D01*
X12577241Y-11210849D02*
X12596289Y-11201325D01*
X12596289Y-11201325D02*
X12624860Y-11201325D01*
X12624860Y-11201325D02*
X12643908Y-11210849D01*
X12643908Y-11210849D02*
X12653432Y-11229897D01*
X12653432Y-11229897D02*
X12653432Y-11334659D01*
X13043908Y-11125135D02*
X12872479Y-11382278D01*
X13301051Y-11134659D02*
X13320098Y-11134659D01*
X13320098Y-11134659D02*
X13339146Y-11144183D01*
X13339146Y-11144183D02*
X13348670Y-11153706D01*
X13348670Y-11153706D02*
X13358194Y-11172754D01*
X13358194Y-11172754D02*
X13367717Y-11210849D01*
X13367717Y-11210849D02*
X13367717Y-11258468D01*
X13367717Y-11258468D02*
X13358194Y-11296563D01*
X13358194Y-11296563D02*
X13348670Y-11315611D01*
X13348670Y-11315611D02*
X13339146Y-11325135D01*
X13339146Y-11325135D02*
X13320098Y-11334659D01*
X13320098Y-11334659D02*
X13301051Y-11334659D01*
X13301051Y-11334659D02*
X13282003Y-11325135D01*
X13282003Y-11325135D02*
X13272479Y-11315611D01*
X13272479Y-11315611D02*
X13262956Y-11296563D01*
X13262956Y-11296563D02*
X13253432Y-11258468D01*
X13253432Y-11258468D02*
X13253432Y-11210849D01*
X13253432Y-11210849D02*
X13262956Y-11172754D01*
X13262956Y-11172754D02*
X13272479Y-11153706D01*
X13272479Y-11153706D02*
X13282003Y-11144183D01*
X13282003Y-11144183D02*
X13301051Y-11134659D01*
X13453432Y-11315611D02*
X13462956Y-11325135D01*
X13462956Y-11325135D02*
X13453432Y-11334659D01*
X13453432Y-11334659D02*
X13443908Y-11325135D01*
X13443908Y-11325135D02*
X13453432Y-11315611D01*
X13453432Y-11315611D02*
X13453432Y-11334659D01*
X13586765Y-11134659D02*
X13605813Y-11134659D01*
X13605813Y-11134659D02*
X13624860Y-11144183D01*
X13624860Y-11144183D02*
X13634384Y-11153706D01*
X13634384Y-11153706D02*
X13643908Y-11172754D01*
X13643908Y-11172754D02*
X13653432Y-11210849D01*
X13653432Y-11210849D02*
X13653432Y-11258468D01*
X13653432Y-11258468D02*
X13643908Y-11296563D01*
X13643908Y-11296563D02*
X13634384Y-11315611D01*
X13634384Y-11315611D02*
X13624860Y-11325135D01*
X13624860Y-11325135D02*
X13605813Y-11334659D01*
X13605813Y-11334659D02*
X13586765Y-11334659D01*
X13586765Y-11334659D02*
X13567717Y-11325135D01*
X13567717Y-11325135D02*
X13558194Y-11315611D01*
X13558194Y-11315611D02*
X13548670Y-11296563D01*
X13548670Y-11296563D02*
X13539146Y-11258468D01*
X13539146Y-11258468D02*
X13539146Y-11210849D01*
X13539146Y-11210849D02*
X13548670Y-11172754D01*
X13548670Y-11172754D02*
X13558194Y-11153706D01*
X13558194Y-11153706D02*
X13567717Y-11144183D01*
X13567717Y-11144183D02*
X13586765Y-11134659D01*
X13843908Y-11334659D02*
X13729622Y-11334659D01*
X13786765Y-11334659D02*
X13786765Y-11134659D01*
X13786765Y-11134659D02*
X13767717Y-11163230D01*
X13767717Y-11163230D02*
X13748670Y-11182278D01*
X13748670Y-11182278D02*
X13729622Y-11191802D01*
X14024860Y-11134659D02*
X13929622Y-11134659D01*
X13929622Y-11134659D02*
X13920098Y-11229897D01*
X13920098Y-11229897D02*
X13929622Y-11220373D01*
X13929622Y-11220373D02*
X13948670Y-11210849D01*
X13948670Y-11210849D02*
X13996289Y-11210849D01*
X13996289Y-11210849D02*
X14015337Y-11220373D01*
X14015337Y-11220373D02*
X14024860Y-11229897D01*
X14024860Y-11229897D02*
X14034384Y-11248944D01*
X14034384Y-11248944D02*
X14034384Y-11296563D01*
X14034384Y-11296563D02*
X14024860Y-11315611D01*
X14024860Y-11315611D02*
X14015337Y-11325135D01*
X14015337Y-11325135D02*
X13996289Y-11334659D01*
X13996289Y-11334659D02*
X13948670Y-11334659D01*
X13948670Y-11334659D02*
X13929622Y-11325135D01*
X13929622Y-11325135D02*
X13920098Y-11315611D01*
X14101051Y-11134659D02*
X14234384Y-11134659D01*
X14234384Y-11134659D02*
X14148670Y-11334659D01*
X14301051Y-11134659D02*
X14301051Y-11172754D01*
X14377241Y-11134659D02*
X14377241Y-11172754D01*
X14672480Y-11410849D02*
X14662956Y-11401325D01*
X14662956Y-11401325D02*
X14643908Y-11372754D01*
X14643908Y-11372754D02*
X14634384Y-11353706D01*
X14634384Y-11353706D02*
X14624860Y-11325135D01*
X14624860Y-11325135D02*
X14615337Y-11277516D01*
X14615337Y-11277516D02*
X14615337Y-11239421D01*
X14615337Y-11239421D02*
X14624860Y-11191802D01*
X14624860Y-11191802D02*
X14634384Y-11163230D01*
X14634384Y-11163230D02*
X14643908Y-11144183D01*
X14643908Y-11144183D02*
X14662956Y-11115611D01*
X14662956Y-11115611D02*
X14672480Y-11106087D01*
X14729622Y-11134659D02*
X14862956Y-11134659D01*
X14862956Y-11134659D02*
X14777241Y-11334659D01*
X15091527Y-11334659D02*
X15091527Y-11134659D01*
X15177241Y-11334659D02*
X15177241Y-11229897D01*
X15177241Y-11229897D02*
X15167718Y-11210849D01*
X15167718Y-11210849D02*
X15148670Y-11201325D01*
X15148670Y-11201325D02*
X15120099Y-11201325D01*
X15120099Y-11201325D02*
X15101051Y-11210849D01*
X15101051Y-11210849D02*
X15091527Y-11220373D01*
X15301051Y-11334659D02*
X15282003Y-11325135D01*
X15282003Y-11325135D02*
X15272480Y-11315611D01*
X15272480Y-11315611D02*
X15262956Y-11296563D01*
X15262956Y-11296563D02*
X15262956Y-11239421D01*
X15262956Y-11239421D02*
X15272480Y-11220373D01*
X15272480Y-11220373D02*
X15282003Y-11210849D01*
X15282003Y-11210849D02*
X15301051Y-11201325D01*
X15301051Y-11201325D02*
X15329622Y-11201325D01*
X15329622Y-11201325D02*
X15348670Y-11210849D01*
X15348670Y-11210849D02*
X15358194Y-11220373D01*
X15358194Y-11220373D02*
X15367718Y-11239421D01*
X15367718Y-11239421D02*
X15367718Y-11296563D01*
X15367718Y-11296563D02*
X15358194Y-11315611D01*
X15358194Y-11315611D02*
X15348670Y-11325135D01*
X15348670Y-11325135D02*
X15329622Y-11334659D01*
X15329622Y-11334659D02*
X15301051Y-11334659D01*
X15482003Y-11334659D02*
X15462956Y-11325135D01*
X15462956Y-11325135D02*
X15453432Y-11306087D01*
X15453432Y-11306087D02*
X15453432Y-11134659D01*
X15634384Y-11325135D02*
X15615337Y-11334659D01*
X15615337Y-11334659D02*
X15577241Y-11334659D01*
X15577241Y-11334659D02*
X15558194Y-11325135D01*
X15558194Y-11325135D02*
X15548670Y-11306087D01*
X15548670Y-11306087D02*
X15548670Y-11229897D01*
X15548670Y-11229897D02*
X15558194Y-11210849D01*
X15558194Y-11210849D02*
X15577241Y-11201325D01*
X15577241Y-11201325D02*
X15615337Y-11201325D01*
X15615337Y-11201325D02*
X15634384Y-11210849D01*
X15634384Y-11210849D02*
X15643908Y-11229897D01*
X15643908Y-11229897D02*
X15643908Y-11248944D01*
X15643908Y-11248944D02*
X15548670Y-11267992D01*
X15720099Y-11325135D02*
X15739146Y-11334659D01*
X15739146Y-11334659D02*
X15777241Y-11334659D01*
X15777241Y-11334659D02*
X15796289Y-11325135D01*
X15796289Y-11325135D02*
X15805813Y-11306087D01*
X15805813Y-11306087D02*
X15805813Y-11296563D01*
X15805813Y-11296563D02*
X15796289Y-11277516D01*
X15796289Y-11277516D02*
X15777241Y-11267992D01*
X15777241Y-11267992D02*
X15748670Y-11267992D01*
X15748670Y-11267992D02*
X15729622Y-11258468D01*
X15729622Y-11258468D02*
X15720099Y-11239421D01*
X15720099Y-11239421D02*
X15720099Y-11229897D01*
X15720099Y-11229897D02*
X15729622Y-11210849D01*
X15729622Y-11210849D02*
X15748670Y-11201325D01*
X15748670Y-11201325D02*
X15777241Y-11201325D01*
X15777241Y-11201325D02*
X15796289Y-11210849D01*
X15872480Y-11410849D02*
X15882003Y-11401325D01*
X15882003Y-11401325D02*
X15901051Y-11372754D01*
X15901051Y-11372754D02*
X15910575Y-11353706D01*
X15910575Y-11353706D02*
X15920099Y-11325135D01*
X15920099Y-11325135D02*
X15929622Y-11277516D01*
X15929622Y-11277516D02*
X15929622Y-11239421D01*
X15929622Y-11239421D02*
X15920099Y-11191802D01*
X15920099Y-11191802D02*
X15910575Y-11163230D01*
X15910575Y-11163230D02*
X15901051Y-11144183D01*
X15901051Y-11144183D02*
X15882003Y-11115611D01*
X15882003Y-11115611D02*
X15872480Y-11106087D01*
D12*
X11097417Y-11507175D02*
G75*
G02*
X11017417Y-11507175I-40000J0D01*
G01*
X11017417Y-11507175D02*
G75*
G02*
X11097417Y-11507175I40000J0D01*
G01*
D11*
X11396289Y-11398659D02*
X11415336Y-11398659D01*
X11415336Y-11398659D02*
X11434384Y-11408183D01*
X11434384Y-11408183D02*
X11443908Y-11417706D01*
X11443908Y-11417706D02*
X11453432Y-11436754D01*
X11453432Y-11436754D02*
X11462955Y-11474849D01*
X11462955Y-11474849D02*
X11462955Y-11522468D01*
X11462955Y-11522468D02*
X11453432Y-11560563D01*
X11453432Y-11560563D02*
X11443908Y-11579611D01*
X11443908Y-11579611D02*
X11434384Y-11589135D01*
X11434384Y-11589135D02*
X11415336Y-11598659D01*
X11415336Y-11598659D02*
X11396289Y-11598659D01*
X11396289Y-11598659D02*
X11377241Y-11589135D01*
X11377241Y-11589135D02*
X11367717Y-11579611D01*
X11367717Y-11579611D02*
X11358193Y-11560563D01*
X11358193Y-11560563D02*
X11348670Y-11522468D01*
X11348670Y-11522468D02*
X11348670Y-11474849D01*
X11348670Y-11474849D02*
X11358193Y-11436754D01*
X11358193Y-11436754D02*
X11367717Y-11417706D01*
X11367717Y-11417706D02*
X11377241Y-11408183D01*
X11377241Y-11408183D02*
X11396289Y-11398659D01*
X11548670Y-11579611D02*
X11558193Y-11589135D01*
X11558193Y-11589135D02*
X11548670Y-11598659D01*
X11548670Y-11598659D02*
X11539146Y-11589135D01*
X11539146Y-11589135D02*
X11548670Y-11579611D01*
X11548670Y-11579611D02*
X11548670Y-11598659D01*
X11672479Y-11484373D02*
X11653432Y-11474849D01*
X11653432Y-11474849D02*
X11643908Y-11465325D01*
X11643908Y-11465325D02*
X11634384Y-11446278D01*
X11634384Y-11446278D02*
X11634384Y-11436754D01*
X11634384Y-11436754D02*
X11643908Y-11417706D01*
X11643908Y-11417706D02*
X11653432Y-11408183D01*
X11653432Y-11408183D02*
X11672479Y-11398659D01*
X11672479Y-11398659D02*
X11710574Y-11398659D01*
X11710574Y-11398659D02*
X11729622Y-11408183D01*
X11729622Y-11408183D02*
X11739146Y-11417706D01*
X11739146Y-11417706D02*
X11748670Y-11436754D01*
X11748670Y-11436754D02*
X11748670Y-11446278D01*
X11748670Y-11446278D02*
X11739146Y-11465325D01*
X11739146Y-11465325D02*
X11729622Y-11474849D01*
X11729622Y-11474849D02*
X11710574Y-11484373D01*
X11710574Y-11484373D02*
X11672479Y-11484373D01*
X11672479Y-11484373D02*
X11653432Y-11493897D01*
X11653432Y-11493897D02*
X11643908Y-11503421D01*
X11643908Y-11503421D02*
X11634384Y-11522468D01*
X11634384Y-11522468D02*
X11634384Y-11560563D01*
X11634384Y-11560563D02*
X11643908Y-11579611D01*
X11643908Y-11579611D02*
X11653432Y-11589135D01*
X11653432Y-11589135D02*
X11672479Y-11598659D01*
X11672479Y-11598659D02*
X11710574Y-11598659D01*
X11710574Y-11598659D02*
X11729622Y-11589135D01*
X11729622Y-11589135D02*
X11739146Y-11579611D01*
X11739146Y-11579611D02*
X11748670Y-11560563D01*
X11748670Y-11560563D02*
X11748670Y-11522468D01*
X11748670Y-11522468D02*
X11739146Y-11503421D01*
X11739146Y-11503421D02*
X11729622Y-11493897D01*
X11729622Y-11493897D02*
X11710574Y-11484373D01*
X11872479Y-11398659D02*
X11891527Y-11398659D01*
X11891527Y-11398659D02*
X11910574Y-11408183D01*
X11910574Y-11408183D02*
X11920098Y-11417706D01*
X11920098Y-11417706D02*
X11929622Y-11436754D01*
X11929622Y-11436754D02*
X11939146Y-11474849D01*
X11939146Y-11474849D02*
X11939146Y-11522468D01*
X11939146Y-11522468D02*
X11929622Y-11560563D01*
X11929622Y-11560563D02*
X11920098Y-11579611D01*
X11920098Y-11579611D02*
X11910574Y-11589135D01*
X11910574Y-11589135D02*
X11891527Y-11598659D01*
X11891527Y-11598659D02*
X11872479Y-11598659D01*
X11872479Y-11598659D02*
X11853432Y-11589135D01*
X11853432Y-11589135D02*
X11843908Y-11579611D01*
X11843908Y-11579611D02*
X11834384Y-11560563D01*
X11834384Y-11560563D02*
X11824860Y-11522468D01*
X11824860Y-11522468D02*
X11824860Y-11474849D01*
X11824860Y-11474849D02*
X11834384Y-11436754D01*
X11834384Y-11436754D02*
X11843908Y-11417706D01*
X11843908Y-11417706D02*
X11853432Y-11408183D01*
X11853432Y-11408183D02*
X11872479Y-11398659D01*
X12062955Y-11398659D02*
X12082003Y-11398659D01*
X12082003Y-11398659D02*
X12101051Y-11408183D01*
X12101051Y-11408183D02*
X12110574Y-11417706D01*
X12110574Y-11417706D02*
X12120098Y-11436754D01*
X12120098Y-11436754D02*
X12129622Y-11474849D01*
X12129622Y-11474849D02*
X12129622Y-11522468D01*
X12129622Y-11522468D02*
X12120098Y-11560563D01*
X12120098Y-11560563D02*
X12110574Y-11579611D01*
X12110574Y-11579611D02*
X12101051Y-11589135D01*
X12101051Y-11589135D02*
X12082003Y-11598659D01*
X12082003Y-11598659D02*
X12062955Y-11598659D01*
X12062955Y-11598659D02*
X12043908Y-11589135D01*
X12043908Y-11589135D02*
X12034384Y-11579611D01*
X12034384Y-11579611D02*
X12024860Y-11560563D01*
X12024860Y-11560563D02*
X12015336Y-11522468D01*
X12015336Y-11522468D02*
X12015336Y-11474849D01*
X12015336Y-11474849D02*
X12024860Y-11436754D01*
X12024860Y-11436754D02*
X12034384Y-11417706D01*
X12034384Y-11417706D02*
X12043908Y-11408183D01*
X12043908Y-11408183D02*
X12062955Y-11398659D01*
X12215336Y-11598659D02*
X12215336Y-11465325D01*
X12215336Y-11484373D02*
X12224860Y-11474849D01*
X12224860Y-11474849D02*
X12243908Y-11465325D01*
X12243908Y-11465325D02*
X12272479Y-11465325D01*
X12272479Y-11465325D02*
X12291527Y-11474849D01*
X12291527Y-11474849D02*
X12301051Y-11493897D01*
X12301051Y-11493897D02*
X12301051Y-11598659D01*
X12301051Y-11493897D02*
X12310574Y-11474849D01*
X12310574Y-11474849D02*
X12329622Y-11465325D01*
X12329622Y-11465325D02*
X12358193Y-11465325D01*
X12358193Y-11465325D02*
X12377241Y-11474849D01*
X12377241Y-11474849D02*
X12386765Y-11493897D01*
X12386765Y-11493897D02*
X12386765Y-11598659D01*
X12482003Y-11598659D02*
X12482003Y-11465325D01*
X12482003Y-11484373D02*
X12491527Y-11474849D01*
X12491527Y-11474849D02*
X12510574Y-11465325D01*
X12510574Y-11465325D02*
X12539146Y-11465325D01*
X12539146Y-11465325D02*
X12558194Y-11474849D01*
X12558194Y-11474849D02*
X12567717Y-11493897D01*
X12567717Y-11493897D02*
X12567717Y-11598659D01*
X12567717Y-11493897D02*
X12577241Y-11474849D01*
X12577241Y-11474849D02*
X12596289Y-11465325D01*
X12596289Y-11465325D02*
X12624860Y-11465325D01*
X12624860Y-11465325D02*
X12643908Y-11474849D01*
X12643908Y-11474849D02*
X12653432Y-11493897D01*
X12653432Y-11493897D02*
X12653432Y-11598659D01*
X13043908Y-11389135D02*
X12872479Y-11646278D01*
X13301051Y-11398659D02*
X13320098Y-11398659D01*
X13320098Y-11398659D02*
X13339146Y-11408183D01*
X13339146Y-11408183D02*
X13348670Y-11417706D01*
X13348670Y-11417706D02*
X13358194Y-11436754D01*
X13358194Y-11436754D02*
X13367717Y-11474849D01*
X13367717Y-11474849D02*
X13367717Y-11522468D01*
X13367717Y-11522468D02*
X13358194Y-11560563D01*
X13358194Y-11560563D02*
X13348670Y-11579611D01*
X13348670Y-11579611D02*
X13339146Y-11589135D01*
X13339146Y-11589135D02*
X13320098Y-11598659D01*
X13320098Y-11598659D02*
X13301051Y-11598659D01*
X13301051Y-11598659D02*
X13282003Y-11589135D01*
X13282003Y-11589135D02*
X13272479Y-11579611D01*
X13272479Y-11579611D02*
X13262956Y-11560563D01*
X13262956Y-11560563D02*
X13253432Y-11522468D01*
X13253432Y-11522468D02*
X13253432Y-11474849D01*
X13253432Y-11474849D02*
X13262956Y-11436754D01*
X13262956Y-11436754D02*
X13272479Y-11417706D01*
X13272479Y-11417706D02*
X13282003Y-11408183D01*
X13282003Y-11408183D02*
X13301051Y-11398659D01*
X13453432Y-11579611D02*
X13462956Y-11589135D01*
X13462956Y-11589135D02*
X13453432Y-11598659D01*
X13453432Y-11598659D02*
X13443908Y-11589135D01*
X13443908Y-11589135D02*
X13453432Y-11579611D01*
X13453432Y-11579611D02*
X13453432Y-11598659D01*
X13586765Y-11398659D02*
X13605813Y-11398659D01*
X13605813Y-11398659D02*
X13624860Y-11408183D01*
X13624860Y-11408183D02*
X13634384Y-11417706D01*
X13634384Y-11417706D02*
X13643908Y-11436754D01*
X13643908Y-11436754D02*
X13653432Y-11474849D01*
X13653432Y-11474849D02*
X13653432Y-11522468D01*
X13653432Y-11522468D02*
X13643908Y-11560563D01*
X13643908Y-11560563D02*
X13634384Y-11579611D01*
X13634384Y-11579611D02*
X13624860Y-11589135D01*
X13624860Y-11589135D02*
X13605813Y-11598659D01*
X13605813Y-11598659D02*
X13586765Y-11598659D01*
X13586765Y-11598659D02*
X13567717Y-11589135D01*
X13567717Y-11589135D02*
X13558194Y-11579611D01*
X13558194Y-11579611D02*
X13548670Y-11560563D01*
X13548670Y-11560563D02*
X13539146Y-11522468D01*
X13539146Y-11522468D02*
X13539146Y-11474849D01*
X13539146Y-11474849D02*
X13548670Y-11436754D01*
X13548670Y-11436754D02*
X13558194Y-11417706D01*
X13558194Y-11417706D02*
X13567717Y-11408183D01*
X13567717Y-11408183D02*
X13586765Y-11398659D01*
X13720098Y-11398659D02*
X13843908Y-11398659D01*
X13843908Y-11398659D02*
X13777241Y-11474849D01*
X13777241Y-11474849D02*
X13805813Y-11474849D01*
X13805813Y-11474849D02*
X13824860Y-11484373D01*
X13824860Y-11484373D02*
X13834384Y-11493897D01*
X13834384Y-11493897D02*
X13843908Y-11512944D01*
X13843908Y-11512944D02*
X13843908Y-11560563D01*
X13843908Y-11560563D02*
X13834384Y-11579611D01*
X13834384Y-11579611D02*
X13824860Y-11589135D01*
X13824860Y-11589135D02*
X13805813Y-11598659D01*
X13805813Y-11598659D02*
X13748670Y-11598659D01*
X13748670Y-11598659D02*
X13729622Y-11589135D01*
X13729622Y-11589135D02*
X13720098Y-11579611D01*
X14034384Y-11598659D02*
X13920098Y-11598659D01*
X13977241Y-11598659D02*
X13977241Y-11398659D01*
X13977241Y-11398659D02*
X13958194Y-11427230D01*
X13958194Y-11427230D02*
X13939146Y-11446278D01*
X13939146Y-11446278D02*
X13920098Y-11455802D01*
X14215337Y-11398659D02*
X14120098Y-11398659D01*
X14120098Y-11398659D02*
X14110575Y-11493897D01*
X14110575Y-11493897D02*
X14120098Y-11484373D01*
X14120098Y-11484373D02*
X14139146Y-11474849D01*
X14139146Y-11474849D02*
X14186765Y-11474849D01*
X14186765Y-11474849D02*
X14205813Y-11484373D01*
X14205813Y-11484373D02*
X14215337Y-11493897D01*
X14215337Y-11493897D02*
X14224860Y-11512944D01*
X14224860Y-11512944D02*
X14224860Y-11560563D01*
X14224860Y-11560563D02*
X14215337Y-11579611D01*
X14215337Y-11579611D02*
X14205813Y-11589135D01*
X14205813Y-11589135D02*
X14186765Y-11598659D01*
X14186765Y-11598659D02*
X14139146Y-11598659D01*
X14139146Y-11598659D02*
X14120098Y-11589135D01*
X14120098Y-11589135D02*
X14110575Y-11579611D01*
X14301051Y-11398659D02*
X14301051Y-11436754D01*
X14377241Y-11398659D02*
X14377241Y-11436754D01*
X14672480Y-11674849D02*
X14662956Y-11665325D01*
X14662956Y-11665325D02*
X14643908Y-11636754D01*
X14643908Y-11636754D02*
X14634384Y-11617706D01*
X14634384Y-11617706D02*
X14624860Y-11589135D01*
X14624860Y-11589135D02*
X14615337Y-11541516D01*
X14615337Y-11541516D02*
X14615337Y-11503421D01*
X14615337Y-11503421D02*
X14624860Y-11455802D01*
X14624860Y-11455802D02*
X14634384Y-11427230D01*
X14634384Y-11427230D02*
X14643908Y-11408183D01*
X14643908Y-11408183D02*
X14662956Y-11379611D01*
X14662956Y-11379611D02*
X14672480Y-11370087D01*
X14739146Y-11417706D02*
X14748670Y-11408183D01*
X14748670Y-11408183D02*
X14767718Y-11398659D01*
X14767718Y-11398659D02*
X14815337Y-11398659D01*
X14815337Y-11398659D02*
X14834384Y-11408183D01*
X14834384Y-11408183D02*
X14843908Y-11417706D01*
X14843908Y-11417706D02*
X14853432Y-11436754D01*
X14853432Y-11436754D02*
X14853432Y-11455802D01*
X14853432Y-11455802D02*
X14843908Y-11484373D01*
X14843908Y-11484373D02*
X14729622Y-11598659D01*
X14729622Y-11598659D02*
X14853432Y-11598659D01*
X15091527Y-11598659D02*
X15091527Y-11398659D01*
X15177241Y-11598659D02*
X15177241Y-11493897D01*
X15177241Y-11493897D02*
X15167718Y-11474849D01*
X15167718Y-11474849D02*
X15148670Y-11465325D01*
X15148670Y-11465325D02*
X15120099Y-11465325D01*
X15120099Y-11465325D02*
X15101051Y-11474849D01*
X15101051Y-11474849D02*
X15091527Y-11484373D01*
X15301051Y-11598659D02*
X15282003Y-11589135D01*
X15282003Y-11589135D02*
X15272480Y-11579611D01*
X15272480Y-11579611D02*
X15262956Y-11560563D01*
X15262956Y-11560563D02*
X15262956Y-11503421D01*
X15262956Y-11503421D02*
X15272480Y-11484373D01*
X15272480Y-11484373D02*
X15282003Y-11474849D01*
X15282003Y-11474849D02*
X15301051Y-11465325D01*
X15301051Y-11465325D02*
X15329622Y-11465325D01*
X15329622Y-11465325D02*
X15348670Y-11474849D01*
X15348670Y-11474849D02*
X15358194Y-11484373D01*
X15358194Y-11484373D02*
X15367718Y-11503421D01*
X15367718Y-11503421D02*
X15367718Y-11560563D01*
X15367718Y-11560563D02*
X15358194Y-11579611D01*
X15358194Y-11579611D02*
X15348670Y-11589135D01*
X15348670Y-11589135D02*
X15329622Y-11598659D01*
X15329622Y-11598659D02*
X15301051Y-11598659D01*
X15482003Y-11598659D02*
X15462956Y-11589135D01*
X15462956Y-11589135D02*
X15453432Y-11570087D01*
X15453432Y-11570087D02*
X15453432Y-11398659D01*
X15634384Y-11589135D02*
X15615337Y-11598659D01*
X15615337Y-11598659D02*
X15577241Y-11598659D01*
X15577241Y-11598659D02*
X15558194Y-11589135D01*
X15558194Y-11589135D02*
X15548670Y-11570087D01*
X15548670Y-11570087D02*
X15548670Y-11493897D01*
X15548670Y-11493897D02*
X15558194Y-11474849D01*
X15558194Y-11474849D02*
X15577241Y-11465325D01*
X15577241Y-11465325D02*
X15615337Y-11465325D01*
X15615337Y-11465325D02*
X15634384Y-11474849D01*
X15634384Y-11474849D02*
X15643908Y-11493897D01*
X15643908Y-11493897D02*
X15643908Y-11512944D01*
X15643908Y-11512944D02*
X15548670Y-11531992D01*
X15720099Y-11589135D02*
X15739146Y-11598659D01*
X15739146Y-11598659D02*
X15777241Y-11598659D01*
X15777241Y-11598659D02*
X15796289Y-11589135D01*
X15796289Y-11589135D02*
X15805813Y-11570087D01*
X15805813Y-11570087D02*
X15805813Y-11560563D01*
X15805813Y-11560563D02*
X15796289Y-11541516D01*
X15796289Y-11541516D02*
X15777241Y-11531992D01*
X15777241Y-11531992D02*
X15748670Y-11531992D01*
X15748670Y-11531992D02*
X15729622Y-11522468D01*
X15729622Y-11522468D02*
X15720099Y-11503421D01*
X15720099Y-11503421D02*
X15720099Y-11493897D01*
X15720099Y-11493897D02*
X15729622Y-11474849D01*
X15729622Y-11474849D02*
X15748670Y-11465325D01*
X15748670Y-11465325D02*
X15777241Y-11465325D01*
X15777241Y-11465325D02*
X15796289Y-11474849D01*
X15872480Y-11674849D02*
X15882003Y-11665325D01*
X15882003Y-11665325D02*
X15901051Y-11636754D01*
X15901051Y-11636754D02*
X15910575Y-11617706D01*
X15910575Y-11617706D02*
X15920099Y-11589135D01*
X15920099Y-11589135D02*
X15929622Y-11541516D01*
X15929622Y-11541516D02*
X15929622Y-11503421D01*
X15929622Y-11503421D02*
X15920099Y-11455802D01*
X15920099Y-11455802D02*
X15910575Y-11427230D01*
X15910575Y-11427230D02*
X15901051Y-11408183D01*
X15901051Y-11408183D02*
X15882003Y-11379611D01*
X15882003Y-11379611D02*
X15872480Y-11370087D01*
D12*
X11047417Y-11721175D02*
X11047417Y-11821175D01*
X10997417Y-11771175D02*
X11097417Y-11771175D01*
D11*
X11462955Y-11862659D02*
X11348670Y-11862659D01*
X11405812Y-11862659D02*
X11405812Y-11662659D01*
X11405812Y-11662659D02*
X11386765Y-11691230D01*
X11386765Y-11691230D02*
X11367717Y-11710278D01*
X11367717Y-11710278D02*
X11348670Y-11719802D01*
X11548670Y-11843611D02*
X11558193Y-11853135D01*
X11558193Y-11853135D02*
X11548670Y-11862659D01*
X11548670Y-11862659D02*
X11539146Y-11853135D01*
X11539146Y-11853135D02*
X11548670Y-11843611D01*
X11548670Y-11843611D02*
X11548670Y-11862659D01*
X11682003Y-11662659D02*
X11701051Y-11662659D01*
X11701051Y-11662659D02*
X11720098Y-11672183D01*
X11720098Y-11672183D02*
X11729622Y-11681706D01*
X11729622Y-11681706D02*
X11739146Y-11700754D01*
X11739146Y-11700754D02*
X11748670Y-11738849D01*
X11748670Y-11738849D02*
X11748670Y-11786468D01*
X11748670Y-11786468D02*
X11739146Y-11824563D01*
X11739146Y-11824563D02*
X11729622Y-11843611D01*
X11729622Y-11843611D02*
X11720098Y-11853135D01*
X11720098Y-11853135D02*
X11701051Y-11862659D01*
X11701051Y-11862659D02*
X11682003Y-11862659D01*
X11682003Y-11862659D02*
X11662955Y-11853135D01*
X11662955Y-11853135D02*
X11653432Y-11843611D01*
X11653432Y-11843611D02*
X11643908Y-11824563D01*
X11643908Y-11824563D02*
X11634384Y-11786468D01*
X11634384Y-11786468D02*
X11634384Y-11738849D01*
X11634384Y-11738849D02*
X11643908Y-11700754D01*
X11643908Y-11700754D02*
X11653432Y-11681706D01*
X11653432Y-11681706D02*
X11662955Y-11672183D01*
X11662955Y-11672183D02*
X11682003Y-11662659D01*
X11872479Y-11662659D02*
X11891527Y-11662659D01*
X11891527Y-11662659D02*
X11910574Y-11672183D01*
X11910574Y-11672183D02*
X11920098Y-11681706D01*
X11920098Y-11681706D02*
X11929622Y-11700754D01*
X11929622Y-11700754D02*
X11939146Y-11738849D01*
X11939146Y-11738849D02*
X11939146Y-11786468D01*
X11939146Y-11786468D02*
X11929622Y-11824563D01*
X11929622Y-11824563D02*
X11920098Y-11843611D01*
X11920098Y-11843611D02*
X11910574Y-11853135D01*
X11910574Y-11853135D02*
X11891527Y-11862659D01*
X11891527Y-11862659D02*
X11872479Y-11862659D01*
X11872479Y-11862659D02*
X11853432Y-11853135D01*
X11853432Y-11853135D02*
X11843908Y-11843611D01*
X11843908Y-11843611D02*
X11834384Y-11824563D01*
X11834384Y-11824563D02*
X11824860Y-11786468D01*
X11824860Y-11786468D02*
X11824860Y-11738849D01*
X11824860Y-11738849D02*
X11834384Y-11700754D01*
X11834384Y-11700754D02*
X11843908Y-11681706D01*
X11843908Y-11681706D02*
X11853432Y-11672183D01*
X11853432Y-11672183D02*
X11872479Y-11662659D01*
X12062955Y-11662659D02*
X12082003Y-11662659D01*
X12082003Y-11662659D02*
X12101051Y-11672183D01*
X12101051Y-11672183D02*
X12110574Y-11681706D01*
X12110574Y-11681706D02*
X12120098Y-11700754D01*
X12120098Y-11700754D02*
X12129622Y-11738849D01*
X12129622Y-11738849D02*
X12129622Y-11786468D01*
X12129622Y-11786468D02*
X12120098Y-11824563D01*
X12120098Y-11824563D02*
X12110574Y-11843611D01*
X12110574Y-11843611D02*
X12101051Y-11853135D01*
X12101051Y-11853135D02*
X12082003Y-11862659D01*
X12082003Y-11862659D02*
X12062955Y-11862659D01*
X12062955Y-11862659D02*
X12043908Y-11853135D01*
X12043908Y-11853135D02*
X12034384Y-11843611D01*
X12034384Y-11843611D02*
X12024860Y-11824563D01*
X12024860Y-11824563D02*
X12015336Y-11786468D01*
X12015336Y-11786468D02*
X12015336Y-11738849D01*
X12015336Y-11738849D02*
X12024860Y-11700754D01*
X12024860Y-11700754D02*
X12034384Y-11681706D01*
X12034384Y-11681706D02*
X12043908Y-11672183D01*
X12043908Y-11672183D02*
X12062955Y-11662659D01*
X12215336Y-11862659D02*
X12215336Y-11729325D01*
X12215336Y-11748373D02*
X12224860Y-11738849D01*
X12224860Y-11738849D02*
X12243908Y-11729325D01*
X12243908Y-11729325D02*
X12272479Y-11729325D01*
X12272479Y-11729325D02*
X12291527Y-11738849D01*
X12291527Y-11738849D02*
X12301051Y-11757897D01*
X12301051Y-11757897D02*
X12301051Y-11862659D01*
X12301051Y-11757897D02*
X12310574Y-11738849D01*
X12310574Y-11738849D02*
X12329622Y-11729325D01*
X12329622Y-11729325D02*
X12358193Y-11729325D01*
X12358193Y-11729325D02*
X12377241Y-11738849D01*
X12377241Y-11738849D02*
X12386765Y-11757897D01*
X12386765Y-11757897D02*
X12386765Y-11862659D01*
X12482003Y-11862659D02*
X12482003Y-11729325D01*
X12482003Y-11748373D02*
X12491527Y-11738849D01*
X12491527Y-11738849D02*
X12510574Y-11729325D01*
X12510574Y-11729325D02*
X12539146Y-11729325D01*
X12539146Y-11729325D02*
X12558194Y-11738849D01*
X12558194Y-11738849D02*
X12567717Y-11757897D01*
X12567717Y-11757897D02*
X12567717Y-11862659D01*
X12567717Y-11757897D02*
X12577241Y-11738849D01*
X12577241Y-11738849D02*
X12596289Y-11729325D01*
X12596289Y-11729325D02*
X12624860Y-11729325D01*
X12624860Y-11729325D02*
X12643908Y-11738849D01*
X12643908Y-11738849D02*
X12653432Y-11757897D01*
X12653432Y-11757897D02*
X12653432Y-11862659D01*
X13043908Y-11653135D02*
X12872479Y-11910278D01*
X13301051Y-11662659D02*
X13320098Y-11662659D01*
X13320098Y-11662659D02*
X13339146Y-11672183D01*
X13339146Y-11672183D02*
X13348670Y-11681706D01*
X13348670Y-11681706D02*
X13358194Y-11700754D01*
X13358194Y-11700754D02*
X13367717Y-11738849D01*
X13367717Y-11738849D02*
X13367717Y-11786468D01*
X13367717Y-11786468D02*
X13358194Y-11824563D01*
X13358194Y-11824563D02*
X13348670Y-11843611D01*
X13348670Y-11843611D02*
X13339146Y-11853135D01*
X13339146Y-11853135D02*
X13320098Y-11862659D01*
X13320098Y-11862659D02*
X13301051Y-11862659D01*
X13301051Y-11862659D02*
X13282003Y-11853135D01*
X13282003Y-11853135D02*
X13272479Y-11843611D01*
X13272479Y-11843611D02*
X13262956Y-11824563D01*
X13262956Y-11824563D02*
X13253432Y-11786468D01*
X13253432Y-11786468D02*
X13253432Y-11738849D01*
X13253432Y-11738849D02*
X13262956Y-11700754D01*
X13262956Y-11700754D02*
X13272479Y-11681706D01*
X13272479Y-11681706D02*
X13282003Y-11672183D01*
X13282003Y-11672183D02*
X13301051Y-11662659D01*
X13453432Y-11843611D02*
X13462956Y-11853135D01*
X13462956Y-11853135D02*
X13453432Y-11862659D01*
X13453432Y-11862659D02*
X13443908Y-11853135D01*
X13443908Y-11853135D02*
X13453432Y-11843611D01*
X13453432Y-11843611D02*
X13453432Y-11862659D01*
X13586765Y-11662659D02*
X13605813Y-11662659D01*
X13605813Y-11662659D02*
X13624860Y-11672183D01*
X13624860Y-11672183D02*
X13634384Y-11681706D01*
X13634384Y-11681706D02*
X13643908Y-11700754D01*
X13643908Y-11700754D02*
X13653432Y-11738849D01*
X13653432Y-11738849D02*
X13653432Y-11786468D01*
X13653432Y-11786468D02*
X13643908Y-11824563D01*
X13643908Y-11824563D02*
X13634384Y-11843611D01*
X13634384Y-11843611D02*
X13624860Y-11853135D01*
X13624860Y-11853135D02*
X13605813Y-11862659D01*
X13605813Y-11862659D02*
X13586765Y-11862659D01*
X13586765Y-11862659D02*
X13567717Y-11853135D01*
X13567717Y-11853135D02*
X13558194Y-11843611D01*
X13558194Y-11843611D02*
X13548670Y-11824563D01*
X13548670Y-11824563D02*
X13539146Y-11786468D01*
X13539146Y-11786468D02*
X13539146Y-11738849D01*
X13539146Y-11738849D02*
X13548670Y-11700754D01*
X13548670Y-11700754D02*
X13558194Y-11681706D01*
X13558194Y-11681706D02*
X13567717Y-11672183D01*
X13567717Y-11672183D02*
X13586765Y-11662659D01*
X13720098Y-11662659D02*
X13843908Y-11662659D01*
X13843908Y-11662659D02*
X13777241Y-11738849D01*
X13777241Y-11738849D02*
X13805813Y-11738849D01*
X13805813Y-11738849D02*
X13824860Y-11748373D01*
X13824860Y-11748373D02*
X13834384Y-11757897D01*
X13834384Y-11757897D02*
X13843908Y-11776944D01*
X13843908Y-11776944D02*
X13843908Y-11824563D01*
X13843908Y-11824563D02*
X13834384Y-11843611D01*
X13834384Y-11843611D02*
X13824860Y-11853135D01*
X13824860Y-11853135D02*
X13805813Y-11862659D01*
X13805813Y-11862659D02*
X13748670Y-11862659D01*
X13748670Y-11862659D02*
X13729622Y-11853135D01*
X13729622Y-11853135D02*
X13720098Y-11843611D01*
X13939146Y-11862659D02*
X13977241Y-11862659D01*
X13977241Y-11862659D02*
X13996289Y-11853135D01*
X13996289Y-11853135D02*
X14005813Y-11843611D01*
X14005813Y-11843611D02*
X14024860Y-11815040D01*
X14024860Y-11815040D02*
X14034384Y-11776944D01*
X14034384Y-11776944D02*
X14034384Y-11700754D01*
X14034384Y-11700754D02*
X14024860Y-11681706D01*
X14024860Y-11681706D02*
X14015337Y-11672183D01*
X14015337Y-11672183D02*
X13996289Y-11662659D01*
X13996289Y-11662659D02*
X13958194Y-11662659D01*
X13958194Y-11662659D02*
X13939146Y-11672183D01*
X13939146Y-11672183D02*
X13929622Y-11681706D01*
X13929622Y-11681706D02*
X13920098Y-11700754D01*
X13920098Y-11700754D02*
X13920098Y-11748373D01*
X13920098Y-11748373D02*
X13929622Y-11767421D01*
X13929622Y-11767421D02*
X13939146Y-11776944D01*
X13939146Y-11776944D02*
X13958194Y-11786468D01*
X13958194Y-11786468D02*
X13996289Y-11786468D01*
X13996289Y-11786468D02*
X14015337Y-11776944D01*
X14015337Y-11776944D02*
X14024860Y-11767421D01*
X14024860Y-11767421D02*
X14034384Y-11748373D01*
X14205813Y-11729325D02*
X14205813Y-11862659D01*
X14158194Y-11653135D02*
X14110575Y-11795992D01*
X14110575Y-11795992D02*
X14234384Y-11795992D01*
X14301051Y-11662659D02*
X14301051Y-11700754D01*
X14377241Y-11662659D02*
X14377241Y-11700754D01*
X14672480Y-11938849D02*
X14662956Y-11929325D01*
X14662956Y-11929325D02*
X14643908Y-11900754D01*
X14643908Y-11900754D02*
X14634384Y-11881706D01*
X14634384Y-11881706D02*
X14624860Y-11853135D01*
X14624860Y-11853135D02*
X14615337Y-11805516D01*
X14615337Y-11805516D02*
X14615337Y-11767421D01*
X14615337Y-11767421D02*
X14624860Y-11719802D01*
X14624860Y-11719802D02*
X14634384Y-11691230D01*
X14634384Y-11691230D02*
X14643908Y-11672183D01*
X14643908Y-11672183D02*
X14662956Y-11643611D01*
X14662956Y-11643611D02*
X14672480Y-11634087D01*
X14834384Y-11662659D02*
X14796289Y-11662659D01*
X14796289Y-11662659D02*
X14777241Y-11672183D01*
X14777241Y-11672183D02*
X14767718Y-11681706D01*
X14767718Y-11681706D02*
X14748670Y-11710278D01*
X14748670Y-11710278D02*
X14739146Y-11748373D01*
X14739146Y-11748373D02*
X14739146Y-11824563D01*
X14739146Y-11824563D02*
X14748670Y-11843611D01*
X14748670Y-11843611D02*
X14758194Y-11853135D01*
X14758194Y-11853135D02*
X14777241Y-11862659D01*
X14777241Y-11862659D02*
X14815337Y-11862659D01*
X14815337Y-11862659D02*
X14834384Y-11853135D01*
X14834384Y-11853135D02*
X14843908Y-11843611D01*
X14843908Y-11843611D02*
X14853432Y-11824563D01*
X14853432Y-11824563D02*
X14853432Y-11776944D01*
X14853432Y-11776944D02*
X14843908Y-11757897D01*
X14843908Y-11757897D02*
X14834384Y-11748373D01*
X14834384Y-11748373D02*
X14815337Y-11738849D01*
X14815337Y-11738849D02*
X14777241Y-11738849D01*
X14777241Y-11738849D02*
X14758194Y-11748373D01*
X14758194Y-11748373D02*
X14748670Y-11757897D01*
X14748670Y-11757897D02*
X14739146Y-11776944D01*
X15091527Y-11862659D02*
X15091527Y-11662659D01*
X15177241Y-11862659D02*
X15177241Y-11757897D01*
X15177241Y-11757897D02*
X15167718Y-11738849D01*
X15167718Y-11738849D02*
X15148670Y-11729325D01*
X15148670Y-11729325D02*
X15120099Y-11729325D01*
X15120099Y-11729325D02*
X15101051Y-11738849D01*
X15101051Y-11738849D02*
X15091527Y-11748373D01*
X15301051Y-11862659D02*
X15282003Y-11853135D01*
X15282003Y-11853135D02*
X15272480Y-11843611D01*
X15272480Y-11843611D02*
X15262956Y-11824563D01*
X15262956Y-11824563D02*
X15262956Y-11767421D01*
X15262956Y-11767421D02*
X15272480Y-11748373D01*
X15272480Y-11748373D02*
X15282003Y-11738849D01*
X15282003Y-11738849D02*
X15301051Y-11729325D01*
X15301051Y-11729325D02*
X15329622Y-11729325D01*
X15329622Y-11729325D02*
X15348670Y-11738849D01*
X15348670Y-11738849D02*
X15358194Y-11748373D01*
X15358194Y-11748373D02*
X15367718Y-11767421D01*
X15367718Y-11767421D02*
X15367718Y-11824563D01*
X15367718Y-11824563D02*
X15358194Y-11843611D01*
X15358194Y-11843611D02*
X15348670Y-11853135D01*
X15348670Y-11853135D02*
X15329622Y-11862659D01*
X15329622Y-11862659D02*
X15301051Y-11862659D01*
X15482003Y-11862659D02*
X15462956Y-11853135D01*
X15462956Y-11853135D02*
X15453432Y-11834087D01*
X15453432Y-11834087D02*
X15453432Y-11662659D01*
X15634384Y-11853135D02*
X15615337Y-11862659D01*
X15615337Y-11862659D02*
X15577241Y-11862659D01*
X15577241Y-11862659D02*
X15558194Y-11853135D01*
X15558194Y-11853135D02*
X15548670Y-11834087D01*
X15548670Y-11834087D02*
X15548670Y-11757897D01*
X15548670Y-11757897D02*
X15558194Y-11738849D01*
X15558194Y-11738849D02*
X15577241Y-11729325D01*
X15577241Y-11729325D02*
X15615337Y-11729325D01*
X15615337Y-11729325D02*
X15634384Y-11738849D01*
X15634384Y-11738849D02*
X15643908Y-11757897D01*
X15643908Y-11757897D02*
X15643908Y-11776944D01*
X15643908Y-11776944D02*
X15548670Y-11795992D01*
X15720099Y-11853135D02*
X15739146Y-11862659D01*
X15739146Y-11862659D02*
X15777241Y-11862659D01*
X15777241Y-11862659D02*
X15796289Y-11853135D01*
X15796289Y-11853135D02*
X15805813Y-11834087D01*
X15805813Y-11834087D02*
X15805813Y-11824563D01*
X15805813Y-11824563D02*
X15796289Y-11805516D01*
X15796289Y-11805516D02*
X15777241Y-11795992D01*
X15777241Y-11795992D02*
X15748670Y-11795992D01*
X15748670Y-11795992D02*
X15729622Y-11786468D01*
X15729622Y-11786468D02*
X15720099Y-11767421D01*
X15720099Y-11767421D02*
X15720099Y-11757897D01*
X15720099Y-11757897D02*
X15729622Y-11738849D01*
X15729622Y-11738849D02*
X15748670Y-11729325D01*
X15748670Y-11729325D02*
X15777241Y-11729325D01*
X15777241Y-11729325D02*
X15796289Y-11738849D01*
X15872480Y-11938849D02*
X15882003Y-11929325D01*
X15882003Y-11929325D02*
X15901051Y-11900754D01*
X15901051Y-11900754D02*
X15910575Y-11881706D01*
X15910575Y-11881706D02*
X15920099Y-11853135D01*
X15920099Y-11853135D02*
X15929622Y-11805516D01*
X15929622Y-11805516D02*
X15929622Y-11767421D01*
X15929622Y-11767421D02*
X15920099Y-11719802D01*
X15920099Y-11719802D02*
X15910575Y-11691230D01*
X15910575Y-11691230D02*
X15901051Y-11672183D01*
X15901051Y-11672183D02*
X15882003Y-11643611D01*
X15882003Y-11643611D02*
X15872480Y-11634087D01*
M02*
