%TF.GenerationSoftware,KiCad,Pcbnew,9.0.6*%
%TF.CreationDate,2026-01-10T23:28:02+00:00*%
%TF.ProjectId,P.P.B.T,502e502e-422e-4542-9e6b-696361645f70,rev?*%
%TF.SameCoordinates,Original*%
%TF.FileFunction,Drillmap*%
%TF.FilePolarity,Positive*%
%FSLAX45Y45*%
G04 Gerber Fmt 4.5, Leading zero omitted, Abs format (unit mm)*
G04 Created by KiCad (PCBNEW 9.0.6) date 2026-01-10 23:28:02*
%MOMM*%
%LPD*%
G01*
G04 APERTURE LIST*
%ADD10C,0.100000*%
%ADD11C,0.050000*%
%ADD12C,0.010000*%
%ADD13C,0.200000*%
G04 APERTURE END LIST*
D10*
X18329024Y-6301376D02*
X18682577Y-6447823D01*
D11*
X19173518Y-4409944D02*
X18554800Y-3153011D01*
X15060514Y-2534284D02*
X17297868Y-2534293D01*
D10*
X17829024Y-6801376D02*
X17975470Y-7154930D01*
D12*
X13223245Y-14496572D02*
G75*
G02*
X14049668Y-15322995I-47295J-873718D01*
G01*
X19173519Y-10110643D02*
G75*
G02*
X19126222Y-10160575I-50009J3D01*
G01*
X13220816Y-10160572D02*
G75*
G02*
X13220816Y-11908014I-47297J-873721D01*
G01*
X19173518Y-4409944D02*
X19173519Y-10110643D01*
D10*
X18329024Y-6301376D02*
X17975470Y-6447823D01*
D12*
X13223245Y-14496572D02*
G75*
G02*
X13175947Y-14447112I2705J49932D01*
G01*
D10*
X18682577Y-7154930D02*
X18329024Y-7301376D01*
X17829024Y-6801376D02*
X17975470Y-6447823D01*
D12*
X18302227Y-15322995D02*
G75*
G02*
X19128650Y-14496567I873723J-47295D01*
G01*
D10*
X17975470Y-7154930D02*
X18329024Y-7301376D01*
X18682577Y-7154930D02*
X18829024Y-6801376D01*
X18682577Y-6447823D02*
X18829024Y-6801376D01*
D11*
X17297868Y-2534293D02*
X18554800Y-3153011D01*
D12*
X19126221Y-11908013D02*
G75*
G02*
X19126221Y-10160573I47298J873720D01*
G01*
D11*
X13220816Y-11908013D02*
X13175948Y-12793943D01*
X13173510Y-4400600D02*
X13792236Y-3153008D01*
D12*
X19175948Y-12794422D02*
X19175948Y-14446643D01*
X13175948Y-12793943D02*
X13175948Y-14447112D01*
X13220816Y-10160572D02*
G75*
G02*
X13173517Y-10111112I2704J49932D01*
G01*
X13173510Y-4400600D02*
X13173519Y-10111112D01*
D11*
X13792235Y-3153008D02*
X15060514Y-2534284D01*
X19126221Y-11908013D02*
X19175948Y-12794422D01*
D12*
X18251829Y-15370293D02*
X14099598Y-15370293D01*
X19175948Y-14446643D02*
G75*
G02*
X19128650Y-14496574I-50008J3D01*
G01*
X18302227Y-15322995D02*
G75*
G02*
X18251829Y-15370288I-49927J2705D01*
G01*
X14099598Y-15370293D02*
G75*
G02*
X14049671Y-15322995I2J50003D01*
G01*
D13*
D10*
X13318300Y-4687529D02*
X13348300Y-4717529D01*
X13348300Y-4687529D02*
X13318300Y-4717529D01*
X13318300Y-9687529D02*
X13348300Y-9717529D01*
X13348300Y-9687529D02*
X13318300Y-9717529D01*
X13460714Y-13029474D02*
X13490714Y-13059474D01*
X13490714Y-13029474D02*
X13460714Y-13059474D01*
X13460714Y-14182003D02*
X13490714Y-14212003D01*
X13490714Y-14182003D02*
X13460714Y-14212003D01*
X13598300Y-4992529D02*
X13628300Y-5022529D01*
X13628300Y-4992529D02*
X13598300Y-5022529D01*
X13598300Y-5242529D02*
X13628300Y-5272529D01*
X13628300Y-5242529D02*
X13598300Y-5272529D01*
X13598300Y-5757529D02*
X13628300Y-5787529D01*
X13628300Y-5757529D02*
X13598300Y-5787529D01*
X13598300Y-6007529D02*
X13628300Y-6037529D01*
X13628300Y-6007529D02*
X13598300Y-6037529D01*
X13598300Y-6252529D02*
X13628300Y-6282529D01*
X13628300Y-6252529D02*
X13598300Y-6282529D01*
X13598300Y-6512529D02*
X13628300Y-6542529D01*
X13628300Y-6512529D02*
X13598300Y-6542529D01*
X13598300Y-7017529D02*
X13628300Y-7047529D01*
X13628300Y-7017529D02*
X13598300Y-7047529D01*
X13598300Y-7277529D02*
X13628300Y-7307529D01*
X13628300Y-7277529D02*
X13598300Y-7307529D01*
X13598300Y-7527529D02*
X13628300Y-7557529D01*
X13628300Y-7527529D02*
X13598300Y-7557529D01*
X13598300Y-7787529D02*
X13628300Y-7817529D01*
X13628300Y-7787529D02*
X13598300Y-7817529D01*
X13598300Y-8297529D02*
X13628300Y-8327529D01*
X13628300Y-8297529D02*
X13598300Y-8327529D01*
X13598300Y-8547529D02*
X13628300Y-8577529D01*
X13628300Y-8547529D02*
X13598300Y-8577529D01*
X13668300Y-3687529D02*
X13698300Y-3717529D01*
X13698300Y-3687529D02*
X13668300Y-3717529D01*
X13668300Y-4687529D02*
X13698300Y-4717529D01*
X13698300Y-4687529D02*
X13668300Y-4717529D01*
X13668300Y-6187529D02*
X13698300Y-6217529D01*
X13698300Y-6187529D02*
X13668300Y-6217529D01*
X13668300Y-6737529D02*
X13698300Y-6767529D01*
X13698300Y-6737529D02*
X13668300Y-6767529D01*
X13668300Y-7187529D02*
X13698300Y-7217529D01*
X13698300Y-7187529D02*
X13668300Y-7217529D01*
X13668300Y-7987529D02*
X13698300Y-8017529D01*
X13698300Y-7987529D02*
X13668300Y-8017529D01*
X13668300Y-9687529D02*
X13698300Y-9717529D01*
X13698300Y-9687529D02*
X13668300Y-9717529D01*
X13676588Y-13718507D02*
X13706588Y-13748507D01*
X13706588Y-13718507D02*
X13676588Y-13748507D01*
X13677729Y-13638515D02*
X13707729Y-13668515D01*
X13707729Y-13638515D02*
X13677729Y-13668515D01*
X13738300Y-6497529D02*
X13768300Y-6527529D01*
X13768300Y-6497529D02*
X13738300Y-6527529D01*
X13738300Y-6972529D02*
X13768300Y-7002529D01*
X13768300Y-6972529D02*
X13738300Y-7002529D01*
X13855729Y-13823529D02*
X13885729Y-13853529D01*
X13885729Y-13823529D02*
X13855729Y-13853529D01*
X13868300Y-3287529D02*
X13898300Y-3317529D01*
X13898300Y-3287529D02*
X13868300Y-3317529D01*
X13868300Y-6287529D02*
X13898300Y-6317529D01*
X13898300Y-6287529D02*
X13868300Y-6317529D01*
X13960729Y-13398529D02*
X13990729Y-13428529D01*
X13990729Y-13398529D02*
X13960729Y-13428529D01*
X13965729Y-13808529D02*
X13995729Y-13838529D01*
X13995729Y-13808529D02*
X13965729Y-13838529D01*
X13978300Y-7027529D02*
X14008300Y-7057529D01*
X14008300Y-7027529D02*
X13978300Y-7057529D01*
X14143300Y-6922529D02*
X14173300Y-6952529D01*
X14173300Y-6922529D02*
X14143300Y-6952529D01*
X14148300Y-6497529D02*
X14178300Y-6527529D01*
X14178300Y-6497529D02*
X14148300Y-6527529D01*
X14185729Y-13398529D02*
X14215729Y-13428529D01*
X14215729Y-13398529D02*
X14185729Y-13428529D01*
X14328300Y-8077529D02*
X14358300Y-8107529D01*
X14358300Y-8077529D02*
X14328300Y-8107529D01*
X14334654Y-15055534D02*
X14364654Y-15085534D01*
X14364654Y-15055534D02*
X14334654Y-15085534D01*
X14368300Y-6287529D02*
X14398300Y-6317529D01*
X14398300Y-6287529D02*
X14368300Y-6317529D01*
X14380729Y-13643529D02*
X14410729Y-13673529D01*
X14410729Y-13643529D02*
X14380729Y-13673529D01*
X14468300Y-7187529D02*
X14498300Y-7217529D01*
X14498300Y-7187529D02*
X14468300Y-7217529D01*
X14668300Y-3687529D02*
X14698300Y-3717529D01*
X14698300Y-3687529D02*
X14668300Y-3717529D01*
X14668300Y-4687529D02*
X14698300Y-4717529D01*
X14698300Y-4687529D02*
X14668300Y-4717529D01*
X14668300Y-5687529D02*
X14698300Y-5717529D01*
X14698300Y-5687529D02*
X14668300Y-5717529D01*
X14668300Y-6937529D02*
X14698300Y-6967529D01*
X14698300Y-6937529D02*
X14668300Y-6967529D01*
X14668300Y-7687529D02*
X14698300Y-7717529D01*
X14698300Y-7687529D02*
X14668300Y-7717529D01*
X14668300Y-8687529D02*
X14698300Y-8717529D01*
X14698300Y-8687529D02*
X14668300Y-8717529D01*
X14668300Y-9687529D02*
X14698300Y-9717529D01*
X14698300Y-9687529D02*
X14668300Y-9717529D01*
X14670729Y-11723529D02*
X14700729Y-11753529D01*
X14700729Y-11723529D02*
X14670729Y-11753529D01*
X14670729Y-12155534D02*
X14700729Y-12185534D01*
X14700729Y-12155534D02*
X14670729Y-12185534D01*
X14670729Y-15055534D02*
X14700729Y-15085534D01*
X14700729Y-15055534D02*
X14670729Y-15085534D01*
X14761729Y-2838529D02*
X14791729Y-2868529D01*
X14791729Y-2838529D02*
X14761729Y-2868529D01*
X14803300Y-7107529D02*
X14833300Y-7137529D01*
X14833300Y-7107529D02*
X14803300Y-7137529D01*
X14918300Y-6687529D02*
X14948300Y-6717529D01*
X14948300Y-6687529D02*
X14918300Y-6717529D01*
X14918300Y-7437529D02*
X14948300Y-7467529D01*
X14948300Y-7437529D02*
X14918300Y-7467529D01*
X14923300Y-7012529D02*
X14953300Y-7042529D01*
X14953300Y-7012529D02*
X14923300Y-7042529D01*
X15073300Y-6217529D02*
X15103300Y-6247529D01*
X15103300Y-6217529D02*
X15073300Y-6247529D01*
X15168300Y-6687529D02*
X15198300Y-6717529D01*
X15198300Y-6687529D02*
X15168300Y-6717529D01*
X15168300Y-7187529D02*
X15198300Y-7217529D01*
X15198300Y-7187529D02*
X15168300Y-7217529D01*
X15245874Y-6054955D02*
X15275874Y-6084955D01*
X15275874Y-6054955D02*
X15245874Y-6084955D01*
X15288300Y-7037529D02*
X15318300Y-7067529D01*
X15318300Y-7037529D02*
X15288300Y-7067529D01*
X15415729Y-12153529D02*
X15445729Y-12183529D01*
X15445729Y-12153529D02*
X15415729Y-12183529D01*
X15418300Y-7687529D02*
X15448300Y-7717529D01*
X15448300Y-7687529D02*
X15418300Y-7717529D01*
X15418300Y-8687529D02*
X15448300Y-8717529D01*
X15448300Y-8687529D02*
X15418300Y-8717529D01*
X15420729Y-11762000D02*
X15450729Y-11792000D01*
X15450729Y-11762000D02*
X15420729Y-11792000D01*
X15420729Y-15055534D02*
X15450729Y-15085534D01*
X15450729Y-15055534D02*
X15420729Y-15085534D01*
X15428300Y-5780029D02*
X15458300Y-5810029D01*
X15458300Y-5780029D02*
X15428300Y-5810029D01*
X15428300Y-5930029D02*
X15458300Y-5960029D01*
X15458300Y-5930029D02*
X15428300Y-5960029D01*
X15490300Y-7527529D02*
X15520300Y-7557529D01*
X15520300Y-7527529D02*
X15490300Y-7557529D01*
X15503300Y-6757529D02*
X15533300Y-6787529D01*
X15533300Y-6757529D02*
X15503300Y-6787529D01*
X15526187Y-7280415D02*
X15556187Y-7310415D01*
X15556187Y-7280415D02*
X15526187Y-7310415D01*
X15578300Y-5780029D02*
X15608300Y-5810029D01*
X15608300Y-5780029D02*
X15578300Y-5810029D01*
X15578300Y-5930029D02*
X15608300Y-5960029D01*
X15608300Y-5930029D02*
X15578300Y-5960029D01*
X15603300Y-6282529D02*
X15633300Y-6312529D01*
X15633300Y-6282529D02*
X15603300Y-6312529D01*
X15638500Y-7354428D02*
X15668500Y-7384428D01*
X15668500Y-7354428D02*
X15638500Y-7384428D01*
X15668300Y-3687529D02*
X15698300Y-3717529D01*
X15698300Y-3687529D02*
X15668300Y-3717529D01*
X15668300Y-4687529D02*
X15698300Y-4717529D01*
X15698300Y-4687529D02*
X15668300Y-4717529D01*
X15668300Y-5437529D02*
X15698300Y-5467529D01*
X15698300Y-5437529D02*
X15668300Y-5467529D01*
X15732042Y-8836878D02*
X15762042Y-8866878D01*
X15762042Y-8836878D02*
X15732042Y-8866878D01*
X15748300Y-5672529D02*
X15778300Y-5702529D01*
X15778300Y-5672529D02*
X15748300Y-5702529D01*
X15748300Y-6337529D02*
X15778300Y-6367529D01*
X15778300Y-6337529D02*
X15748300Y-6367529D01*
X15771187Y-7035415D02*
X15801187Y-7065415D01*
X15801187Y-7035415D02*
X15771187Y-7065415D01*
X15783500Y-7326928D02*
X15813500Y-7356928D01*
X15813500Y-7326928D02*
X15783500Y-7356928D01*
X15887727Y-7653230D02*
X15917727Y-7683230D01*
X15917727Y-7653230D02*
X15887727Y-7683230D01*
X15898300Y-7732529D02*
X15928300Y-7762529D01*
X15928300Y-7732529D02*
X15898300Y-7762529D01*
X15910800Y-9010029D02*
X15940800Y-9040029D01*
X15940800Y-9010029D02*
X15910800Y-9040029D01*
X15950479Y-8927850D02*
X15980479Y-8957850D01*
X15980479Y-8927850D02*
X15950479Y-8957850D01*
X15956000Y-7279428D02*
X15986000Y-7309428D01*
X15986000Y-7279428D02*
X15956000Y-7309428D01*
X15972186Y-6877152D02*
X16002186Y-6907152D01*
X16002186Y-6877152D02*
X15972186Y-6907152D01*
X16012301Y-9310529D02*
X16042301Y-9340529D01*
X16042301Y-9310529D02*
X16012301Y-9340529D01*
X16047156Y-6849231D02*
X16077156Y-6879231D01*
X16077156Y-6849231D02*
X16047156Y-6879231D01*
X16068300Y-7887529D02*
X16098300Y-7917529D01*
X16098300Y-7887529D02*
X16068300Y-7917529D01*
X16074201Y-6525629D02*
X16104201Y-6555629D01*
X16104201Y-6525629D02*
X16074201Y-6555629D01*
X16074201Y-6625629D02*
X16104201Y-6655629D01*
X16104201Y-6625629D02*
X16074201Y-6655629D01*
X16074201Y-6725629D02*
X16104201Y-6755629D01*
X16104201Y-6725629D02*
X16074201Y-6755629D01*
X16080563Y-9352245D02*
X16110563Y-9382245D01*
X16110563Y-9352245D02*
X16080563Y-9382245D01*
X16122645Y-6875716D02*
X16152645Y-6905716D01*
X16152645Y-6875716D02*
X16122645Y-6905716D01*
X16140451Y-9294621D02*
X16170451Y-9324621D01*
X16170451Y-9294621D02*
X16140451Y-9324621D01*
X16154685Y-6363535D02*
X16184685Y-6393535D01*
X16184685Y-6363535D02*
X16154685Y-6393535D01*
X16158300Y-3557529D02*
X16188300Y-3587529D01*
X16188300Y-3557529D02*
X16158300Y-3587529D01*
X16163300Y-8107529D02*
X16193300Y-8137529D01*
X16193300Y-8107529D02*
X16163300Y-8137529D01*
X16174201Y-6525629D02*
X16204201Y-6555629D01*
X16204201Y-6525629D02*
X16174201Y-6555629D01*
X16174201Y-6625629D02*
X16204201Y-6655629D01*
X16204201Y-6625629D02*
X16174201Y-6655629D01*
X16174201Y-6725629D02*
X16204201Y-6755629D01*
X16204201Y-6725629D02*
X16174201Y-6755629D01*
X16180902Y-7356829D02*
X16210902Y-7386829D01*
X16210902Y-7356829D02*
X16180902Y-7386829D01*
X16198300Y-7242529D02*
X16228300Y-7272529D01*
X16228300Y-7242529D02*
X16198300Y-7272529D01*
X16198500Y-8345029D02*
X16228500Y-8375029D01*
X16228500Y-8345029D02*
X16198500Y-8375029D01*
X16210623Y-9256203D02*
X16240623Y-9286203D01*
X16240623Y-9256203D02*
X16210623Y-9286203D01*
X16214743Y-8814629D02*
X16244743Y-8844629D01*
X16244743Y-8814629D02*
X16214743Y-8844629D01*
X16219105Y-8031343D02*
X16249105Y-8061343D01*
X16249105Y-8031343D02*
X16219105Y-8061343D01*
X16274201Y-6525629D02*
X16304201Y-6555629D01*
X16304201Y-6525629D02*
X16274201Y-6555629D01*
X16274201Y-6625629D02*
X16304201Y-6655629D01*
X16304201Y-6625629D02*
X16274201Y-6655629D01*
X16275702Y-7234930D02*
X16305702Y-7264930D01*
X16305702Y-7234930D02*
X16275702Y-7264930D01*
X16279900Y-7877529D02*
X16309900Y-7907529D01*
X16309900Y-7877529D02*
X16279900Y-7907529D01*
X16296031Y-9269501D02*
X16326031Y-9299501D01*
X16326031Y-9269501D02*
X16296031Y-9299501D01*
X16332200Y-3499579D02*
X16362200Y-3529579D01*
X16362200Y-3499579D02*
X16332200Y-3529579D01*
X16341484Y-7116685D02*
X16371484Y-7146685D01*
X16371484Y-7116685D02*
X16341484Y-7146685D01*
X16358300Y-4847529D02*
X16388300Y-4877529D01*
X16388300Y-4847529D02*
X16358300Y-4877529D01*
X16384101Y-6415050D02*
X16414101Y-6445050D01*
X16414101Y-6415050D02*
X16384101Y-6445050D01*
X16418300Y-5437529D02*
X16448300Y-5467529D01*
X16448300Y-5437529D02*
X16418300Y-5467529D01*
X16422404Y-6185833D02*
X16452404Y-6215833D01*
X16452404Y-6185833D02*
X16422404Y-6215833D01*
X16463300Y-7882529D02*
X16493300Y-7912529D01*
X16493300Y-7882529D02*
X16463300Y-7912529D01*
X16540145Y-9257508D02*
X16570145Y-9287508D01*
X16570145Y-9257508D02*
X16540145Y-9287508D01*
X16543301Y-7882529D02*
X16573301Y-7912529D01*
X16573301Y-7882529D02*
X16543301Y-7912529D01*
X16558300Y-4682529D02*
X16588300Y-4712529D01*
X16588300Y-4682529D02*
X16558300Y-4712529D01*
X16568300Y-8587529D02*
X16598300Y-8617529D01*
X16598300Y-8587529D02*
X16568300Y-8617529D01*
X16568300Y-8707529D02*
X16598300Y-8737529D01*
X16598300Y-8707529D02*
X16568300Y-8737529D01*
X16665729Y-12158529D02*
X16695729Y-12188529D01*
X16695729Y-12158529D02*
X16665729Y-12188529D01*
X16666045Y-6202389D02*
X16696045Y-6232389D01*
X16696045Y-6202389D02*
X16666045Y-6232389D01*
X16668300Y-3687529D02*
X16698300Y-3717529D01*
X16698300Y-3687529D02*
X16668300Y-3717529D01*
X16668300Y-4337529D02*
X16698300Y-4367529D01*
X16698300Y-4337529D02*
X16668300Y-4367529D01*
X16668300Y-7687529D02*
X16698300Y-7717529D01*
X16698300Y-7687529D02*
X16668300Y-7717529D01*
X16668300Y-9687529D02*
X16698300Y-9717529D01*
X16698300Y-9687529D02*
X16668300Y-9717529D01*
X16670729Y-11768000D02*
X16700729Y-11798000D01*
X16700729Y-11768000D02*
X16670729Y-11798000D01*
X16670729Y-15055534D02*
X16700729Y-15085534D01*
X16700729Y-15055534D02*
X16670729Y-15085534D01*
X16697716Y-9251841D02*
X16727716Y-9281841D01*
X16727716Y-9251841D02*
X16697716Y-9281841D01*
X16724300Y-8770529D02*
X16754300Y-8800529D01*
X16754300Y-8770529D02*
X16724300Y-8800529D01*
X16728300Y-4847529D02*
X16758300Y-4877529D01*
X16758300Y-4847529D02*
X16728300Y-4877529D01*
X16743300Y-6302529D02*
X16773300Y-6332529D01*
X16773300Y-6302529D02*
X16743300Y-6332529D01*
X16818300Y-8587529D02*
X16848300Y-8617529D01*
X16848300Y-8587529D02*
X16818300Y-8617529D01*
X16848300Y-6752529D02*
X16878300Y-6782529D01*
X16878300Y-6752529D02*
X16848300Y-6782529D01*
X16858300Y-6297529D02*
X16888300Y-6327529D01*
X16888300Y-6297529D02*
X16858300Y-6327529D01*
X16918300Y-5437529D02*
X16948300Y-5467529D01*
X16948300Y-5437529D02*
X16918300Y-5467529D01*
X16918300Y-5937529D02*
X16948300Y-5967529D01*
X16948300Y-5937529D02*
X16918300Y-5967529D01*
X16918300Y-6232529D02*
X16948300Y-6262529D01*
X16948300Y-6232529D02*
X16918300Y-6262529D01*
X16918300Y-7687529D02*
X16948300Y-7717529D01*
X16948300Y-7687529D02*
X16918300Y-7717529D01*
X17042300Y-6977529D02*
X17072300Y-7007529D01*
X17072300Y-6977529D02*
X17042300Y-7007529D01*
X17068300Y-8187529D02*
X17098300Y-8217529D01*
X17098300Y-8187529D02*
X17068300Y-8217529D01*
X17073300Y-4772529D02*
X17103300Y-4802529D01*
X17103300Y-4772529D02*
X17073300Y-4802529D01*
X17096300Y-6756529D02*
X17126300Y-6786529D01*
X17126300Y-6756529D02*
X17096300Y-6786529D01*
X17592729Y-2874529D02*
X17622729Y-2904529D01*
X17622729Y-2874529D02*
X17592729Y-2904529D01*
X17665729Y-12148529D02*
X17695729Y-12178529D01*
X17695729Y-12148529D02*
X17665729Y-12178529D01*
X17668300Y-3687529D02*
X17698300Y-3717529D01*
X17698300Y-3687529D02*
X17668300Y-3717529D01*
X17668300Y-4687529D02*
X17698300Y-4717529D01*
X17698300Y-4687529D02*
X17668300Y-4717529D01*
X17668300Y-6687529D02*
X17698300Y-6717529D01*
X17698300Y-6687529D02*
X17668300Y-6717529D01*
X17668300Y-7687529D02*
X17698300Y-7717529D01*
X17698300Y-7687529D02*
X17668300Y-7717529D01*
X17668300Y-8687529D02*
X17698300Y-8717529D01*
X17698300Y-8687529D02*
X17668300Y-8717529D01*
X17668300Y-9687529D02*
X17698300Y-9717529D01*
X17698300Y-9687529D02*
X17668300Y-9717529D01*
X17670729Y-11723529D02*
X17700729Y-11753529D01*
X17700729Y-11723529D02*
X17670729Y-11753529D01*
X17720729Y-15055534D02*
X17750729Y-15085534D01*
X17750729Y-15055534D02*
X17720729Y-15085534D01*
X18518300Y-3287529D02*
X18548300Y-3317529D01*
X18548300Y-3287529D02*
X18518300Y-3317529D01*
X18668300Y-3687529D02*
X18698300Y-3717529D01*
X18698300Y-3687529D02*
X18668300Y-3717529D01*
X18668300Y-4687529D02*
X18698300Y-4717529D01*
X18698300Y-4687529D02*
X18668300Y-4717529D01*
X18668300Y-8687529D02*
X18698300Y-8717529D01*
X18698300Y-8687529D02*
X18668300Y-8717529D01*
X18668300Y-9687529D02*
X18698300Y-9717529D01*
X18698300Y-9687529D02*
X18668300Y-9717529D01*
X18688300Y-4992529D02*
X18718300Y-5022529D01*
X18718300Y-4992529D02*
X18688300Y-5022529D01*
X18688300Y-5245292D02*
X18718300Y-5275292D01*
X18718300Y-5245292D02*
X18688300Y-5275292D01*
X18688300Y-5507529D02*
X18718300Y-5537529D01*
X18718300Y-5507529D02*
X18688300Y-5537529D01*
X18688300Y-5807529D02*
X18718300Y-5837529D01*
X18718300Y-5807529D02*
X18688300Y-5837529D01*
X18688300Y-6027529D02*
X18718300Y-6057529D01*
X18718300Y-6027529D02*
X18688300Y-6057529D01*
X18688300Y-6287529D02*
X18718300Y-6317529D01*
X18718300Y-6287529D02*
X18688300Y-6317529D01*
X18688300Y-7407529D02*
X18718300Y-7437529D01*
X18718300Y-7407529D02*
X18688300Y-7437529D01*
X18688300Y-7807529D02*
X18718300Y-7837529D01*
X18718300Y-7807529D02*
X18688300Y-7837529D01*
X18688300Y-8017529D02*
X18718300Y-8047529D01*
X18718300Y-8017529D02*
X18688300Y-8047529D01*
X18688300Y-8292529D02*
X18718300Y-8322529D01*
X18718300Y-8292529D02*
X18688300Y-8322529D01*
X18688300Y-8547529D02*
X18718300Y-8577529D01*
X18718300Y-8547529D02*
X18688300Y-8577529D01*
X18720300Y-7626529D02*
X18750300Y-7656529D01*
X18750300Y-7626529D02*
X18720300Y-7656529D01*
X18860715Y-13033543D02*
X18890715Y-13063543D01*
X18890715Y-13033543D02*
X18860715Y-13063543D01*
X18860715Y-14181594D02*
X18890715Y-14211594D01*
X18890715Y-14181594D02*
X18860715Y-14211594D01*
X19018300Y-4687529D02*
X19048300Y-4717529D01*
X19048300Y-4687529D02*
X19018300Y-4717529D01*
X19018300Y-9687529D02*
X19048300Y-9717529D01*
X19048300Y-9687529D02*
X19018300Y-9717529D01*
X15282979Y-13677534D02*
G75*
G02*
X15252979Y-13677534I-15000J0D01*
G01*
X15252979Y-13677534D02*
G75*
G02*
X15282979Y-13677534I15000J0D01*
G01*
X15746300Y-2717529D02*
X15746300Y-2777529D01*
X15716300Y-2747529D02*
X15776300Y-2747529D01*
X15776300Y-2777529D02*
X15776300Y-2717529D01*
X15716300Y-2717529D02*
G75*
G02*
X15776300Y-2717529I30000J0D01*
G01*
X15716300Y-2717529D02*
X15716300Y-2777529D01*
X15716300Y-2777529D02*
G75*
G03*
X15776300Y-2777529I30000J0D01*
G01*
X15746300Y-3135529D02*
X15746300Y-3195529D01*
X15716300Y-3165529D02*
X15776300Y-3165529D01*
X15776300Y-3220529D02*
X15776300Y-3110529D01*
X15716300Y-3110529D02*
G75*
G02*
X15776300Y-3110529I30000J0D01*
G01*
X15716300Y-3110529D02*
X15716300Y-3220529D01*
X15716300Y-3220529D02*
G75*
G03*
X15776300Y-3220529I30000J0D01*
G01*
X16610300Y-2717529D02*
X16610300Y-2777529D01*
X16580300Y-2747529D02*
X16640300Y-2747529D01*
X16640300Y-2777529D02*
X16640300Y-2717529D01*
X16580300Y-2717529D02*
G75*
G02*
X16640300Y-2717529I30000J0D01*
G01*
X16580300Y-2717529D02*
X16580300Y-2777529D01*
X16580300Y-2777529D02*
G75*
G03*
X16640300Y-2777529I30000J0D01*
G01*
X16610300Y-3135529D02*
X16610300Y-3195529D01*
X16580300Y-3165529D02*
X16640300Y-3165529D01*
X16640300Y-3220529D02*
X16640300Y-3110529D01*
X16580300Y-3110529D02*
G75*
G02*
X16640300Y-3110529I30000J0D01*
G01*
X16580300Y-3110529D02*
X16580300Y-3220529D01*
X16580300Y-3220529D02*
G75*
G03*
X16640300Y-3220529I30000J0D01*
G01*
X13376156Y-5041882D02*
X13376156Y-4971170D01*
X13305445Y-4971170D01*
X13305445Y-5041882D01*
X13376156Y-5041882D01*
X13376156Y-5295882D02*
X13376156Y-5225170D01*
X13305445Y-5225170D01*
X13305445Y-5295882D01*
X13376156Y-5295882D01*
X13376156Y-5549882D02*
X13376156Y-5479170D01*
X13305445Y-5479170D01*
X13305445Y-5549882D01*
X13376156Y-5549882D01*
X13376156Y-5803882D02*
X13376156Y-5733170D01*
X13305445Y-5733170D01*
X13305445Y-5803882D01*
X13376156Y-5803882D01*
X13376156Y-6057882D02*
X13376156Y-5987170D01*
X13305445Y-5987170D01*
X13305445Y-6057882D01*
X13376156Y-6057882D01*
X13376156Y-6311882D02*
X13376156Y-6241170D01*
X13305445Y-6241170D01*
X13305445Y-6311882D01*
X13376156Y-6311882D01*
X13376156Y-6565882D02*
X13376156Y-6495170D01*
X13305445Y-6495170D01*
X13305445Y-6565882D01*
X13376156Y-6565882D01*
X13376156Y-6819882D02*
X13376156Y-6749170D01*
X13305445Y-6749170D01*
X13305445Y-6819882D01*
X13376156Y-6819882D01*
X13376156Y-7073882D02*
X13376156Y-7003170D01*
X13305445Y-7003170D01*
X13305445Y-7073882D01*
X13376156Y-7073882D01*
X13376156Y-7327882D02*
X13376156Y-7257170D01*
X13305445Y-7257170D01*
X13305445Y-7327882D01*
X13376156Y-7327882D01*
X13376156Y-7581882D02*
X13376156Y-7511170D01*
X13305445Y-7511170D01*
X13305445Y-7581882D01*
X13376156Y-7581882D01*
X13376156Y-7835882D02*
X13376156Y-7765170D01*
X13305445Y-7765170D01*
X13305445Y-7835882D01*
X13376156Y-7835882D01*
X13376156Y-8089882D02*
X13376156Y-8019170D01*
X13305445Y-8019170D01*
X13305445Y-8089882D01*
X13376156Y-8089882D01*
X13376156Y-8343882D02*
X13376156Y-8273170D01*
X13305445Y-8273170D01*
X13305445Y-8343882D01*
X13376156Y-8343882D01*
X13376156Y-8597882D02*
X13376156Y-8527170D01*
X13305445Y-8527170D01*
X13305445Y-8597882D01*
X13376156Y-8597882D01*
X19051156Y-5041647D02*
X19051156Y-4970936D01*
X18980445Y-4970936D01*
X18980445Y-5041647D01*
X19051156Y-5041647D01*
X19051156Y-5295647D02*
X19051156Y-5224936D01*
X18980445Y-5224936D01*
X18980445Y-5295647D01*
X19051156Y-5295647D01*
X19051156Y-5549647D02*
X19051156Y-5478936D01*
X18980445Y-5478936D01*
X18980445Y-5549647D01*
X19051156Y-5549647D01*
X19051156Y-5803647D02*
X19051156Y-5732936D01*
X18980445Y-5732936D01*
X18980445Y-5803647D01*
X19051156Y-5803647D01*
X19051156Y-6057647D02*
X19051156Y-5986936D01*
X18980445Y-5986936D01*
X18980445Y-6057647D01*
X19051156Y-6057647D01*
X19051156Y-6311647D02*
X19051156Y-6240936D01*
X18980445Y-6240936D01*
X18980445Y-6311647D01*
X19051156Y-6311647D01*
X19051156Y-6565647D02*
X19051156Y-6494936D01*
X18980445Y-6494936D01*
X18980445Y-6565647D01*
X19051156Y-6565647D01*
X19051156Y-6819647D02*
X19051156Y-6748936D01*
X18980445Y-6748936D01*
X18980445Y-6819647D01*
X19051156Y-6819647D01*
X19051156Y-7073647D02*
X19051156Y-7002936D01*
X18980445Y-7002936D01*
X18980445Y-7073647D01*
X19051156Y-7073647D01*
X19051156Y-7327647D02*
X19051156Y-7256936D01*
X18980445Y-7256936D01*
X18980445Y-7327647D01*
X19051156Y-7327647D01*
X19051156Y-7581647D02*
X19051156Y-7510936D01*
X18980445Y-7510936D01*
X18980445Y-7581647D01*
X19051156Y-7581647D01*
X19051156Y-7835647D02*
X19051156Y-7764936D01*
X18980445Y-7764936D01*
X18980445Y-7835647D01*
X19051156Y-7835647D01*
X19051156Y-8089647D02*
X19051156Y-8018936D01*
X18980445Y-8018936D01*
X18980445Y-8089647D01*
X19051156Y-8089647D01*
X19051156Y-8343647D02*
X19051156Y-8272936D01*
X18980445Y-8272936D01*
X18980445Y-8343647D01*
X19051156Y-8343647D01*
X19051156Y-8597647D02*
X19051156Y-8526936D01*
X18980445Y-8526936D01*
X18980445Y-8597647D01*
X19051156Y-8597647D01*
X15889300Y-3145029D02*
X15921800Y-3112529D01*
X15889300Y-3080029D01*
X15856800Y-3112529D01*
X15889300Y-3145029D01*
X16467300Y-3145029D02*
X16499800Y-3112529D01*
X16467300Y-3080029D01*
X16434800Y-3112529D01*
X16467300Y-3145029D01*
D13*
X13431787Y-15682276D02*
X13431787Y-15482276D01*
X13431787Y-15482276D02*
X13479406Y-15482276D01*
X13479406Y-15482276D02*
X13507978Y-15491800D01*
X13507978Y-15491800D02*
X13527025Y-15510848D01*
X13527025Y-15510848D02*
X13536549Y-15529895D01*
X13536549Y-15529895D02*
X13546073Y-15567991D01*
X13546073Y-15567991D02*
X13546073Y-15596562D01*
X13546073Y-15596562D02*
X13536549Y-15634657D01*
X13536549Y-15634657D02*
X13527025Y-15653705D01*
X13527025Y-15653705D02*
X13507978Y-15672753D01*
X13507978Y-15672753D02*
X13479406Y-15682276D01*
X13479406Y-15682276D02*
X13431787Y-15682276D01*
X13631787Y-15682276D02*
X13631787Y-15548943D01*
X13631787Y-15587038D02*
X13641311Y-15567991D01*
X13641311Y-15567991D02*
X13650835Y-15558467D01*
X13650835Y-15558467D02*
X13669882Y-15548943D01*
X13669882Y-15548943D02*
X13688930Y-15548943D01*
X13755597Y-15682276D02*
X13755597Y-15548943D01*
X13755597Y-15482276D02*
X13746073Y-15491800D01*
X13746073Y-15491800D02*
X13755597Y-15501324D01*
X13755597Y-15501324D02*
X13765120Y-15491800D01*
X13765120Y-15491800D02*
X13755597Y-15482276D01*
X13755597Y-15482276D02*
X13755597Y-15501324D01*
X13879406Y-15682276D02*
X13860359Y-15672753D01*
X13860359Y-15672753D02*
X13850835Y-15653705D01*
X13850835Y-15653705D02*
X13850835Y-15482276D01*
X13984168Y-15682276D02*
X13965120Y-15672753D01*
X13965120Y-15672753D02*
X13955597Y-15653705D01*
X13955597Y-15653705D02*
X13955597Y-15482276D01*
X14212740Y-15682276D02*
X14212740Y-15482276D01*
X14212740Y-15482276D02*
X14279406Y-15625133D01*
X14279406Y-15625133D02*
X14346073Y-15482276D01*
X14346073Y-15482276D02*
X14346073Y-15682276D01*
X14527025Y-15682276D02*
X14527025Y-15577514D01*
X14527025Y-15577514D02*
X14517501Y-15558467D01*
X14517501Y-15558467D02*
X14498454Y-15548943D01*
X14498454Y-15548943D02*
X14460359Y-15548943D01*
X14460359Y-15548943D02*
X14441311Y-15558467D01*
X14527025Y-15672753D02*
X14507978Y-15682276D01*
X14507978Y-15682276D02*
X14460359Y-15682276D01*
X14460359Y-15682276D02*
X14441311Y-15672753D01*
X14441311Y-15672753D02*
X14431787Y-15653705D01*
X14431787Y-15653705D02*
X14431787Y-15634657D01*
X14431787Y-15634657D02*
X14441311Y-15615610D01*
X14441311Y-15615610D02*
X14460359Y-15606086D01*
X14460359Y-15606086D02*
X14507978Y-15606086D01*
X14507978Y-15606086D02*
X14527025Y-15596562D01*
X14622263Y-15548943D02*
X14622263Y-15748943D01*
X14622263Y-15558467D02*
X14641311Y-15548943D01*
X14641311Y-15548943D02*
X14679406Y-15548943D01*
X14679406Y-15548943D02*
X14698454Y-15558467D01*
X14698454Y-15558467D02*
X14707978Y-15567991D01*
X14707978Y-15567991D02*
X14717501Y-15587038D01*
X14717501Y-15587038D02*
X14717501Y-15644181D01*
X14717501Y-15644181D02*
X14707978Y-15663229D01*
X14707978Y-15663229D02*
X14698454Y-15672753D01*
X14698454Y-15672753D02*
X14679406Y-15682276D01*
X14679406Y-15682276D02*
X14641311Y-15682276D01*
X14641311Y-15682276D02*
X14622263Y-15672753D01*
X14803216Y-15663229D02*
X14812740Y-15672753D01*
X14812740Y-15672753D02*
X14803216Y-15682276D01*
X14803216Y-15682276D02*
X14793692Y-15672753D01*
X14793692Y-15672753D02*
X14803216Y-15663229D01*
X14803216Y-15663229D02*
X14803216Y-15682276D01*
X14803216Y-15558467D02*
X14812740Y-15567991D01*
X14812740Y-15567991D02*
X14803216Y-15577514D01*
X14803216Y-15577514D02*
X14793692Y-15567991D01*
X14793692Y-15567991D02*
X14803216Y-15558467D01*
X14803216Y-15558467D02*
X14803216Y-15577514D01*
D10*
X13141010Y-15995793D02*
X13171010Y-16025793D01*
X13171010Y-15995793D02*
X13141010Y-16025793D01*
D13*
X13469882Y-15902276D02*
X13488930Y-15902276D01*
X13488930Y-15902276D02*
X13507978Y-15911800D01*
X13507978Y-15911800D02*
X13517501Y-15921324D01*
X13517501Y-15921324D02*
X13527025Y-15940372D01*
X13527025Y-15940372D02*
X13536549Y-15978467D01*
X13536549Y-15978467D02*
X13536549Y-16026086D01*
X13536549Y-16026086D02*
X13527025Y-16064181D01*
X13527025Y-16064181D02*
X13517501Y-16083229D01*
X13517501Y-16083229D02*
X13507978Y-16092753D01*
X13507978Y-16092753D02*
X13488930Y-16102276D01*
X13488930Y-16102276D02*
X13469882Y-16102276D01*
X13469882Y-16102276D02*
X13450835Y-16092753D01*
X13450835Y-16092753D02*
X13441311Y-16083229D01*
X13441311Y-16083229D02*
X13431787Y-16064181D01*
X13431787Y-16064181D02*
X13422263Y-16026086D01*
X13422263Y-16026086D02*
X13422263Y-15978467D01*
X13422263Y-15978467D02*
X13431787Y-15940372D01*
X13431787Y-15940372D02*
X13441311Y-15921324D01*
X13441311Y-15921324D02*
X13450835Y-15911800D01*
X13450835Y-15911800D02*
X13469882Y-15902276D01*
X13622263Y-16083229D02*
X13631787Y-16092753D01*
X13631787Y-16092753D02*
X13622263Y-16102276D01*
X13622263Y-16102276D02*
X13612740Y-16092753D01*
X13612740Y-16092753D02*
X13622263Y-16083229D01*
X13622263Y-16083229D02*
X13622263Y-16102276D01*
X13698454Y-15902276D02*
X13822263Y-15902276D01*
X13822263Y-15902276D02*
X13755597Y-15978467D01*
X13755597Y-15978467D02*
X13784168Y-15978467D01*
X13784168Y-15978467D02*
X13803216Y-15987991D01*
X13803216Y-15987991D02*
X13812740Y-15997514D01*
X13812740Y-15997514D02*
X13822263Y-16016562D01*
X13822263Y-16016562D02*
X13822263Y-16064181D01*
X13822263Y-16064181D02*
X13812740Y-16083229D01*
X13812740Y-16083229D02*
X13803216Y-16092753D01*
X13803216Y-16092753D02*
X13784168Y-16102276D01*
X13784168Y-16102276D02*
X13727025Y-16102276D01*
X13727025Y-16102276D02*
X13707978Y-16092753D01*
X13707978Y-16092753D02*
X13698454Y-16083229D01*
X13946073Y-15902276D02*
X13965121Y-15902276D01*
X13965121Y-15902276D02*
X13984168Y-15911800D01*
X13984168Y-15911800D02*
X13993692Y-15921324D01*
X13993692Y-15921324D02*
X14003216Y-15940372D01*
X14003216Y-15940372D02*
X14012740Y-15978467D01*
X14012740Y-15978467D02*
X14012740Y-16026086D01*
X14012740Y-16026086D02*
X14003216Y-16064181D01*
X14003216Y-16064181D02*
X13993692Y-16083229D01*
X13993692Y-16083229D02*
X13984168Y-16092753D01*
X13984168Y-16092753D02*
X13965121Y-16102276D01*
X13965121Y-16102276D02*
X13946073Y-16102276D01*
X13946073Y-16102276D02*
X13927025Y-16092753D01*
X13927025Y-16092753D02*
X13917501Y-16083229D01*
X13917501Y-16083229D02*
X13907978Y-16064181D01*
X13907978Y-16064181D02*
X13898454Y-16026086D01*
X13898454Y-16026086D02*
X13898454Y-15978467D01*
X13898454Y-15978467D02*
X13907978Y-15940372D01*
X13907978Y-15940372D02*
X13917501Y-15921324D01*
X13917501Y-15921324D02*
X13927025Y-15911800D01*
X13927025Y-15911800D02*
X13946073Y-15902276D01*
X14136549Y-15902276D02*
X14155597Y-15902276D01*
X14155597Y-15902276D02*
X14174644Y-15911800D01*
X14174644Y-15911800D02*
X14184168Y-15921324D01*
X14184168Y-15921324D02*
X14193692Y-15940372D01*
X14193692Y-15940372D02*
X14203216Y-15978467D01*
X14203216Y-15978467D02*
X14203216Y-16026086D01*
X14203216Y-16026086D02*
X14193692Y-16064181D01*
X14193692Y-16064181D02*
X14184168Y-16083229D01*
X14184168Y-16083229D02*
X14174644Y-16092753D01*
X14174644Y-16092753D02*
X14155597Y-16102276D01*
X14155597Y-16102276D02*
X14136549Y-16102276D01*
X14136549Y-16102276D02*
X14117501Y-16092753D01*
X14117501Y-16092753D02*
X14107978Y-16083229D01*
X14107978Y-16083229D02*
X14098454Y-16064181D01*
X14098454Y-16064181D02*
X14088930Y-16026086D01*
X14088930Y-16026086D02*
X14088930Y-15978467D01*
X14088930Y-15978467D02*
X14098454Y-15940372D01*
X14098454Y-15940372D02*
X14107978Y-15921324D01*
X14107978Y-15921324D02*
X14117501Y-15911800D01*
X14117501Y-15911800D02*
X14136549Y-15902276D01*
X14288930Y-16102276D02*
X14288930Y-15968943D01*
X14288930Y-15987991D02*
X14298454Y-15978467D01*
X14298454Y-15978467D02*
X14317501Y-15968943D01*
X14317501Y-15968943D02*
X14346073Y-15968943D01*
X14346073Y-15968943D02*
X14365121Y-15978467D01*
X14365121Y-15978467D02*
X14374644Y-15997514D01*
X14374644Y-15997514D02*
X14374644Y-16102276D01*
X14374644Y-15997514D02*
X14384168Y-15978467D01*
X14384168Y-15978467D02*
X14403216Y-15968943D01*
X14403216Y-15968943D02*
X14431787Y-15968943D01*
X14431787Y-15968943D02*
X14450835Y-15978467D01*
X14450835Y-15978467D02*
X14460359Y-15997514D01*
X14460359Y-15997514D02*
X14460359Y-16102276D01*
X14555597Y-16102276D02*
X14555597Y-15968943D01*
X14555597Y-15987991D02*
X14565121Y-15978467D01*
X14565121Y-15978467D02*
X14584168Y-15968943D01*
X14584168Y-15968943D02*
X14612740Y-15968943D01*
X14612740Y-15968943D02*
X14631787Y-15978467D01*
X14631787Y-15978467D02*
X14641311Y-15997514D01*
X14641311Y-15997514D02*
X14641311Y-16102276D01*
X14641311Y-15997514D02*
X14650835Y-15978467D01*
X14650835Y-15978467D02*
X14669882Y-15968943D01*
X14669882Y-15968943D02*
X14698454Y-15968943D01*
X14698454Y-15968943D02*
X14717502Y-15978467D01*
X14717502Y-15978467D02*
X14727025Y-15997514D01*
X14727025Y-15997514D02*
X14727025Y-16102276D01*
X15117502Y-15892753D02*
X14946073Y-16149895D01*
X15374644Y-15902276D02*
X15393692Y-15902276D01*
X15393692Y-15902276D02*
X15412740Y-15911800D01*
X15412740Y-15911800D02*
X15422264Y-15921324D01*
X15422264Y-15921324D02*
X15431787Y-15940372D01*
X15431787Y-15940372D02*
X15441311Y-15978467D01*
X15441311Y-15978467D02*
X15441311Y-16026086D01*
X15441311Y-16026086D02*
X15431787Y-16064181D01*
X15431787Y-16064181D02*
X15422264Y-16083229D01*
X15422264Y-16083229D02*
X15412740Y-16092753D01*
X15412740Y-16092753D02*
X15393692Y-16102276D01*
X15393692Y-16102276D02*
X15374644Y-16102276D01*
X15374644Y-16102276D02*
X15355597Y-16092753D01*
X15355597Y-16092753D02*
X15346073Y-16083229D01*
X15346073Y-16083229D02*
X15336549Y-16064181D01*
X15336549Y-16064181D02*
X15327025Y-16026086D01*
X15327025Y-16026086D02*
X15327025Y-15978467D01*
X15327025Y-15978467D02*
X15336549Y-15940372D01*
X15336549Y-15940372D02*
X15346073Y-15921324D01*
X15346073Y-15921324D02*
X15355597Y-15911800D01*
X15355597Y-15911800D02*
X15374644Y-15902276D01*
X15527025Y-16083229D02*
X15536549Y-16092753D01*
X15536549Y-16092753D02*
X15527025Y-16102276D01*
X15527025Y-16102276D02*
X15517502Y-16092753D01*
X15517502Y-16092753D02*
X15527025Y-16083229D01*
X15527025Y-16083229D02*
X15527025Y-16102276D01*
X15660359Y-15902276D02*
X15679406Y-15902276D01*
X15679406Y-15902276D02*
X15698454Y-15911800D01*
X15698454Y-15911800D02*
X15707978Y-15921324D01*
X15707978Y-15921324D02*
X15717502Y-15940372D01*
X15717502Y-15940372D02*
X15727025Y-15978467D01*
X15727025Y-15978467D02*
X15727025Y-16026086D01*
X15727025Y-16026086D02*
X15717502Y-16064181D01*
X15717502Y-16064181D02*
X15707978Y-16083229D01*
X15707978Y-16083229D02*
X15698454Y-16092753D01*
X15698454Y-16092753D02*
X15679406Y-16102276D01*
X15679406Y-16102276D02*
X15660359Y-16102276D01*
X15660359Y-16102276D02*
X15641311Y-16092753D01*
X15641311Y-16092753D02*
X15631787Y-16083229D01*
X15631787Y-16083229D02*
X15622264Y-16064181D01*
X15622264Y-16064181D02*
X15612740Y-16026086D01*
X15612740Y-16026086D02*
X15612740Y-15978467D01*
X15612740Y-15978467D02*
X15622264Y-15940372D01*
X15622264Y-15940372D02*
X15631787Y-15921324D01*
X15631787Y-15921324D02*
X15641311Y-15911800D01*
X15641311Y-15911800D02*
X15660359Y-15902276D01*
X15917502Y-16102276D02*
X15803216Y-16102276D01*
X15860359Y-16102276D02*
X15860359Y-15902276D01*
X15860359Y-15902276D02*
X15841311Y-15930848D01*
X15841311Y-15930848D02*
X15822264Y-15949895D01*
X15822264Y-15949895D02*
X15803216Y-15959419D01*
X16107978Y-16102276D02*
X15993692Y-16102276D01*
X16050835Y-16102276D02*
X16050835Y-15902276D01*
X16050835Y-15902276D02*
X16031787Y-15930848D01*
X16031787Y-15930848D02*
X16012740Y-15949895D01*
X16012740Y-15949895D02*
X15993692Y-15959419D01*
X16222264Y-15987991D02*
X16203216Y-15978467D01*
X16203216Y-15978467D02*
X16193692Y-15968943D01*
X16193692Y-15968943D02*
X16184168Y-15949895D01*
X16184168Y-15949895D02*
X16184168Y-15940372D01*
X16184168Y-15940372D02*
X16193692Y-15921324D01*
X16193692Y-15921324D02*
X16203216Y-15911800D01*
X16203216Y-15911800D02*
X16222264Y-15902276D01*
X16222264Y-15902276D02*
X16260359Y-15902276D01*
X16260359Y-15902276D02*
X16279406Y-15911800D01*
X16279406Y-15911800D02*
X16288930Y-15921324D01*
X16288930Y-15921324D02*
X16298454Y-15940372D01*
X16298454Y-15940372D02*
X16298454Y-15949895D01*
X16298454Y-15949895D02*
X16288930Y-15968943D01*
X16288930Y-15968943D02*
X16279406Y-15978467D01*
X16279406Y-15978467D02*
X16260359Y-15987991D01*
X16260359Y-15987991D02*
X16222264Y-15987991D01*
X16222264Y-15987991D02*
X16203216Y-15997514D01*
X16203216Y-15997514D02*
X16193692Y-16007038D01*
X16193692Y-16007038D02*
X16184168Y-16026086D01*
X16184168Y-16026086D02*
X16184168Y-16064181D01*
X16184168Y-16064181D02*
X16193692Y-16083229D01*
X16193692Y-16083229D02*
X16203216Y-16092753D01*
X16203216Y-16092753D02*
X16222264Y-16102276D01*
X16222264Y-16102276D02*
X16260359Y-16102276D01*
X16260359Y-16102276D02*
X16279406Y-16092753D01*
X16279406Y-16092753D02*
X16288930Y-16083229D01*
X16288930Y-16083229D02*
X16298454Y-16064181D01*
X16298454Y-16064181D02*
X16298454Y-16026086D01*
X16298454Y-16026086D02*
X16288930Y-16007038D01*
X16288930Y-16007038D02*
X16279406Y-15997514D01*
X16279406Y-15997514D02*
X16260359Y-15987991D01*
X16374645Y-15902276D02*
X16374645Y-15940372D01*
X16450835Y-15902276D02*
X16450835Y-15940372D01*
X16746073Y-16178467D02*
X16736549Y-16168943D01*
X16736549Y-16168943D02*
X16717502Y-16140372D01*
X16717502Y-16140372D02*
X16707978Y-16121324D01*
X16707978Y-16121324D02*
X16698454Y-16092753D01*
X16698454Y-16092753D02*
X16688930Y-16045133D01*
X16688930Y-16045133D02*
X16688930Y-16007038D01*
X16688930Y-16007038D02*
X16698454Y-15959419D01*
X16698454Y-15959419D02*
X16707978Y-15930848D01*
X16707978Y-15930848D02*
X16717502Y-15911800D01*
X16717502Y-15911800D02*
X16736549Y-15883229D01*
X16736549Y-15883229D02*
X16746073Y-15873705D01*
X16927026Y-16102276D02*
X16812740Y-16102276D01*
X16869883Y-16102276D02*
X16869883Y-15902276D01*
X16869883Y-15902276D02*
X16850835Y-15930848D01*
X16850835Y-15930848D02*
X16831788Y-15949895D01*
X16831788Y-15949895D02*
X16812740Y-15959419D01*
X17041311Y-15987991D02*
X17022264Y-15978467D01*
X17022264Y-15978467D02*
X17012740Y-15968943D01*
X17012740Y-15968943D02*
X17003216Y-15949895D01*
X17003216Y-15949895D02*
X17003216Y-15940372D01*
X17003216Y-15940372D02*
X17012740Y-15921324D01*
X17012740Y-15921324D02*
X17022264Y-15911800D01*
X17022264Y-15911800D02*
X17041311Y-15902276D01*
X17041311Y-15902276D02*
X17079407Y-15902276D01*
X17079407Y-15902276D02*
X17098454Y-15911800D01*
X17098454Y-15911800D02*
X17107978Y-15921324D01*
X17107978Y-15921324D02*
X17117502Y-15940372D01*
X17117502Y-15940372D02*
X17117502Y-15949895D01*
X17117502Y-15949895D02*
X17107978Y-15968943D01*
X17107978Y-15968943D02*
X17098454Y-15978467D01*
X17098454Y-15978467D02*
X17079407Y-15987991D01*
X17079407Y-15987991D02*
X17041311Y-15987991D01*
X17041311Y-15987991D02*
X17022264Y-15997514D01*
X17022264Y-15997514D02*
X17012740Y-16007038D01*
X17012740Y-16007038D02*
X17003216Y-16026086D01*
X17003216Y-16026086D02*
X17003216Y-16064181D01*
X17003216Y-16064181D02*
X17012740Y-16083229D01*
X17012740Y-16083229D02*
X17022264Y-16092753D01*
X17022264Y-16092753D02*
X17041311Y-16102276D01*
X17041311Y-16102276D02*
X17079407Y-16102276D01*
X17079407Y-16102276D02*
X17098454Y-16092753D01*
X17098454Y-16092753D02*
X17107978Y-16083229D01*
X17107978Y-16083229D02*
X17117502Y-16064181D01*
X17117502Y-16064181D02*
X17117502Y-16026086D01*
X17117502Y-16026086D02*
X17107978Y-16007038D01*
X17107978Y-16007038D02*
X17098454Y-15997514D01*
X17098454Y-15997514D02*
X17079407Y-15987991D01*
X17307978Y-16102276D02*
X17193692Y-16102276D01*
X17250835Y-16102276D02*
X17250835Y-15902276D01*
X17250835Y-15902276D02*
X17231788Y-15930848D01*
X17231788Y-15930848D02*
X17212740Y-15949895D01*
X17212740Y-15949895D02*
X17193692Y-15959419D01*
X17546073Y-16102276D02*
X17546073Y-15902276D01*
X17631788Y-16102276D02*
X17631788Y-15997514D01*
X17631788Y-15997514D02*
X17622264Y-15978467D01*
X17622264Y-15978467D02*
X17603216Y-15968943D01*
X17603216Y-15968943D02*
X17574645Y-15968943D01*
X17574645Y-15968943D02*
X17555597Y-15978467D01*
X17555597Y-15978467D02*
X17546073Y-15987991D01*
X17755597Y-16102276D02*
X17736550Y-16092753D01*
X17736550Y-16092753D02*
X17727026Y-16083229D01*
X17727026Y-16083229D02*
X17717502Y-16064181D01*
X17717502Y-16064181D02*
X17717502Y-16007038D01*
X17717502Y-16007038D02*
X17727026Y-15987991D01*
X17727026Y-15987991D02*
X17736550Y-15978467D01*
X17736550Y-15978467D02*
X17755597Y-15968943D01*
X17755597Y-15968943D02*
X17784169Y-15968943D01*
X17784169Y-15968943D02*
X17803216Y-15978467D01*
X17803216Y-15978467D02*
X17812740Y-15987991D01*
X17812740Y-15987991D02*
X17822264Y-16007038D01*
X17822264Y-16007038D02*
X17822264Y-16064181D01*
X17822264Y-16064181D02*
X17812740Y-16083229D01*
X17812740Y-16083229D02*
X17803216Y-16092753D01*
X17803216Y-16092753D02*
X17784169Y-16102276D01*
X17784169Y-16102276D02*
X17755597Y-16102276D01*
X17936550Y-16102276D02*
X17917502Y-16092753D01*
X17917502Y-16092753D02*
X17907978Y-16073705D01*
X17907978Y-16073705D02*
X17907978Y-15902276D01*
X18088931Y-16092753D02*
X18069883Y-16102276D01*
X18069883Y-16102276D02*
X18031788Y-16102276D01*
X18031788Y-16102276D02*
X18012740Y-16092753D01*
X18012740Y-16092753D02*
X18003216Y-16073705D01*
X18003216Y-16073705D02*
X18003216Y-15997514D01*
X18003216Y-15997514D02*
X18012740Y-15978467D01*
X18012740Y-15978467D02*
X18031788Y-15968943D01*
X18031788Y-15968943D02*
X18069883Y-15968943D01*
X18069883Y-15968943D02*
X18088931Y-15978467D01*
X18088931Y-15978467D02*
X18098454Y-15997514D01*
X18098454Y-15997514D02*
X18098454Y-16016562D01*
X18098454Y-16016562D02*
X18003216Y-16035610D01*
X18174645Y-16092753D02*
X18193692Y-16102276D01*
X18193692Y-16102276D02*
X18231788Y-16102276D01*
X18231788Y-16102276D02*
X18250835Y-16092753D01*
X18250835Y-16092753D02*
X18260359Y-16073705D01*
X18260359Y-16073705D02*
X18260359Y-16064181D01*
X18260359Y-16064181D02*
X18250835Y-16045133D01*
X18250835Y-16045133D02*
X18231788Y-16035610D01*
X18231788Y-16035610D02*
X18203216Y-16035610D01*
X18203216Y-16035610D02*
X18184169Y-16026086D01*
X18184169Y-16026086D02*
X18174645Y-16007038D01*
X18174645Y-16007038D02*
X18174645Y-15997514D01*
X18174645Y-15997514D02*
X18184169Y-15978467D01*
X18184169Y-15978467D02*
X18203216Y-15968943D01*
X18203216Y-15968943D02*
X18231788Y-15968943D01*
X18231788Y-15968943D02*
X18250835Y-15978467D01*
X18327026Y-16178467D02*
X18336550Y-16168943D01*
X18336550Y-16168943D02*
X18355597Y-16140372D01*
X18355597Y-16140372D02*
X18365121Y-16121324D01*
X18365121Y-16121324D02*
X18374645Y-16092753D01*
X18374645Y-16092753D02*
X18384169Y-16045133D01*
X18384169Y-16045133D02*
X18384169Y-16007038D01*
X18384169Y-16007038D02*
X18374645Y-15959419D01*
X18374645Y-15959419D02*
X18365121Y-15930848D01*
X18365121Y-15930848D02*
X18355597Y-15911800D01*
X18355597Y-15911800D02*
X18336550Y-15883229D01*
X18336550Y-15883229D02*
X18327026Y-15873705D01*
D10*
X13171010Y-16274793D02*
G75*
G02*
X13141010Y-16274793I-15000J0D01*
G01*
X13141010Y-16274793D02*
G75*
G02*
X13171010Y-16274793I15000J0D01*
G01*
D13*
X13469882Y-16166276D02*
X13488930Y-16166276D01*
X13488930Y-16166276D02*
X13507978Y-16175800D01*
X13507978Y-16175800D02*
X13517501Y-16185324D01*
X13517501Y-16185324D02*
X13527025Y-16204372D01*
X13527025Y-16204372D02*
X13536549Y-16242467D01*
X13536549Y-16242467D02*
X13536549Y-16290086D01*
X13536549Y-16290086D02*
X13527025Y-16328181D01*
X13527025Y-16328181D02*
X13517501Y-16347229D01*
X13517501Y-16347229D02*
X13507978Y-16356753D01*
X13507978Y-16356753D02*
X13488930Y-16366276D01*
X13488930Y-16366276D02*
X13469882Y-16366276D01*
X13469882Y-16366276D02*
X13450835Y-16356753D01*
X13450835Y-16356753D02*
X13441311Y-16347229D01*
X13441311Y-16347229D02*
X13431787Y-16328181D01*
X13431787Y-16328181D02*
X13422263Y-16290086D01*
X13422263Y-16290086D02*
X13422263Y-16242467D01*
X13422263Y-16242467D02*
X13431787Y-16204372D01*
X13431787Y-16204372D02*
X13441311Y-16185324D01*
X13441311Y-16185324D02*
X13450835Y-16175800D01*
X13450835Y-16175800D02*
X13469882Y-16166276D01*
X13622263Y-16347229D02*
X13631787Y-16356753D01*
X13631787Y-16356753D02*
X13622263Y-16366276D01*
X13622263Y-16366276D02*
X13612740Y-16356753D01*
X13612740Y-16356753D02*
X13622263Y-16347229D01*
X13622263Y-16347229D02*
X13622263Y-16366276D01*
X13698454Y-16166276D02*
X13822263Y-16166276D01*
X13822263Y-16166276D02*
X13755597Y-16242467D01*
X13755597Y-16242467D02*
X13784168Y-16242467D01*
X13784168Y-16242467D02*
X13803216Y-16251991D01*
X13803216Y-16251991D02*
X13812740Y-16261514D01*
X13812740Y-16261514D02*
X13822263Y-16280562D01*
X13822263Y-16280562D02*
X13822263Y-16328181D01*
X13822263Y-16328181D02*
X13812740Y-16347229D01*
X13812740Y-16347229D02*
X13803216Y-16356753D01*
X13803216Y-16356753D02*
X13784168Y-16366276D01*
X13784168Y-16366276D02*
X13727025Y-16366276D01*
X13727025Y-16366276D02*
X13707978Y-16356753D01*
X13707978Y-16356753D02*
X13698454Y-16347229D01*
X13946073Y-16166276D02*
X13965121Y-16166276D01*
X13965121Y-16166276D02*
X13984168Y-16175800D01*
X13984168Y-16175800D02*
X13993692Y-16185324D01*
X13993692Y-16185324D02*
X14003216Y-16204372D01*
X14003216Y-16204372D02*
X14012740Y-16242467D01*
X14012740Y-16242467D02*
X14012740Y-16290086D01*
X14012740Y-16290086D02*
X14003216Y-16328181D01*
X14003216Y-16328181D02*
X13993692Y-16347229D01*
X13993692Y-16347229D02*
X13984168Y-16356753D01*
X13984168Y-16356753D02*
X13965121Y-16366276D01*
X13965121Y-16366276D02*
X13946073Y-16366276D01*
X13946073Y-16366276D02*
X13927025Y-16356753D01*
X13927025Y-16356753D02*
X13917501Y-16347229D01*
X13917501Y-16347229D02*
X13907978Y-16328181D01*
X13907978Y-16328181D02*
X13898454Y-16290086D01*
X13898454Y-16290086D02*
X13898454Y-16242467D01*
X13898454Y-16242467D02*
X13907978Y-16204372D01*
X13907978Y-16204372D02*
X13917501Y-16185324D01*
X13917501Y-16185324D02*
X13927025Y-16175800D01*
X13927025Y-16175800D02*
X13946073Y-16166276D01*
X14136549Y-16166276D02*
X14155597Y-16166276D01*
X14155597Y-16166276D02*
X14174644Y-16175800D01*
X14174644Y-16175800D02*
X14184168Y-16185324D01*
X14184168Y-16185324D02*
X14193692Y-16204372D01*
X14193692Y-16204372D02*
X14203216Y-16242467D01*
X14203216Y-16242467D02*
X14203216Y-16290086D01*
X14203216Y-16290086D02*
X14193692Y-16328181D01*
X14193692Y-16328181D02*
X14184168Y-16347229D01*
X14184168Y-16347229D02*
X14174644Y-16356753D01*
X14174644Y-16356753D02*
X14155597Y-16366276D01*
X14155597Y-16366276D02*
X14136549Y-16366276D01*
X14136549Y-16366276D02*
X14117501Y-16356753D01*
X14117501Y-16356753D02*
X14107978Y-16347229D01*
X14107978Y-16347229D02*
X14098454Y-16328181D01*
X14098454Y-16328181D02*
X14088930Y-16290086D01*
X14088930Y-16290086D02*
X14088930Y-16242467D01*
X14088930Y-16242467D02*
X14098454Y-16204372D01*
X14098454Y-16204372D02*
X14107978Y-16185324D01*
X14107978Y-16185324D02*
X14117501Y-16175800D01*
X14117501Y-16175800D02*
X14136549Y-16166276D01*
X14288930Y-16366276D02*
X14288930Y-16232943D01*
X14288930Y-16251991D02*
X14298454Y-16242467D01*
X14298454Y-16242467D02*
X14317501Y-16232943D01*
X14317501Y-16232943D02*
X14346073Y-16232943D01*
X14346073Y-16232943D02*
X14365121Y-16242467D01*
X14365121Y-16242467D02*
X14374644Y-16261514D01*
X14374644Y-16261514D02*
X14374644Y-16366276D01*
X14374644Y-16261514D02*
X14384168Y-16242467D01*
X14384168Y-16242467D02*
X14403216Y-16232943D01*
X14403216Y-16232943D02*
X14431787Y-16232943D01*
X14431787Y-16232943D02*
X14450835Y-16242467D01*
X14450835Y-16242467D02*
X14460359Y-16261514D01*
X14460359Y-16261514D02*
X14460359Y-16366276D01*
X14555597Y-16366276D02*
X14555597Y-16232943D01*
X14555597Y-16251991D02*
X14565121Y-16242467D01*
X14565121Y-16242467D02*
X14584168Y-16232943D01*
X14584168Y-16232943D02*
X14612740Y-16232943D01*
X14612740Y-16232943D02*
X14631787Y-16242467D01*
X14631787Y-16242467D02*
X14641311Y-16261514D01*
X14641311Y-16261514D02*
X14641311Y-16366276D01*
X14641311Y-16261514D02*
X14650835Y-16242467D01*
X14650835Y-16242467D02*
X14669882Y-16232943D01*
X14669882Y-16232943D02*
X14698454Y-16232943D01*
X14698454Y-16232943D02*
X14717502Y-16242467D01*
X14717502Y-16242467D02*
X14727025Y-16261514D01*
X14727025Y-16261514D02*
X14727025Y-16366276D01*
X15117502Y-16156753D02*
X14946073Y-16413895D01*
X15374644Y-16166276D02*
X15393692Y-16166276D01*
X15393692Y-16166276D02*
X15412740Y-16175800D01*
X15412740Y-16175800D02*
X15422264Y-16185324D01*
X15422264Y-16185324D02*
X15431787Y-16204372D01*
X15431787Y-16204372D02*
X15441311Y-16242467D01*
X15441311Y-16242467D02*
X15441311Y-16290086D01*
X15441311Y-16290086D02*
X15431787Y-16328181D01*
X15431787Y-16328181D02*
X15422264Y-16347229D01*
X15422264Y-16347229D02*
X15412740Y-16356753D01*
X15412740Y-16356753D02*
X15393692Y-16366276D01*
X15393692Y-16366276D02*
X15374644Y-16366276D01*
X15374644Y-16366276D02*
X15355597Y-16356753D01*
X15355597Y-16356753D02*
X15346073Y-16347229D01*
X15346073Y-16347229D02*
X15336549Y-16328181D01*
X15336549Y-16328181D02*
X15327025Y-16290086D01*
X15327025Y-16290086D02*
X15327025Y-16242467D01*
X15327025Y-16242467D02*
X15336549Y-16204372D01*
X15336549Y-16204372D02*
X15346073Y-16185324D01*
X15346073Y-16185324D02*
X15355597Y-16175800D01*
X15355597Y-16175800D02*
X15374644Y-16166276D01*
X15527025Y-16347229D02*
X15536549Y-16356753D01*
X15536549Y-16356753D02*
X15527025Y-16366276D01*
X15527025Y-16366276D02*
X15517502Y-16356753D01*
X15517502Y-16356753D02*
X15527025Y-16347229D01*
X15527025Y-16347229D02*
X15527025Y-16366276D01*
X15660359Y-16166276D02*
X15679406Y-16166276D01*
X15679406Y-16166276D02*
X15698454Y-16175800D01*
X15698454Y-16175800D02*
X15707978Y-16185324D01*
X15707978Y-16185324D02*
X15717502Y-16204372D01*
X15717502Y-16204372D02*
X15727025Y-16242467D01*
X15727025Y-16242467D02*
X15727025Y-16290086D01*
X15727025Y-16290086D02*
X15717502Y-16328181D01*
X15717502Y-16328181D02*
X15707978Y-16347229D01*
X15707978Y-16347229D02*
X15698454Y-16356753D01*
X15698454Y-16356753D02*
X15679406Y-16366276D01*
X15679406Y-16366276D02*
X15660359Y-16366276D01*
X15660359Y-16366276D02*
X15641311Y-16356753D01*
X15641311Y-16356753D02*
X15631787Y-16347229D01*
X15631787Y-16347229D02*
X15622264Y-16328181D01*
X15622264Y-16328181D02*
X15612740Y-16290086D01*
X15612740Y-16290086D02*
X15612740Y-16242467D01*
X15612740Y-16242467D02*
X15622264Y-16204372D01*
X15622264Y-16204372D02*
X15631787Y-16185324D01*
X15631787Y-16185324D02*
X15641311Y-16175800D01*
X15641311Y-16175800D02*
X15660359Y-16166276D01*
X15917502Y-16366276D02*
X15803216Y-16366276D01*
X15860359Y-16366276D02*
X15860359Y-16166276D01*
X15860359Y-16166276D02*
X15841311Y-16194848D01*
X15841311Y-16194848D02*
X15822264Y-16213895D01*
X15822264Y-16213895D02*
X15803216Y-16223419D01*
X16107978Y-16366276D02*
X15993692Y-16366276D01*
X16050835Y-16366276D02*
X16050835Y-16166276D01*
X16050835Y-16166276D02*
X16031787Y-16194848D01*
X16031787Y-16194848D02*
X16012740Y-16213895D01*
X16012740Y-16213895D02*
X15993692Y-16223419D01*
X16222264Y-16251991D02*
X16203216Y-16242467D01*
X16203216Y-16242467D02*
X16193692Y-16232943D01*
X16193692Y-16232943D02*
X16184168Y-16213895D01*
X16184168Y-16213895D02*
X16184168Y-16204372D01*
X16184168Y-16204372D02*
X16193692Y-16185324D01*
X16193692Y-16185324D02*
X16203216Y-16175800D01*
X16203216Y-16175800D02*
X16222264Y-16166276D01*
X16222264Y-16166276D02*
X16260359Y-16166276D01*
X16260359Y-16166276D02*
X16279406Y-16175800D01*
X16279406Y-16175800D02*
X16288930Y-16185324D01*
X16288930Y-16185324D02*
X16298454Y-16204372D01*
X16298454Y-16204372D02*
X16298454Y-16213895D01*
X16298454Y-16213895D02*
X16288930Y-16232943D01*
X16288930Y-16232943D02*
X16279406Y-16242467D01*
X16279406Y-16242467D02*
X16260359Y-16251991D01*
X16260359Y-16251991D02*
X16222264Y-16251991D01*
X16222264Y-16251991D02*
X16203216Y-16261514D01*
X16203216Y-16261514D02*
X16193692Y-16271038D01*
X16193692Y-16271038D02*
X16184168Y-16290086D01*
X16184168Y-16290086D02*
X16184168Y-16328181D01*
X16184168Y-16328181D02*
X16193692Y-16347229D01*
X16193692Y-16347229D02*
X16203216Y-16356753D01*
X16203216Y-16356753D02*
X16222264Y-16366276D01*
X16222264Y-16366276D02*
X16260359Y-16366276D01*
X16260359Y-16366276D02*
X16279406Y-16356753D01*
X16279406Y-16356753D02*
X16288930Y-16347229D01*
X16288930Y-16347229D02*
X16298454Y-16328181D01*
X16298454Y-16328181D02*
X16298454Y-16290086D01*
X16298454Y-16290086D02*
X16288930Y-16271038D01*
X16288930Y-16271038D02*
X16279406Y-16261514D01*
X16279406Y-16261514D02*
X16260359Y-16251991D01*
X16374645Y-16166276D02*
X16374645Y-16204372D01*
X16450835Y-16166276D02*
X16450835Y-16204372D01*
X16746073Y-16442467D02*
X16736549Y-16432943D01*
X16736549Y-16432943D02*
X16717502Y-16404372D01*
X16717502Y-16404372D02*
X16707978Y-16385324D01*
X16707978Y-16385324D02*
X16698454Y-16356753D01*
X16698454Y-16356753D02*
X16688930Y-16309133D01*
X16688930Y-16309133D02*
X16688930Y-16271038D01*
X16688930Y-16271038D02*
X16698454Y-16223419D01*
X16698454Y-16223419D02*
X16707978Y-16194848D01*
X16707978Y-16194848D02*
X16717502Y-16175800D01*
X16717502Y-16175800D02*
X16736549Y-16147229D01*
X16736549Y-16147229D02*
X16746073Y-16137705D01*
X16927026Y-16366276D02*
X16812740Y-16366276D01*
X16869883Y-16366276D02*
X16869883Y-16166276D01*
X16869883Y-16166276D02*
X16850835Y-16194848D01*
X16850835Y-16194848D02*
X16831788Y-16213895D01*
X16831788Y-16213895D02*
X16812740Y-16223419D01*
X17165121Y-16366276D02*
X17165121Y-16166276D01*
X17250835Y-16366276D02*
X17250835Y-16261514D01*
X17250835Y-16261514D02*
X17241311Y-16242467D01*
X17241311Y-16242467D02*
X17222264Y-16232943D01*
X17222264Y-16232943D02*
X17193692Y-16232943D01*
X17193692Y-16232943D02*
X17174645Y-16242467D01*
X17174645Y-16242467D02*
X17165121Y-16251991D01*
X17374645Y-16366276D02*
X17355597Y-16356753D01*
X17355597Y-16356753D02*
X17346073Y-16347229D01*
X17346073Y-16347229D02*
X17336550Y-16328181D01*
X17336550Y-16328181D02*
X17336550Y-16271038D01*
X17336550Y-16271038D02*
X17346073Y-16251991D01*
X17346073Y-16251991D02*
X17355597Y-16242467D01*
X17355597Y-16242467D02*
X17374645Y-16232943D01*
X17374645Y-16232943D02*
X17403216Y-16232943D01*
X17403216Y-16232943D02*
X17422264Y-16242467D01*
X17422264Y-16242467D02*
X17431788Y-16251991D01*
X17431788Y-16251991D02*
X17441311Y-16271038D01*
X17441311Y-16271038D02*
X17441311Y-16328181D01*
X17441311Y-16328181D02*
X17431788Y-16347229D01*
X17431788Y-16347229D02*
X17422264Y-16356753D01*
X17422264Y-16356753D02*
X17403216Y-16366276D01*
X17403216Y-16366276D02*
X17374645Y-16366276D01*
X17555597Y-16366276D02*
X17536550Y-16356753D01*
X17536550Y-16356753D02*
X17527026Y-16337705D01*
X17527026Y-16337705D02*
X17527026Y-16166276D01*
X17707978Y-16356753D02*
X17688931Y-16366276D01*
X17688931Y-16366276D02*
X17650835Y-16366276D01*
X17650835Y-16366276D02*
X17631788Y-16356753D01*
X17631788Y-16356753D02*
X17622264Y-16337705D01*
X17622264Y-16337705D02*
X17622264Y-16261514D01*
X17622264Y-16261514D02*
X17631788Y-16242467D01*
X17631788Y-16242467D02*
X17650835Y-16232943D01*
X17650835Y-16232943D02*
X17688931Y-16232943D01*
X17688931Y-16232943D02*
X17707978Y-16242467D01*
X17707978Y-16242467D02*
X17717502Y-16261514D01*
X17717502Y-16261514D02*
X17717502Y-16280562D01*
X17717502Y-16280562D02*
X17622264Y-16299610D01*
X17784169Y-16442467D02*
X17793692Y-16432943D01*
X17793692Y-16432943D02*
X17812740Y-16404372D01*
X17812740Y-16404372D02*
X17822264Y-16385324D01*
X17822264Y-16385324D02*
X17831788Y-16356753D01*
X17831788Y-16356753D02*
X17841311Y-16309133D01*
X17841311Y-16309133D02*
X17841311Y-16271038D01*
X17841311Y-16271038D02*
X17831788Y-16223419D01*
X17831788Y-16223419D02*
X17822264Y-16194848D01*
X17822264Y-16194848D02*
X17812740Y-16175800D01*
X17812740Y-16175800D02*
X17793692Y-16147229D01*
X17793692Y-16147229D02*
X17784169Y-16137705D01*
D10*
X13141010Y-16508793D02*
X13141010Y-16568793D01*
X13111010Y-16538793D02*
X13171010Y-16538793D01*
D13*
X13469882Y-16430276D02*
X13488930Y-16430276D01*
X13488930Y-16430276D02*
X13507978Y-16439800D01*
X13507978Y-16439800D02*
X13517501Y-16449324D01*
X13517501Y-16449324D02*
X13527025Y-16468372D01*
X13527025Y-16468372D02*
X13536549Y-16506467D01*
X13536549Y-16506467D02*
X13536549Y-16554086D01*
X13536549Y-16554086D02*
X13527025Y-16592181D01*
X13527025Y-16592181D02*
X13517501Y-16611229D01*
X13517501Y-16611229D02*
X13507978Y-16620753D01*
X13507978Y-16620753D02*
X13488930Y-16630276D01*
X13488930Y-16630276D02*
X13469882Y-16630276D01*
X13469882Y-16630276D02*
X13450835Y-16620753D01*
X13450835Y-16620753D02*
X13441311Y-16611229D01*
X13441311Y-16611229D02*
X13431787Y-16592181D01*
X13431787Y-16592181D02*
X13422263Y-16554086D01*
X13422263Y-16554086D02*
X13422263Y-16506467D01*
X13422263Y-16506467D02*
X13431787Y-16468372D01*
X13431787Y-16468372D02*
X13441311Y-16449324D01*
X13441311Y-16449324D02*
X13450835Y-16439800D01*
X13450835Y-16439800D02*
X13469882Y-16430276D01*
X13622263Y-16611229D02*
X13631787Y-16620753D01*
X13631787Y-16620753D02*
X13622263Y-16630276D01*
X13622263Y-16630276D02*
X13612740Y-16620753D01*
X13612740Y-16620753D02*
X13622263Y-16611229D01*
X13622263Y-16611229D02*
X13622263Y-16630276D01*
X13803216Y-16430276D02*
X13765120Y-16430276D01*
X13765120Y-16430276D02*
X13746073Y-16439800D01*
X13746073Y-16439800D02*
X13736549Y-16449324D01*
X13736549Y-16449324D02*
X13717501Y-16477895D01*
X13717501Y-16477895D02*
X13707978Y-16515991D01*
X13707978Y-16515991D02*
X13707978Y-16592181D01*
X13707978Y-16592181D02*
X13717501Y-16611229D01*
X13717501Y-16611229D02*
X13727025Y-16620753D01*
X13727025Y-16620753D02*
X13746073Y-16630276D01*
X13746073Y-16630276D02*
X13784168Y-16630276D01*
X13784168Y-16630276D02*
X13803216Y-16620753D01*
X13803216Y-16620753D02*
X13812740Y-16611229D01*
X13812740Y-16611229D02*
X13822263Y-16592181D01*
X13822263Y-16592181D02*
X13822263Y-16544562D01*
X13822263Y-16544562D02*
X13812740Y-16525514D01*
X13812740Y-16525514D02*
X13803216Y-16515991D01*
X13803216Y-16515991D02*
X13784168Y-16506467D01*
X13784168Y-16506467D02*
X13746073Y-16506467D01*
X13746073Y-16506467D02*
X13727025Y-16515991D01*
X13727025Y-16515991D02*
X13717501Y-16525514D01*
X13717501Y-16525514D02*
X13707978Y-16544562D01*
X13946073Y-16430276D02*
X13965121Y-16430276D01*
X13965121Y-16430276D02*
X13984168Y-16439800D01*
X13984168Y-16439800D02*
X13993692Y-16449324D01*
X13993692Y-16449324D02*
X14003216Y-16468372D01*
X14003216Y-16468372D02*
X14012740Y-16506467D01*
X14012740Y-16506467D02*
X14012740Y-16554086D01*
X14012740Y-16554086D02*
X14003216Y-16592181D01*
X14003216Y-16592181D02*
X13993692Y-16611229D01*
X13993692Y-16611229D02*
X13984168Y-16620753D01*
X13984168Y-16620753D02*
X13965121Y-16630276D01*
X13965121Y-16630276D02*
X13946073Y-16630276D01*
X13946073Y-16630276D02*
X13927025Y-16620753D01*
X13927025Y-16620753D02*
X13917501Y-16611229D01*
X13917501Y-16611229D02*
X13907978Y-16592181D01*
X13907978Y-16592181D02*
X13898454Y-16554086D01*
X13898454Y-16554086D02*
X13898454Y-16506467D01*
X13898454Y-16506467D02*
X13907978Y-16468372D01*
X13907978Y-16468372D02*
X13917501Y-16449324D01*
X13917501Y-16449324D02*
X13927025Y-16439800D01*
X13927025Y-16439800D02*
X13946073Y-16430276D01*
X14136549Y-16430276D02*
X14155597Y-16430276D01*
X14155597Y-16430276D02*
X14174644Y-16439800D01*
X14174644Y-16439800D02*
X14184168Y-16449324D01*
X14184168Y-16449324D02*
X14193692Y-16468372D01*
X14193692Y-16468372D02*
X14203216Y-16506467D01*
X14203216Y-16506467D02*
X14203216Y-16554086D01*
X14203216Y-16554086D02*
X14193692Y-16592181D01*
X14193692Y-16592181D02*
X14184168Y-16611229D01*
X14184168Y-16611229D02*
X14174644Y-16620753D01*
X14174644Y-16620753D02*
X14155597Y-16630276D01*
X14155597Y-16630276D02*
X14136549Y-16630276D01*
X14136549Y-16630276D02*
X14117501Y-16620753D01*
X14117501Y-16620753D02*
X14107978Y-16611229D01*
X14107978Y-16611229D02*
X14098454Y-16592181D01*
X14098454Y-16592181D02*
X14088930Y-16554086D01*
X14088930Y-16554086D02*
X14088930Y-16506467D01*
X14088930Y-16506467D02*
X14098454Y-16468372D01*
X14098454Y-16468372D02*
X14107978Y-16449324D01*
X14107978Y-16449324D02*
X14117501Y-16439800D01*
X14117501Y-16439800D02*
X14136549Y-16430276D01*
X14288930Y-16630276D02*
X14288930Y-16496943D01*
X14288930Y-16515991D02*
X14298454Y-16506467D01*
X14298454Y-16506467D02*
X14317501Y-16496943D01*
X14317501Y-16496943D02*
X14346073Y-16496943D01*
X14346073Y-16496943D02*
X14365121Y-16506467D01*
X14365121Y-16506467D02*
X14374644Y-16525514D01*
X14374644Y-16525514D02*
X14374644Y-16630276D01*
X14374644Y-16525514D02*
X14384168Y-16506467D01*
X14384168Y-16506467D02*
X14403216Y-16496943D01*
X14403216Y-16496943D02*
X14431787Y-16496943D01*
X14431787Y-16496943D02*
X14450835Y-16506467D01*
X14450835Y-16506467D02*
X14460359Y-16525514D01*
X14460359Y-16525514D02*
X14460359Y-16630276D01*
X14555597Y-16630276D02*
X14555597Y-16496943D01*
X14555597Y-16515991D02*
X14565121Y-16506467D01*
X14565121Y-16506467D02*
X14584168Y-16496943D01*
X14584168Y-16496943D02*
X14612740Y-16496943D01*
X14612740Y-16496943D02*
X14631787Y-16506467D01*
X14631787Y-16506467D02*
X14641311Y-16525514D01*
X14641311Y-16525514D02*
X14641311Y-16630276D01*
X14641311Y-16525514D02*
X14650835Y-16506467D01*
X14650835Y-16506467D02*
X14669882Y-16496943D01*
X14669882Y-16496943D02*
X14698454Y-16496943D01*
X14698454Y-16496943D02*
X14717502Y-16506467D01*
X14717502Y-16506467D02*
X14727025Y-16525514D01*
X14727025Y-16525514D02*
X14727025Y-16630276D01*
X15117502Y-16420753D02*
X14946073Y-16677895D01*
X15374644Y-16430276D02*
X15393692Y-16430276D01*
X15393692Y-16430276D02*
X15412740Y-16439800D01*
X15412740Y-16439800D02*
X15422264Y-16449324D01*
X15422264Y-16449324D02*
X15431787Y-16468372D01*
X15431787Y-16468372D02*
X15441311Y-16506467D01*
X15441311Y-16506467D02*
X15441311Y-16554086D01*
X15441311Y-16554086D02*
X15431787Y-16592181D01*
X15431787Y-16592181D02*
X15422264Y-16611229D01*
X15422264Y-16611229D02*
X15412740Y-16620753D01*
X15412740Y-16620753D02*
X15393692Y-16630276D01*
X15393692Y-16630276D02*
X15374644Y-16630276D01*
X15374644Y-16630276D02*
X15355597Y-16620753D01*
X15355597Y-16620753D02*
X15346073Y-16611229D01*
X15346073Y-16611229D02*
X15336549Y-16592181D01*
X15336549Y-16592181D02*
X15327025Y-16554086D01*
X15327025Y-16554086D02*
X15327025Y-16506467D01*
X15327025Y-16506467D02*
X15336549Y-16468372D01*
X15336549Y-16468372D02*
X15346073Y-16449324D01*
X15346073Y-16449324D02*
X15355597Y-16439800D01*
X15355597Y-16439800D02*
X15374644Y-16430276D01*
X15527025Y-16611229D02*
X15536549Y-16620753D01*
X15536549Y-16620753D02*
X15527025Y-16630276D01*
X15527025Y-16630276D02*
X15517502Y-16620753D01*
X15517502Y-16620753D02*
X15527025Y-16611229D01*
X15527025Y-16611229D02*
X15527025Y-16630276D01*
X15660359Y-16430276D02*
X15679406Y-16430276D01*
X15679406Y-16430276D02*
X15698454Y-16439800D01*
X15698454Y-16439800D02*
X15707978Y-16449324D01*
X15707978Y-16449324D02*
X15717502Y-16468372D01*
X15717502Y-16468372D02*
X15727025Y-16506467D01*
X15727025Y-16506467D02*
X15727025Y-16554086D01*
X15727025Y-16554086D02*
X15717502Y-16592181D01*
X15717502Y-16592181D02*
X15707978Y-16611229D01*
X15707978Y-16611229D02*
X15698454Y-16620753D01*
X15698454Y-16620753D02*
X15679406Y-16630276D01*
X15679406Y-16630276D02*
X15660359Y-16630276D01*
X15660359Y-16630276D02*
X15641311Y-16620753D01*
X15641311Y-16620753D02*
X15631787Y-16611229D01*
X15631787Y-16611229D02*
X15622264Y-16592181D01*
X15622264Y-16592181D02*
X15612740Y-16554086D01*
X15612740Y-16554086D02*
X15612740Y-16506467D01*
X15612740Y-16506467D02*
X15622264Y-16468372D01*
X15622264Y-16468372D02*
X15631787Y-16449324D01*
X15631787Y-16449324D02*
X15641311Y-16439800D01*
X15641311Y-16439800D02*
X15660359Y-16430276D01*
X15803216Y-16449324D02*
X15812740Y-16439800D01*
X15812740Y-16439800D02*
X15831787Y-16430276D01*
X15831787Y-16430276D02*
X15879406Y-16430276D01*
X15879406Y-16430276D02*
X15898454Y-16439800D01*
X15898454Y-16439800D02*
X15907978Y-16449324D01*
X15907978Y-16449324D02*
X15917502Y-16468372D01*
X15917502Y-16468372D02*
X15917502Y-16487419D01*
X15917502Y-16487419D02*
X15907978Y-16515991D01*
X15907978Y-16515991D02*
X15793692Y-16630276D01*
X15793692Y-16630276D02*
X15917502Y-16630276D01*
X15984168Y-16430276D02*
X16107978Y-16430276D01*
X16107978Y-16430276D02*
X16041311Y-16506467D01*
X16041311Y-16506467D02*
X16069883Y-16506467D01*
X16069883Y-16506467D02*
X16088930Y-16515991D01*
X16088930Y-16515991D02*
X16098454Y-16525514D01*
X16098454Y-16525514D02*
X16107978Y-16544562D01*
X16107978Y-16544562D02*
X16107978Y-16592181D01*
X16107978Y-16592181D02*
X16098454Y-16611229D01*
X16098454Y-16611229D02*
X16088930Y-16620753D01*
X16088930Y-16620753D02*
X16069883Y-16630276D01*
X16069883Y-16630276D02*
X16012740Y-16630276D01*
X16012740Y-16630276D02*
X15993692Y-16620753D01*
X15993692Y-16620753D02*
X15984168Y-16611229D01*
X16279406Y-16430276D02*
X16241311Y-16430276D01*
X16241311Y-16430276D02*
X16222264Y-16439800D01*
X16222264Y-16439800D02*
X16212740Y-16449324D01*
X16212740Y-16449324D02*
X16193692Y-16477895D01*
X16193692Y-16477895D02*
X16184168Y-16515991D01*
X16184168Y-16515991D02*
X16184168Y-16592181D01*
X16184168Y-16592181D02*
X16193692Y-16611229D01*
X16193692Y-16611229D02*
X16203216Y-16620753D01*
X16203216Y-16620753D02*
X16222264Y-16630276D01*
X16222264Y-16630276D02*
X16260359Y-16630276D01*
X16260359Y-16630276D02*
X16279406Y-16620753D01*
X16279406Y-16620753D02*
X16288930Y-16611229D01*
X16288930Y-16611229D02*
X16298454Y-16592181D01*
X16298454Y-16592181D02*
X16298454Y-16544562D01*
X16298454Y-16544562D02*
X16288930Y-16525514D01*
X16288930Y-16525514D02*
X16279406Y-16515991D01*
X16279406Y-16515991D02*
X16260359Y-16506467D01*
X16260359Y-16506467D02*
X16222264Y-16506467D01*
X16222264Y-16506467D02*
X16203216Y-16515991D01*
X16203216Y-16515991D02*
X16193692Y-16525514D01*
X16193692Y-16525514D02*
X16184168Y-16544562D01*
X16374645Y-16430276D02*
X16374645Y-16468372D01*
X16450835Y-16430276D02*
X16450835Y-16468372D01*
X16746073Y-16706467D02*
X16736549Y-16696943D01*
X16736549Y-16696943D02*
X16717502Y-16668372D01*
X16717502Y-16668372D02*
X16707978Y-16649324D01*
X16707978Y-16649324D02*
X16698454Y-16620753D01*
X16698454Y-16620753D02*
X16688930Y-16573133D01*
X16688930Y-16573133D02*
X16688930Y-16535038D01*
X16688930Y-16535038D02*
X16698454Y-16487419D01*
X16698454Y-16487419D02*
X16707978Y-16458848D01*
X16707978Y-16458848D02*
X16717502Y-16439800D01*
X16717502Y-16439800D02*
X16736549Y-16411229D01*
X16736549Y-16411229D02*
X16746073Y-16401705D01*
X16860359Y-16430276D02*
X16879407Y-16430276D01*
X16879407Y-16430276D02*
X16898454Y-16439800D01*
X16898454Y-16439800D02*
X16907978Y-16449324D01*
X16907978Y-16449324D02*
X16917502Y-16468372D01*
X16917502Y-16468372D02*
X16927026Y-16506467D01*
X16927026Y-16506467D02*
X16927026Y-16554086D01*
X16927026Y-16554086D02*
X16917502Y-16592181D01*
X16917502Y-16592181D02*
X16907978Y-16611229D01*
X16907978Y-16611229D02*
X16898454Y-16620753D01*
X16898454Y-16620753D02*
X16879407Y-16630276D01*
X16879407Y-16630276D02*
X16860359Y-16630276D01*
X16860359Y-16630276D02*
X16841311Y-16620753D01*
X16841311Y-16620753D02*
X16831788Y-16611229D01*
X16831788Y-16611229D02*
X16822264Y-16592181D01*
X16822264Y-16592181D02*
X16812740Y-16554086D01*
X16812740Y-16554086D02*
X16812740Y-16506467D01*
X16812740Y-16506467D02*
X16822264Y-16468372D01*
X16822264Y-16468372D02*
X16831788Y-16449324D01*
X16831788Y-16449324D02*
X16841311Y-16439800D01*
X16841311Y-16439800D02*
X16860359Y-16430276D01*
X17165121Y-16630276D02*
X17165121Y-16430276D01*
X17250835Y-16630276D02*
X17250835Y-16525514D01*
X17250835Y-16525514D02*
X17241311Y-16506467D01*
X17241311Y-16506467D02*
X17222264Y-16496943D01*
X17222264Y-16496943D02*
X17193692Y-16496943D01*
X17193692Y-16496943D02*
X17174645Y-16506467D01*
X17174645Y-16506467D02*
X17165121Y-16515991D01*
X17374645Y-16630276D02*
X17355597Y-16620753D01*
X17355597Y-16620753D02*
X17346073Y-16611229D01*
X17346073Y-16611229D02*
X17336550Y-16592181D01*
X17336550Y-16592181D02*
X17336550Y-16535038D01*
X17336550Y-16535038D02*
X17346073Y-16515991D01*
X17346073Y-16515991D02*
X17355597Y-16506467D01*
X17355597Y-16506467D02*
X17374645Y-16496943D01*
X17374645Y-16496943D02*
X17403216Y-16496943D01*
X17403216Y-16496943D02*
X17422264Y-16506467D01*
X17422264Y-16506467D02*
X17431788Y-16515991D01*
X17431788Y-16515991D02*
X17441311Y-16535038D01*
X17441311Y-16535038D02*
X17441311Y-16592181D01*
X17441311Y-16592181D02*
X17431788Y-16611229D01*
X17431788Y-16611229D02*
X17422264Y-16620753D01*
X17422264Y-16620753D02*
X17403216Y-16630276D01*
X17403216Y-16630276D02*
X17374645Y-16630276D01*
X17555597Y-16630276D02*
X17536550Y-16620753D01*
X17536550Y-16620753D02*
X17527026Y-16601705D01*
X17527026Y-16601705D02*
X17527026Y-16430276D01*
X17707978Y-16620753D02*
X17688931Y-16630276D01*
X17688931Y-16630276D02*
X17650835Y-16630276D01*
X17650835Y-16630276D02*
X17631788Y-16620753D01*
X17631788Y-16620753D02*
X17622264Y-16601705D01*
X17622264Y-16601705D02*
X17622264Y-16525514D01*
X17622264Y-16525514D02*
X17631788Y-16506467D01*
X17631788Y-16506467D02*
X17650835Y-16496943D01*
X17650835Y-16496943D02*
X17688931Y-16496943D01*
X17688931Y-16496943D02*
X17707978Y-16506467D01*
X17707978Y-16506467D02*
X17717502Y-16525514D01*
X17717502Y-16525514D02*
X17717502Y-16544562D01*
X17717502Y-16544562D02*
X17622264Y-16563610D01*
X17793692Y-16620753D02*
X17812740Y-16630276D01*
X17812740Y-16630276D02*
X17850835Y-16630276D01*
X17850835Y-16630276D02*
X17869883Y-16620753D01*
X17869883Y-16620753D02*
X17879407Y-16601705D01*
X17879407Y-16601705D02*
X17879407Y-16592181D01*
X17879407Y-16592181D02*
X17869883Y-16573133D01*
X17869883Y-16573133D02*
X17850835Y-16563610D01*
X17850835Y-16563610D02*
X17822264Y-16563610D01*
X17822264Y-16563610D02*
X17803216Y-16554086D01*
X17803216Y-16554086D02*
X17793692Y-16535038D01*
X17793692Y-16535038D02*
X17793692Y-16525514D01*
X17793692Y-16525514D02*
X17803216Y-16506467D01*
X17803216Y-16506467D02*
X17822264Y-16496943D01*
X17822264Y-16496943D02*
X17850835Y-16496943D01*
X17850835Y-16496943D02*
X17869883Y-16506467D01*
X18117502Y-16554086D02*
X18269883Y-16554086D01*
X18193693Y-16630276D02*
X18193693Y-16477895D01*
X18603216Y-16496943D02*
X18603216Y-16630276D01*
X18555597Y-16420753D02*
X18507978Y-16563610D01*
X18507978Y-16563610D02*
X18631788Y-16563610D01*
X18850835Y-16620753D02*
X18869883Y-16630276D01*
X18869883Y-16630276D02*
X18907978Y-16630276D01*
X18907978Y-16630276D02*
X18927026Y-16620753D01*
X18927026Y-16620753D02*
X18936550Y-16601705D01*
X18936550Y-16601705D02*
X18936550Y-16592181D01*
X18936550Y-16592181D02*
X18927026Y-16573133D01*
X18927026Y-16573133D02*
X18907978Y-16563610D01*
X18907978Y-16563610D02*
X18879407Y-16563610D01*
X18879407Y-16563610D02*
X18860359Y-16554086D01*
X18860359Y-16554086D02*
X18850835Y-16535038D01*
X18850835Y-16535038D02*
X18850835Y-16525514D01*
X18850835Y-16525514D02*
X18860359Y-16506467D01*
X18860359Y-16506467D02*
X18879407Y-16496943D01*
X18879407Y-16496943D02*
X18907978Y-16496943D01*
X18907978Y-16496943D02*
X18927026Y-16506467D01*
X19050835Y-16630276D02*
X19031788Y-16620753D01*
X19031788Y-16620753D02*
X19022264Y-16601705D01*
X19022264Y-16601705D02*
X19022264Y-16430276D01*
X19155597Y-16630276D02*
X19136550Y-16620753D01*
X19136550Y-16620753D02*
X19127026Y-16611229D01*
X19127026Y-16611229D02*
X19117502Y-16592181D01*
X19117502Y-16592181D02*
X19117502Y-16535038D01*
X19117502Y-16535038D02*
X19127026Y-16515991D01*
X19127026Y-16515991D02*
X19136550Y-16506467D01*
X19136550Y-16506467D02*
X19155597Y-16496943D01*
X19155597Y-16496943D02*
X19184169Y-16496943D01*
X19184169Y-16496943D02*
X19203216Y-16506467D01*
X19203216Y-16506467D02*
X19212740Y-16515991D01*
X19212740Y-16515991D02*
X19222264Y-16535038D01*
X19222264Y-16535038D02*
X19222264Y-16592181D01*
X19222264Y-16592181D02*
X19212740Y-16611229D01*
X19212740Y-16611229D02*
X19203216Y-16620753D01*
X19203216Y-16620753D02*
X19184169Y-16630276D01*
X19184169Y-16630276D02*
X19155597Y-16630276D01*
X19279407Y-16496943D02*
X19355597Y-16496943D01*
X19307978Y-16430276D02*
X19307978Y-16601705D01*
X19307978Y-16601705D02*
X19317502Y-16620753D01*
X19317502Y-16620753D02*
X19336550Y-16630276D01*
X19336550Y-16630276D02*
X19355597Y-16630276D01*
X19412740Y-16620753D02*
X19431788Y-16630276D01*
X19431788Y-16630276D02*
X19469883Y-16630276D01*
X19469883Y-16630276D02*
X19488931Y-16620753D01*
X19488931Y-16620753D02*
X19498455Y-16601705D01*
X19498455Y-16601705D02*
X19498455Y-16592181D01*
X19498455Y-16592181D02*
X19488931Y-16573133D01*
X19488931Y-16573133D02*
X19469883Y-16563610D01*
X19469883Y-16563610D02*
X19441312Y-16563610D01*
X19441312Y-16563610D02*
X19422264Y-16554086D01*
X19422264Y-16554086D02*
X19412740Y-16535038D01*
X19412740Y-16535038D02*
X19412740Y-16525514D01*
X19412740Y-16525514D02*
X19422264Y-16506467D01*
X19422264Y-16506467D02*
X19441312Y-16496943D01*
X19441312Y-16496943D02*
X19469883Y-16496943D01*
X19469883Y-16496943D02*
X19488931Y-16506467D01*
X19565121Y-16706467D02*
X19574645Y-16696943D01*
X19574645Y-16696943D02*
X19593693Y-16668372D01*
X19593693Y-16668372D02*
X19603216Y-16649324D01*
X19603216Y-16649324D02*
X19612740Y-16620753D01*
X19612740Y-16620753D02*
X19622264Y-16573133D01*
X19622264Y-16573133D02*
X19622264Y-16535038D01*
X19622264Y-16535038D02*
X19612740Y-16487419D01*
X19612740Y-16487419D02*
X19603216Y-16458848D01*
X19603216Y-16458848D02*
X19593693Y-16439800D01*
X19593693Y-16439800D02*
X19574645Y-16411229D01*
X19574645Y-16411229D02*
X19565121Y-16401705D01*
D10*
X13156366Y-16838148D02*
X13156366Y-16767437D01*
X13085655Y-16767437D01*
X13085655Y-16838148D01*
X13156366Y-16838148D01*
D13*
X13536549Y-16894276D02*
X13422263Y-16894276D01*
X13479406Y-16894276D02*
X13479406Y-16694276D01*
X13479406Y-16694276D02*
X13460359Y-16722848D01*
X13460359Y-16722848D02*
X13441311Y-16741895D01*
X13441311Y-16741895D02*
X13422263Y-16751419D01*
X13622263Y-16875229D02*
X13631787Y-16884753D01*
X13631787Y-16884753D02*
X13622263Y-16894276D01*
X13622263Y-16894276D02*
X13612740Y-16884753D01*
X13612740Y-16884753D02*
X13622263Y-16875229D01*
X13622263Y-16875229D02*
X13622263Y-16894276D01*
X13755597Y-16694276D02*
X13774644Y-16694276D01*
X13774644Y-16694276D02*
X13793692Y-16703800D01*
X13793692Y-16703800D02*
X13803216Y-16713324D01*
X13803216Y-16713324D02*
X13812740Y-16732372D01*
X13812740Y-16732372D02*
X13822263Y-16770467D01*
X13822263Y-16770467D02*
X13822263Y-16818086D01*
X13822263Y-16818086D02*
X13812740Y-16856181D01*
X13812740Y-16856181D02*
X13803216Y-16875229D01*
X13803216Y-16875229D02*
X13793692Y-16884753D01*
X13793692Y-16884753D02*
X13774644Y-16894276D01*
X13774644Y-16894276D02*
X13755597Y-16894276D01*
X13755597Y-16894276D02*
X13736549Y-16884753D01*
X13736549Y-16884753D02*
X13727025Y-16875229D01*
X13727025Y-16875229D02*
X13717501Y-16856181D01*
X13717501Y-16856181D02*
X13707978Y-16818086D01*
X13707978Y-16818086D02*
X13707978Y-16770467D01*
X13707978Y-16770467D02*
X13717501Y-16732372D01*
X13717501Y-16732372D02*
X13727025Y-16713324D01*
X13727025Y-16713324D02*
X13736549Y-16703800D01*
X13736549Y-16703800D02*
X13755597Y-16694276D01*
X13946073Y-16694276D02*
X13965121Y-16694276D01*
X13965121Y-16694276D02*
X13984168Y-16703800D01*
X13984168Y-16703800D02*
X13993692Y-16713324D01*
X13993692Y-16713324D02*
X14003216Y-16732372D01*
X14003216Y-16732372D02*
X14012740Y-16770467D01*
X14012740Y-16770467D02*
X14012740Y-16818086D01*
X14012740Y-16818086D02*
X14003216Y-16856181D01*
X14003216Y-16856181D02*
X13993692Y-16875229D01*
X13993692Y-16875229D02*
X13984168Y-16884753D01*
X13984168Y-16884753D02*
X13965121Y-16894276D01*
X13965121Y-16894276D02*
X13946073Y-16894276D01*
X13946073Y-16894276D02*
X13927025Y-16884753D01*
X13927025Y-16884753D02*
X13917501Y-16875229D01*
X13917501Y-16875229D02*
X13907978Y-16856181D01*
X13907978Y-16856181D02*
X13898454Y-16818086D01*
X13898454Y-16818086D02*
X13898454Y-16770467D01*
X13898454Y-16770467D02*
X13907978Y-16732372D01*
X13907978Y-16732372D02*
X13917501Y-16713324D01*
X13917501Y-16713324D02*
X13927025Y-16703800D01*
X13927025Y-16703800D02*
X13946073Y-16694276D01*
X14136549Y-16694276D02*
X14155597Y-16694276D01*
X14155597Y-16694276D02*
X14174644Y-16703800D01*
X14174644Y-16703800D02*
X14184168Y-16713324D01*
X14184168Y-16713324D02*
X14193692Y-16732372D01*
X14193692Y-16732372D02*
X14203216Y-16770467D01*
X14203216Y-16770467D02*
X14203216Y-16818086D01*
X14203216Y-16818086D02*
X14193692Y-16856181D01*
X14193692Y-16856181D02*
X14184168Y-16875229D01*
X14184168Y-16875229D02*
X14174644Y-16884753D01*
X14174644Y-16884753D02*
X14155597Y-16894276D01*
X14155597Y-16894276D02*
X14136549Y-16894276D01*
X14136549Y-16894276D02*
X14117501Y-16884753D01*
X14117501Y-16884753D02*
X14107978Y-16875229D01*
X14107978Y-16875229D02*
X14098454Y-16856181D01*
X14098454Y-16856181D02*
X14088930Y-16818086D01*
X14088930Y-16818086D02*
X14088930Y-16770467D01*
X14088930Y-16770467D02*
X14098454Y-16732372D01*
X14098454Y-16732372D02*
X14107978Y-16713324D01*
X14107978Y-16713324D02*
X14117501Y-16703800D01*
X14117501Y-16703800D02*
X14136549Y-16694276D01*
X14288930Y-16894276D02*
X14288930Y-16760943D01*
X14288930Y-16779991D02*
X14298454Y-16770467D01*
X14298454Y-16770467D02*
X14317501Y-16760943D01*
X14317501Y-16760943D02*
X14346073Y-16760943D01*
X14346073Y-16760943D02*
X14365121Y-16770467D01*
X14365121Y-16770467D02*
X14374644Y-16789515D01*
X14374644Y-16789515D02*
X14374644Y-16894276D01*
X14374644Y-16789515D02*
X14384168Y-16770467D01*
X14384168Y-16770467D02*
X14403216Y-16760943D01*
X14403216Y-16760943D02*
X14431787Y-16760943D01*
X14431787Y-16760943D02*
X14450835Y-16770467D01*
X14450835Y-16770467D02*
X14460359Y-16789515D01*
X14460359Y-16789515D02*
X14460359Y-16894276D01*
X14555597Y-16894276D02*
X14555597Y-16760943D01*
X14555597Y-16779991D02*
X14565121Y-16770467D01*
X14565121Y-16770467D02*
X14584168Y-16760943D01*
X14584168Y-16760943D02*
X14612740Y-16760943D01*
X14612740Y-16760943D02*
X14631787Y-16770467D01*
X14631787Y-16770467D02*
X14641311Y-16789515D01*
X14641311Y-16789515D02*
X14641311Y-16894276D01*
X14641311Y-16789515D02*
X14650835Y-16770467D01*
X14650835Y-16770467D02*
X14669882Y-16760943D01*
X14669882Y-16760943D02*
X14698454Y-16760943D01*
X14698454Y-16760943D02*
X14717502Y-16770467D01*
X14717502Y-16770467D02*
X14727025Y-16789515D01*
X14727025Y-16789515D02*
X14727025Y-16894276D01*
X15117502Y-16684753D02*
X14946073Y-16941895D01*
X15374644Y-16694276D02*
X15393692Y-16694276D01*
X15393692Y-16694276D02*
X15412740Y-16703800D01*
X15412740Y-16703800D02*
X15422264Y-16713324D01*
X15422264Y-16713324D02*
X15431787Y-16732372D01*
X15431787Y-16732372D02*
X15441311Y-16770467D01*
X15441311Y-16770467D02*
X15441311Y-16818086D01*
X15441311Y-16818086D02*
X15431787Y-16856181D01*
X15431787Y-16856181D02*
X15422264Y-16875229D01*
X15422264Y-16875229D02*
X15412740Y-16884753D01*
X15412740Y-16884753D02*
X15393692Y-16894276D01*
X15393692Y-16894276D02*
X15374644Y-16894276D01*
X15374644Y-16894276D02*
X15355597Y-16884753D01*
X15355597Y-16884753D02*
X15346073Y-16875229D01*
X15346073Y-16875229D02*
X15336549Y-16856181D01*
X15336549Y-16856181D02*
X15327025Y-16818086D01*
X15327025Y-16818086D02*
X15327025Y-16770467D01*
X15327025Y-16770467D02*
X15336549Y-16732372D01*
X15336549Y-16732372D02*
X15346073Y-16713324D01*
X15346073Y-16713324D02*
X15355597Y-16703800D01*
X15355597Y-16703800D02*
X15374644Y-16694276D01*
X15527025Y-16875229D02*
X15536549Y-16884753D01*
X15536549Y-16884753D02*
X15527025Y-16894276D01*
X15527025Y-16894276D02*
X15517502Y-16884753D01*
X15517502Y-16884753D02*
X15527025Y-16875229D01*
X15527025Y-16875229D02*
X15527025Y-16894276D01*
X15660359Y-16694276D02*
X15679406Y-16694276D01*
X15679406Y-16694276D02*
X15698454Y-16703800D01*
X15698454Y-16703800D02*
X15707978Y-16713324D01*
X15707978Y-16713324D02*
X15717502Y-16732372D01*
X15717502Y-16732372D02*
X15727025Y-16770467D01*
X15727025Y-16770467D02*
X15727025Y-16818086D01*
X15727025Y-16818086D02*
X15717502Y-16856181D01*
X15717502Y-16856181D02*
X15707978Y-16875229D01*
X15707978Y-16875229D02*
X15698454Y-16884753D01*
X15698454Y-16884753D02*
X15679406Y-16894276D01*
X15679406Y-16894276D02*
X15660359Y-16894276D01*
X15660359Y-16894276D02*
X15641311Y-16884753D01*
X15641311Y-16884753D02*
X15631787Y-16875229D01*
X15631787Y-16875229D02*
X15622264Y-16856181D01*
X15622264Y-16856181D02*
X15612740Y-16818086D01*
X15612740Y-16818086D02*
X15612740Y-16770467D01*
X15612740Y-16770467D02*
X15622264Y-16732372D01*
X15622264Y-16732372D02*
X15631787Y-16713324D01*
X15631787Y-16713324D02*
X15641311Y-16703800D01*
X15641311Y-16703800D02*
X15660359Y-16694276D01*
X15793692Y-16694276D02*
X15917502Y-16694276D01*
X15917502Y-16694276D02*
X15850835Y-16770467D01*
X15850835Y-16770467D02*
X15879406Y-16770467D01*
X15879406Y-16770467D02*
X15898454Y-16779991D01*
X15898454Y-16779991D02*
X15907978Y-16789515D01*
X15907978Y-16789515D02*
X15917502Y-16808562D01*
X15917502Y-16808562D02*
X15917502Y-16856181D01*
X15917502Y-16856181D02*
X15907978Y-16875229D01*
X15907978Y-16875229D02*
X15898454Y-16884753D01*
X15898454Y-16884753D02*
X15879406Y-16894276D01*
X15879406Y-16894276D02*
X15822264Y-16894276D01*
X15822264Y-16894276D02*
X15803216Y-16884753D01*
X15803216Y-16884753D02*
X15793692Y-16875229D01*
X16012740Y-16894276D02*
X16050835Y-16894276D01*
X16050835Y-16894276D02*
X16069883Y-16884753D01*
X16069883Y-16884753D02*
X16079406Y-16875229D01*
X16079406Y-16875229D02*
X16098454Y-16846657D01*
X16098454Y-16846657D02*
X16107978Y-16808562D01*
X16107978Y-16808562D02*
X16107978Y-16732372D01*
X16107978Y-16732372D02*
X16098454Y-16713324D01*
X16098454Y-16713324D02*
X16088930Y-16703800D01*
X16088930Y-16703800D02*
X16069883Y-16694276D01*
X16069883Y-16694276D02*
X16031787Y-16694276D01*
X16031787Y-16694276D02*
X16012740Y-16703800D01*
X16012740Y-16703800D02*
X16003216Y-16713324D01*
X16003216Y-16713324D02*
X15993692Y-16732372D01*
X15993692Y-16732372D02*
X15993692Y-16779991D01*
X15993692Y-16779991D02*
X16003216Y-16799038D01*
X16003216Y-16799038D02*
X16012740Y-16808562D01*
X16012740Y-16808562D02*
X16031787Y-16818086D01*
X16031787Y-16818086D02*
X16069883Y-16818086D01*
X16069883Y-16818086D02*
X16088930Y-16808562D01*
X16088930Y-16808562D02*
X16098454Y-16799038D01*
X16098454Y-16799038D02*
X16107978Y-16779991D01*
X16279406Y-16760943D02*
X16279406Y-16894276D01*
X16231787Y-16684753D02*
X16184168Y-16827610D01*
X16184168Y-16827610D02*
X16307978Y-16827610D01*
X16374645Y-16694276D02*
X16374645Y-16732372D01*
X16450835Y-16694276D02*
X16450835Y-16732372D01*
X16746073Y-16970467D02*
X16736549Y-16960943D01*
X16736549Y-16960943D02*
X16717502Y-16932372D01*
X16717502Y-16932372D02*
X16707978Y-16913324D01*
X16707978Y-16913324D02*
X16698454Y-16884753D01*
X16698454Y-16884753D02*
X16688930Y-16837134D01*
X16688930Y-16837134D02*
X16688930Y-16799038D01*
X16688930Y-16799038D02*
X16698454Y-16751419D01*
X16698454Y-16751419D02*
X16707978Y-16722848D01*
X16707978Y-16722848D02*
X16717502Y-16703800D01*
X16717502Y-16703800D02*
X16736549Y-16675229D01*
X16736549Y-16675229D02*
X16746073Y-16665705D01*
X16803216Y-16694276D02*
X16927026Y-16694276D01*
X16927026Y-16694276D02*
X16860359Y-16770467D01*
X16860359Y-16770467D02*
X16888930Y-16770467D01*
X16888930Y-16770467D02*
X16907978Y-16779991D01*
X16907978Y-16779991D02*
X16917502Y-16789515D01*
X16917502Y-16789515D02*
X16927026Y-16808562D01*
X16927026Y-16808562D02*
X16927026Y-16856181D01*
X16927026Y-16856181D02*
X16917502Y-16875229D01*
X16917502Y-16875229D02*
X16907978Y-16884753D01*
X16907978Y-16884753D02*
X16888930Y-16894276D01*
X16888930Y-16894276D02*
X16831788Y-16894276D01*
X16831788Y-16894276D02*
X16812740Y-16884753D01*
X16812740Y-16884753D02*
X16803216Y-16875229D01*
X17050835Y-16694276D02*
X17069883Y-16694276D01*
X17069883Y-16694276D02*
X17088930Y-16703800D01*
X17088930Y-16703800D02*
X17098454Y-16713324D01*
X17098454Y-16713324D02*
X17107978Y-16732372D01*
X17107978Y-16732372D02*
X17117502Y-16770467D01*
X17117502Y-16770467D02*
X17117502Y-16818086D01*
X17117502Y-16818086D02*
X17107978Y-16856181D01*
X17107978Y-16856181D02*
X17098454Y-16875229D01*
X17098454Y-16875229D02*
X17088930Y-16884753D01*
X17088930Y-16884753D02*
X17069883Y-16894276D01*
X17069883Y-16894276D02*
X17050835Y-16894276D01*
X17050835Y-16894276D02*
X17031788Y-16884753D01*
X17031788Y-16884753D02*
X17022264Y-16875229D01*
X17022264Y-16875229D02*
X17012740Y-16856181D01*
X17012740Y-16856181D02*
X17003216Y-16818086D01*
X17003216Y-16818086D02*
X17003216Y-16770467D01*
X17003216Y-16770467D02*
X17012740Y-16732372D01*
X17012740Y-16732372D02*
X17022264Y-16713324D01*
X17022264Y-16713324D02*
X17031788Y-16703800D01*
X17031788Y-16703800D02*
X17050835Y-16694276D01*
X17355597Y-16894276D02*
X17355597Y-16694276D01*
X17441311Y-16894276D02*
X17441311Y-16789515D01*
X17441311Y-16789515D02*
X17431788Y-16770467D01*
X17431788Y-16770467D02*
X17412740Y-16760943D01*
X17412740Y-16760943D02*
X17384169Y-16760943D01*
X17384169Y-16760943D02*
X17365121Y-16770467D01*
X17365121Y-16770467D02*
X17355597Y-16779991D01*
X17565121Y-16894276D02*
X17546073Y-16884753D01*
X17546073Y-16884753D02*
X17536550Y-16875229D01*
X17536550Y-16875229D02*
X17527026Y-16856181D01*
X17527026Y-16856181D02*
X17527026Y-16799038D01*
X17527026Y-16799038D02*
X17536550Y-16779991D01*
X17536550Y-16779991D02*
X17546073Y-16770467D01*
X17546073Y-16770467D02*
X17565121Y-16760943D01*
X17565121Y-16760943D02*
X17593692Y-16760943D01*
X17593692Y-16760943D02*
X17612740Y-16770467D01*
X17612740Y-16770467D02*
X17622264Y-16779991D01*
X17622264Y-16779991D02*
X17631788Y-16799038D01*
X17631788Y-16799038D02*
X17631788Y-16856181D01*
X17631788Y-16856181D02*
X17622264Y-16875229D01*
X17622264Y-16875229D02*
X17612740Y-16884753D01*
X17612740Y-16884753D02*
X17593692Y-16894276D01*
X17593692Y-16894276D02*
X17565121Y-16894276D01*
X17746073Y-16894276D02*
X17727026Y-16884753D01*
X17727026Y-16884753D02*
X17717502Y-16865705D01*
X17717502Y-16865705D02*
X17717502Y-16694276D01*
X17898454Y-16884753D02*
X17879407Y-16894276D01*
X17879407Y-16894276D02*
X17841311Y-16894276D01*
X17841311Y-16894276D02*
X17822264Y-16884753D01*
X17822264Y-16884753D02*
X17812740Y-16865705D01*
X17812740Y-16865705D02*
X17812740Y-16789515D01*
X17812740Y-16789515D02*
X17822264Y-16770467D01*
X17822264Y-16770467D02*
X17841311Y-16760943D01*
X17841311Y-16760943D02*
X17879407Y-16760943D01*
X17879407Y-16760943D02*
X17898454Y-16770467D01*
X17898454Y-16770467D02*
X17907978Y-16789515D01*
X17907978Y-16789515D02*
X17907978Y-16808562D01*
X17907978Y-16808562D02*
X17812740Y-16827610D01*
X17984169Y-16884753D02*
X18003216Y-16894276D01*
X18003216Y-16894276D02*
X18041311Y-16894276D01*
X18041311Y-16894276D02*
X18060359Y-16884753D01*
X18060359Y-16884753D02*
X18069883Y-16865705D01*
X18069883Y-16865705D02*
X18069883Y-16856181D01*
X18069883Y-16856181D02*
X18060359Y-16837134D01*
X18060359Y-16837134D02*
X18041311Y-16827610D01*
X18041311Y-16827610D02*
X18012740Y-16827610D01*
X18012740Y-16827610D02*
X17993692Y-16818086D01*
X17993692Y-16818086D02*
X17984169Y-16799038D01*
X17984169Y-16799038D02*
X17984169Y-16789515D01*
X17984169Y-16789515D02*
X17993692Y-16770467D01*
X17993692Y-16770467D02*
X18012740Y-16760943D01*
X18012740Y-16760943D02*
X18041311Y-16760943D01*
X18041311Y-16760943D02*
X18060359Y-16770467D01*
X18136550Y-16970467D02*
X18146073Y-16960943D01*
X18146073Y-16960943D02*
X18165121Y-16932372D01*
X18165121Y-16932372D02*
X18174645Y-16913324D01*
X18174645Y-16913324D02*
X18184169Y-16884753D01*
X18184169Y-16884753D02*
X18193692Y-16837134D01*
X18193692Y-16837134D02*
X18193692Y-16799038D01*
X18193692Y-16799038D02*
X18184169Y-16751419D01*
X18184169Y-16751419D02*
X18174645Y-16722848D01*
X18174645Y-16722848D02*
X18165121Y-16703800D01*
X18165121Y-16703800D02*
X18146073Y-16675229D01*
X18146073Y-16675229D02*
X18136550Y-16665705D01*
D10*
X13138510Y-17099293D02*
X13171010Y-17066793D01*
X13138510Y-17034293D01*
X13106010Y-17066793D01*
X13138510Y-17099293D01*
D13*
X13469882Y-16958276D02*
X13488930Y-16958276D01*
X13488930Y-16958276D02*
X13507978Y-16967800D01*
X13507978Y-16967800D02*
X13517501Y-16977324D01*
X13517501Y-16977324D02*
X13527025Y-16996372D01*
X13527025Y-16996372D02*
X13536549Y-17034467D01*
X13536549Y-17034467D02*
X13536549Y-17082086D01*
X13536549Y-17082086D02*
X13527025Y-17120181D01*
X13527025Y-17120181D02*
X13517501Y-17139229D01*
X13517501Y-17139229D02*
X13507978Y-17148753D01*
X13507978Y-17148753D02*
X13488930Y-17158276D01*
X13488930Y-17158276D02*
X13469882Y-17158276D01*
X13469882Y-17158276D02*
X13450835Y-17148753D01*
X13450835Y-17148753D02*
X13441311Y-17139229D01*
X13441311Y-17139229D02*
X13431787Y-17120181D01*
X13431787Y-17120181D02*
X13422263Y-17082086D01*
X13422263Y-17082086D02*
X13422263Y-17034467D01*
X13422263Y-17034467D02*
X13431787Y-16996372D01*
X13431787Y-16996372D02*
X13441311Y-16977324D01*
X13441311Y-16977324D02*
X13450835Y-16967800D01*
X13450835Y-16967800D02*
X13469882Y-16958276D01*
X13622263Y-17139229D02*
X13631787Y-17148753D01*
X13631787Y-17148753D02*
X13622263Y-17158276D01*
X13622263Y-17158276D02*
X13612740Y-17148753D01*
X13612740Y-17148753D02*
X13622263Y-17139229D01*
X13622263Y-17139229D02*
X13622263Y-17158276D01*
X13803216Y-16958276D02*
X13765120Y-16958276D01*
X13765120Y-16958276D02*
X13746073Y-16967800D01*
X13746073Y-16967800D02*
X13736549Y-16977324D01*
X13736549Y-16977324D02*
X13717501Y-17005895D01*
X13717501Y-17005895D02*
X13707978Y-17043991D01*
X13707978Y-17043991D02*
X13707978Y-17120181D01*
X13707978Y-17120181D02*
X13717501Y-17139229D01*
X13717501Y-17139229D02*
X13727025Y-17148753D01*
X13727025Y-17148753D02*
X13746073Y-17158276D01*
X13746073Y-17158276D02*
X13784168Y-17158276D01*
X13784168Y-17158276D02*
X13803216Y-17148753D01*
X13803216Y-17148753D02*
X13812740Y-17139229D01*
X13812740Y-17139229D02*
X13822263Y-17120181D01*
X13822263Y-17120181D02*
X13822263Y-17072562D01*
X13822263Y-17072562D02*
X13812740Y-17053515D01*
X13812740Y-17053515D02*
X13803216Y-17043991D01*
X13803216Y-17043991D02*
X13784168Y-17034467D01*
X13784168Y-17034467D02*
X13746073Y-17034467D01*
X13746073Y-17034467D02*
X13727025Y-17043991D01*
X13727025Y-17043991D02*
X13717501Y-17053515D01*
X13717501Y-17053515D02*
X13707978Y-17072562D01*
X14003216Y-16958276D02*
X13907978Y-16958276D01*
X13907978Y-16958276D02*
X13898454Y-17053515D01*
X13898454Y-17053515D02*
X13907978Y-17043991D01*
X13907978Y-17043991D02*
X13927025Y-17034467D01*
X13927025Y-17034467D02*
X13974644Y-17034467D01*
X13974644Y-17034467D02*
X13993692Y-17043991D01*
X13993692Y-17043991D02*
X14003216Y-17053515D01*
X14003216Y-17053515D02*
X14012740Y-17072562D01*
X14012740Y-17072562D02*
X14012740Y-17120181D01*
X14012740Y-17120181D02*
X14003216Y-17139229D01*
X14003216Y-17139229D02*
X13993692Y-17148753D01*
X13993692Y-17148753D02*
X13974644Y-17158276D01*
X13974644Y-17158276D02*
X13927025Y-17158276D01*
X13927025Y-17158276D02*
X13907978Y-17148753D01*
X13907978Y-17148753D02*
X13898454Y-17139229D01*
X14136549Y-16958276D02*
X14155597Y-16958276D01*
X14155597Y-16958276D02*
X14174644Y-16967800D01*
X14174644Y-16967800D02*
X14184168Y-16977324D01*
X14184168Y-16977324D02*
X14193692Y-16996372D01*
X14193692Y-16996372D02*
X14203216Y-17034467D01*
X14203216Y-17034467D02*
X14203216Y-17082086D01*
X14203216Y-17082086D02*
X14193692Y-17120181D01*
X14193692Y-17120181D02*
X14184168Y-17139229D01*
X14184168Y-17139229D02*
X14174644Y-17148753D01*
X14174644Y-17148753D02*
X14155597Y-17158276D01*
X14155597Y-17158276D02*
X14136549Y-17158276D01*
X14136549Y-17158276D02*
X14117501Y-17148753D01*
X14117501Y-17148753D02*
X14107978Y-17139229D01*
X14107978Y-17139229D02*
X14098454Y-17120181D01*
X14098454Y-17120181D02*
X14088930Y-17082086D01*
X14088930Y-17082086D02*
X14088930Y-17034467D01*
X14088930Y-17034467D02*
X14098454Y-16996372D01*
X14098454Y-16996372D02*
X14107978Y-16977324D01*
X14107978Y-16977324D02*
X14117501Y-16967800D01*
X14117501Y-16967800D02*
X14136549Y-16958276D01*
X14288930Y-17158276D02*
X14288930Y-17024943D01*
X14288930Y-17043991D02*
X14298454Y-17034467D01*
X14298454Y-17034467D02*
X14317501Y-17024943D01*
X14317501Y-17024943D02*
X14346073Y-17024943D01*
X14346073Y-17024943D02*
X14365121Y-17034467D01*
X14365121Y-17034467D02*
X14374644Y-17053515D01*
X14374644Y-17053515D02*
X14374644Y-17158276D01*
X14374644Y-17053515D02*
X14384168Y-17034467D01*
X14384168Y-17034467D02*
X14403216Y-17024943D01*
X14403216Y-17024943D02*
X14431787Y-17024943D01*
X14431787Y-17024943D02*
X14450835Y-17034467D01*
X14450835Y-17034467D02*
X14460359Y-17053515D01*
X14460359Y-17053515D02*
X14460359Y-17158276D01*
X14555597Y-17158276D02*
X14555597Y-17024943D01*
X14555597Y-17043991D02*
X14565121Y-17034467D01*
X14565121Y-17034467D02*
X14584168Y-17024943D01*
X14584168Y-17024943D02*
X14612740Y-17024943D01*
X14612740Y-17024943D02*
X14631787Y-17034467D01*
X14631787Y-17034467D02*
X14641311Y-17053515D01*
X14641311Y-17053515D02*
X14641311Y-17158276D01*
X14641311Y-17053515D02*
X14650835Y-17034467D01*
X14650835Y-17034467D02*
X14669882Y-17024943D01*
X14669882Y-17024943D02*
X14698454Y-17024943D01*
X14698454Y-17024943D02*
X14717502Y-17034467D01*
X14717502Y-17034467D02*
X14727025Y-17053515D01*
X14727025Y-17053515D02*
X14727025Y-17158276D01*
X15117502Y-16948753D02*
X14946073Y-17205895D01*
X15374644Y-16958276D02*
X15393692Y-16958276D01*
X15393692Y-16958276D02*
X15412740Y-16967800D01*
X15412740Y-16967800D02*
X15422264Y-16977324D01*
X15422264Y-16977324D02*
X15431787Y-16996372D01*
X15431787Y-16996372D02*
X15441311Y-17034467D01*
X15441311Y-17034467D02*
X15441311Y-17082086D01*
X15441311Y-17082086D02*
X15431787Y-17120181D01*
X15431787Y-17120181D02*
X15422264Y-17139229D01*
X15422264Y-17139229D02*
X15412740Y-17148753D01*
X15412740Y-17148753D02*
X15393692Y-17158276D01*
X15393692Y-17158276D02*
X15374644Y-17158276D01*
X15374644Y-17158276D02*
X15355597Y-17148753D01*
X15355597Y-17148753D02*
X15346073Y-17139229D01*
X15346073Y-17139229D02*
X15336549Y-17120181D01*
X15336549Y-17120181D02*
X15327025Y-17082086D01*
X15327025Y-17082086D02*
X15327025Y-17034467D01*
X15327025Y-17034467D02*
X15336549Y-16996372D01*
X15336549Y-16996372D02*
X15346073Y-16977324D01*
X15346073Y-16977324D02*
X15355597Y-16967800D01*
X15355597Y-16967800D02*
X15374644Y-16958276D01*
X15527025Y-17139229D02*
X15536549Y-17148753D01*
X15536549Y-17148753D02*
X15527025Y-17158276D01*
X15527025Y-17158276D02*
X15517502Y-17148753D01*
X15517502Y-17148753D02*
X15527025Y-17139229D01*
X15527025Y-17139229D02*
X15527025Y-17158276D01*
X15660359Y-16958276D02*
X15679406Y-16958276D01*
X15679406Y-16958276D02*
X15698454Y-16967800D01*
X15698454Y-16967800D02*
X15707978Y-16977324D01*
X15707978Y-16977324D02*
X15717502Y-16996372D01*
X15717502Y-16996372D02*
X15727025Y-17034467D01*
X15727025Y-17034467D02*
X15727025Y-17082086D01*
X15727025Y-17082086D02*
X15717502Y-17120181D01*
X15717502Y-17120181D02*
X15707978Y-17139229D01*
X15707978Y-17139229D02*
X15698454Y-17148753D01*
X15698454Y-17148753D02*
X15679406Y-17158276D01*
X15679406Y-17158276D02*
X15660359Y-17158276D01*
X15660359Y-17158276D02*
X15641311Y-17148753D01*
X15641311Y-17148753D02*
X15631787Y-17139229D01*
X15631787Y-17139229D02*
X15622264Y-17120181D01*
X15622264Y-17120181D02*
X15612740Y-17082086D01*
X15612740Y-17082086D02*
X15612740Y-17034467D01*
X15612740Y-17034467D02*
X15622264Y-16996372D01*
X15622264Y-16996372D02*
X15631787Y-16977324D01*
X15631787Y-16977324D02*
X15641311Y-16967800D01*
X15641311Y-16967800D02*
X15660359Y-16958276D01*
X15803216Y-16977324D02*
X15812740Y-16967800D01*
X15812740Y-16967800D02*
X15831787Y-16958276D01*
X15831787Y-16958276D02*
X15879406Y-16958276D01*
X15879406Y-16958276D02*
X15898454Y-16967800D01*
X15898454Y-16967800D02*
X15907978Y-16977324D01*
X15907978Y-16977324D02*
X15917502Y-16996372D01*
X15917502Y-16996372D02*
X15917502Y-17015419D01*
X15917502Y-17015419D02*
X15907978Y-17043991D01*
X15907978Y-17043991D02*
X15793692Y-17158276D01*
X15793692Y-17158276D02*
X15917502Y-17158276D01*
X16098454Y-16958276D02*
X16003216Y-16958276D01*
X16003216Y-16958276D02*
X15993692Y-17053515D01*
X15993692Y-17053515D02*
X16003216Y-17043991D01*
X16003216Y-17043991D02*
X16022264Y-17034467D01*
X16022264Y-17034467D02*
X16069883Y-17034467D01*
X16069883Y-17034467D02*
X16088930Y-17043991D01*
X16088930Y-17043991D02*
X16098454Y-17053515D01*
X16098454Y-17053515D02*
X16107978Y-17072562D01*
X16107978Y-17072562D02*
X16107978Y-17120181D01*
X16107978Y-17120181D02*
X16098454Y-17139229D01*
X16098454Y-17139229D02*
X16088930Y-17148753D01*
X16088930Y-17148753D02*
X16069883Y-17158276D01*
X16069883Y-17158276D02*
X16022264Y-17158276D01*
X16022264Y-17158276D02*
X16003216Y-17148753D01*
X16003216Y-17148753D02*
X15993692Y-17139229D01*
X16279406Y-16958276D02*
X16241311Y-16958276D01*
X16241311Y-16958276D02*
X16222264Y-16967800D01*
X16222264Y-16967800D02*
X16212740Y-16977324D01*
X16212740Y-16977324D02*
X16193692Y-17005895D01*
X16193692Y-17005895D02*
X16184168Y-17043991D01*
X16184168Y-17043991D02*
X16184168Y-17120181D01*
X16184168Y-17120181D02*
X16193692Y-17139229D01*
X16193692Y-17139229D02*
X16203216Y-17148753D01*
X16203216Y-17148753D02*
X16222264Y-17158276D01*
X16222264Y-17158276D02*
X16260359Y-17158276D01*
X16260359Y-17158276D02*
X16279406Y-17148753D01*
X16279406Y-17148753D02*
X16288930Y-17139229D01*
X16288930Y-17139229D02*
X16298454Y-17120181D01*
X16298454Y-17120181D02*
X16298454Y-17072562D01*
X16298454Y-17072562D02*
X16288930Y-17053515D01*
X16288930Y-17053515D02*
X16279406Y-17043991D01*
X16279406Y-17043991D02*
X16260359Y-17034467D01*
X16260359Y-17034467D02*
X16222264Y-17034467D01*
X16222264Y-17034467D02*
X16203216Y-17043991D01*
X16203216Y-17043991D02*
X16193692Y-17053515D01*
X16193692Y-17053515D02*
X16184168Y-17072562D01*
X16374645Y-16958276D02*
X16374645Y-16996372D01*
X16450835Y-16958276D02*
X16450835Y-16996372D01*
X16746073Y-17234467D02*
X16736549Y-17224943D01*
X16736549Y-17224943D02*
X16717502Y-17196372D01*
X16717502Y-17196372D02*
X16707978Y-17177324D01*
X16707978Y-17177324D02*
X16698454Y-17148753D01*
X16698454Y-17148753D02*
X16688930Y-17101134D01*
X16688930Y-17101134D02*
X16688930Y-17063038D01*
X16688930Y-17063038D02*
X16698454Y-17015419D01*
X16698454Y-17015419D02*
X16707978Y-16986848D01*
X16707978Y-16986848D02*
X16717502Y-16967800D01*
X16717502Y-16967800D02*
X16736549Y-16939229D01*
X16736549Y-16939229D02*
X16746073Y-16929705D01*
X16812740Y-16977324D02*
X16822264Y-16967800D01*
X16822264Y-16967800D02*
X16841311Y-16958276D01*
X16841311Y-16958276D02*
X16888930Y-16958276D01*
X16888930Y-16958276D02*
X16907978Y-16967800D01*
X16907978Y-16967800D02*
X16917502Y-16977324D01*
X16917502Y-16977324D02*
X16927026Y-16996372D01*
X16927026Y-16996372D02*
X16927026Y-17015419D01*
X16927026Y-17015419D02*
X16917502Y-17043991D01*
X16917502Y-17043991D02*
X16803216Y-17158276D01*
X16803216Y-17158276D02*
X16927026Y-17158276D01*
X17165121Y-17158276D02*
X17165121Y-16958276D01*
X17250835Y-17158276D02*
X17250835Y-17053515D01*
X17250835Y-17053515D02*
X17241311Y-17034467D01*
X17241311Y-17034467D02*
X17222264Y-17024943D01*
X17222264Y-17024943D02*
X17193692Y-17024943D01*
X17193692Y-17024943D02*
X17174645Y-17034467D01*
X17174645Y-17034467D02*
X17165121Y-17043991D01*
X17374645Y-17158276D02*
X17355597Y-17148753D01*
X17355597Y-17148753D02*
X17346073Y-17139229D01*
X17346073Y-17139229D02*
X17336550Y-17120181D01*
X17336550Y-17120181D02*
X17336550Y-17063038D01*
X17336550Y-17063038D02*
X17346073Y-17043991D01*
X17346073Y-17043991D02*
X17355597Y-17034467D01*
X17355597Y-17034467D02*
X17374645Y-17024943D01*
X17374645Y-17024943D02*
X17403216Y-17024943D01*
X17403216Y-17024943D02*
X17422264Y-17034467D01*
X17422264Y-17034467D02*
X17431788Y-17043991D01*
X17431788Y-17043991D02*
X17441311Y-17063038D01*
X17441311Y-17063038D02*
X17441311Y-17120181D01*
X17441311Y-17120181D02*
X17431788Y-17139229D01*
X17431788Y-17139229D02*
X17422264Y-17148753D01*
X17422264Y-17148753D02*
X17403216Y-17158276D01*
X17403216Y-17158276D02*
X17374645Y-17158276D01*
X17555597Y-17158276D02*
X17536550Y-17148753D01*
X17536550Y-17148753D02*
X17527026Y-17129705D01*
X17527026Y-17129705D02*
X17527026Y-16958276D01*
X17707978Y-17148753D02*
X17688931Y-17158276D01*
X17688931Y-17158276D02*
X17650835Y-17158276D01*
X17650835Y-17158276D02*
X17631788Y-17148753D01*
X17631788Y-17148753D02*
X17622264Y-17129705D01*
X17622264Y-17129705D02*
X17622264Y-17053515D01*
X17622264Y-17053515D02*
X17631788Y-17034467D01*
X17631788Y-17034467D02*
X17650835Y-17024943D01*
X17650835Y-17024943D02*
X17688931Y-17024943D01*
X17688931Y-17024943D02*
X17707978Y-17034467D01*
X17707978Y-17034467D02*
X17717502Y-17053515D01*
X17717502Y-17053515D02*
X17717502Y-17072562D01*
X17717502Y-17072562D02*
X17622264Y-17091610D01*
X17793692Y-17148753D02*
X17812740Y-17158276D01*
X17812740Y-17158276D02*
X17850835Y-17158276D01*
X17850835Y-17158276D02*
X17869883Y-17148753D01*
X17869883Y-17148753D02*
X17879407Y-17129705D01*
X17879407Y-17129705D02*
X17879407Y-17120181D01*
X17879407Y-17120181D02*
X17869883Y-17101134D01*
X17869883Y-17101134D02*
X17850835Y-17091610D01*
X17850835Y-17091610D02*
X17822264Y-17091610D01*
X17822264Y-17091610D02*
X17803216Y-17082086D01*
X17803216Y-17082086D02*
X17793692Y-17063038D01*
X17793692Y-17063038D02*
X17793692Y-17053515D01*
X17793692Y-17053515D02*
X17803216Y-17034467D01*
X17803216Y-17034467D02*
X17822264Y-17024943D01*
X17822264Y-17024943D02*
X17850835Y-17024943D01*
X17850835Y-17024943D02*
X17869883Y-17034467D01*
X17946073Y-17234467D02*
X17955597Y-17224943D01*
X17955597Y-17224943D02*
X17974645Y-17196372D01*
X17974645Y-17196372D02*
X17984169Y-17177324D01*
X17984169Y-17177324D02*
X17993692Y-17148753D01*
X17993692Y-17148753D02*
X18003216Y-17101134D01*
X18003216Y-17101134D02*
X18003216Y-17063038D01*
X18003216Y-17063038D02*
X17993692Y-17015419D01*
X17993692Y-17015419D02*
X17984169Y-16986848D01*
X17984169Y-16986848D02*
X17974645Y-16967800D01*
X17974645Y-16967800D02*
X17955597Y-16939229D01*
X17955597Y-16939229D02*
X17946073Y-16929705D01*
X18307978Y-17234467D02*
X18298454Y-17224943D01*
X18298454Y-17224943D02*
X18279407Y-17196372D01*
X18279407Y-17196372D02*
X18269883Y-17177324D01*
X18269883Y-17177324D02*
X18260359Y-17148753D01*
X18260359Y-17148753D02*
X18250835Y-17101134D01*
X18250835Y-17101134D02*
X18250835Y-17063038D01*
X18250835Y-17063038D02*
X18260359Y-17015419D01*
X18260359Y-17015419D02*
X18269883Y-16986848D01*
X18269883Y-16986848D02*
X18279407Y-16967800D01*
X18279407Y-16967800D02*
X18298454Y-16939229D01*
X18298454Y-16939229D02*
X18307978Y-16929705D01*
X18384169Y-17024943D02*
X18384169Y-17158276D01*
X18384169Y-17043991D02*
X18393692Y-17034467D01*
X18393692Y-17034467D02*
X18412740Y-17024943D01*
X18412740Y-17024943D02*
X18441312Y-17024943D01*
X18441312Y-17024943D02*
X18460359Y-17034467D01*
X18460359Y-17034467D02*
X18469883Y-17053515D01*
X18469883Y-17053515D02*
X18469883Y-17158276D01*
X18593692Y-17158276D02*
X18574645Y-17148753D01*
X18574645Y-17148753D02*
X18565121Y-17139229D01*
X18565121Y-17139229D02*
X18555597Y-17120181D01*
X18555597Y-17120181D02*
X18555597Y-17063038D01*
X18555597Y-17063038D02*
X18565121Y-17043991D01*
X18565121Y-17043991D02*
X18574645Y-17034467D01*
X18574645Y-17034467D02*
X18593692Y-17024943D01*
X18593692Y-17024943D02*
X18622264Y-17024943D01*
X18622264Y-17024943D02*
X18641312Y-17034467D01*
X18641312Y-17034467D02*
X18650835Y-17043991D01*
X18650835Y-17043991D02*
X18660359Y-17063038D01*
X18660359Y-17063038D02*
X18660359Y-17120181D01*
X18660359Y-17120181D02*
X18650835Y-17139229D01*
X18650835Y-17139229D02*
X18641312Y-17148753D01*
X18641312Y-17148753D02*
X18622264Y-17158276D01*
X18622264Y-17158276D02*
X18593692Y-17158276D01*
X18717502Y-17024943D02*
X18793692Y-17024943D01*
X18746073Y-16958276D02*
X18746073Y-17129705D01*
X18746073Y-17129705D02*
X18755597Y-17148753D01*
X18755597Y-17148753D02*
X18774645Y-17158276D01*
X18774645Y-17158276D02*
X18793692Y-17158276D01*
X19012740Y-17024943D02*
X19012740Y-17224943D01*
X19012740Y-17034467D02*
X19031788Y-17024943D01*
X19031788Y-17024943D02*
X19069883Y-17024943D01*
X19069883Y-17024943D02*
X19088931Y-17034467D01*
X19088931Y-17034467D02*
X19098454Y-17043991D01*
X19098454Y-17043991D02*
X19107978Y-17063038D01*
X19107978Y-17063038D02*
X19107978Y-17120181D01*
X19107978Y-17120181D02*
X19098454Y-17139229D01*
X19098454Y-17139229D02*
X19088931Y-17148753D01*
X19088931Y-17148753D02*
X19069883Y-17158276D01*
X19069883Y-17158276D02*
X19031788Y-17158276D01*
X19031788Y-17158276D02*
X19012740Y-17148753D01*
X19222264Y-17158276D02*
X19203216Y-17148753D01*
X19203216Y-17148753D02*
X19193693Y-17129705D01*
X19193693Y-17129705D02*
X19193693Y-16958276D01*
X19384169Y-17158276D02*
X19384169Y-17053515D01*
X19384169Y-17053515D02*
X19374645Y-17034467D01*
X19374645Y-17034467D02*
X19355597Y-17024943D01*
X19355597Y-17024943D02*
X19317502Y-17024943D01*
X19317502Y-17024943D02*
X19298454Y-17034467D01*
X19384169Y-17148753D02*
X19365121Y-17158276D01*
X19365121Y-17158276D02*
X19317502Y-17158276D01*
X19317502Y-17158276D02*
X19298454Y-17148753D01*
X19298454Y-17148753D02*
X19288931Y-17129705D01*
X19288931Y-17129705D02*
X19288931Y-17110657D01*
X19288931Y-17110657D02*
X19298454Y-17091610D01*
X19298454Y-17091610D02*
X19317502Y-17082086D01*
X19317502Y-17082086D02*
X19365121Y-17082086D01*
X19365121Y-17082086D02*
X19384169Y-17072562D01*
X19450835Y-17024943D02*
X19527026Y-17024943D01*
X19479407Y-16958276D02*
X19479407Y-17129705D01*
X19479407Y-17129705D02*
X19488931Y-17148753D01*
X19488931Y-17148753D02*
X19507978Y-17158276D01*
X19507978Y-17158276D02*
X19527026Y-17158276D01*
X19669883Y-17148753D02*
X19650835Y-17158276D01*
X19650835Y-17158276D02*
X19612740Y-17158276D01*
X19612740Y-17158276D02*
X19593693Y-17148753D01*
X19593693Y-17148753D02*
X19584169Y-17129705D01*
X19584169Y-17129705D02*
X19584169Y-17053515D01*
X19584169Y-17053515D02*
X19593693Y-17034467D01*
X19593693Y-17034467D02*
X19612740Y-17024943D01*
X19612740Y-17024943D02*
X19650835Y-17024943D01*
X19650835Y-17024943D02*
X19669883Y-17034467D01*
X19669883Y-17034467D02*
X19679407Y-17053515D01*
X19679407Y-17053515D02*
X19679407Y-17072562D01*
X19679407Y-17072562D02*
X19584169Y-17091610D01*
X19850835Y-17158276D02*
X19850835Y-16958276D01*
X19850835Y-17148753D02*
X19831788Y-17158276D01*
X19831788Y-17158276D02*
X19793693Y-17158276D01*
X19793693Y-17158276D02*
X19774645Y-17148753D01*
X19774645Y-17148753D02*
X19765121Y-17139229D01*
X19765121Y-17139229D02*
X19755597Y-17120181D01*
X19755597Y-17120181D02*
X19755597Y-17063038D01*
X19755597Y-17063038D02*
X19765121Y-17043991D01*
X19765121Y-17043991D02*
X19774645Y-17034467D01*
X19774645Y-17034467D02*
X19793693Y-17024943D01*
X19793693Y-17024943D02*
X19831788Y-17024943D01*
X19831788Y-17024943D02*
X19850835Y-17034467D01*
X19927026Y-17234467D02*
X19936550Y-17224943D01*
X19936550Y-17224943D02*
X19955597Y-17196372D01*
X19955597Y-17196372D02*
X19965121Y-17177324D01*
X19965121Y-17177324D02*
X19974645Y-17148753D01*
X19974645Y-17148753D02*
X19984169Y-17101134D01*
X19984169Y-17101134D02*
X19984169Y-17063038D01*
X19984169Y-17063038D02*
X19974645Y-17015419D01*
X19974645Y-17015419D02*
X19965121Y-16986848D01*
X19965121Y-16986848D02*
X19955597Y-16967800D01*
X19955597Y-16967800D02*
X19936550Y-16939229D01*
X19936550Y-16939229D02*
X19927026Y-16929705D01*
M02*
