%TF.GenerationSoftware,KiCad,Pcbnew,9.0.6*%
%TF.CreationDate,2026-01-10T23:27:57+00:00*%
%TF.ProjectId,P.P.B.T,502e502e-422e-4542-9e6b-696361645f70,rev?*%
%TF.SameCoordinates,Original*%
%TF.FileFunction,Soldermask,Top*%
%TF.FilePolarity,Negative*%
%FSLAX46Y46*%
G04 Gerber Fmt 4.6, Leading zero omitted, Abs format (unit mm)*
G04 Created by KiCad (PCBNEW 9.0.6) date 2026-01-10 23:27:57*
%MOMM*%
%LPD*%
G01*
G04 APERTURE LIST*
G04 Aperture macros list*
%AMRoundRect*
0 Rectangle with rounded corners*
0 $1 Rounding radius*
0 $2 $3 $4 $5 $6 $7 $8 $9 X,Y pos of 4 corners*
0 Add a 4 corners polygon primitive as box body*
4,1,4,$2,$3,$4,$5,$6,$7,$8,$9,$2,$3,0*
0 Add four circle primitives for the rounded corners*
1,1,$1+$1,$2,$3*
1,1,$1+$1,$4,$5*
1,1,$1+$1,$6,$7*
1,1,$1+$1,$8,$9*
0 Add four rect primitives between the rounded corners*
20,1,$1+$1,$2,$3,$4,$5,0*
20,1,$1+$1,$4,$5,$6,$7,0*
20,1,$1+$1,$6,$7,$8,$9,0*
20,1,$1+$1,$8,$9,$2,$3,0*%
%AMFreePoly0*
4,1,5,0.850000,-0.850000,-0.850000,-0.850000,-0.850000,0.850000,0.850000,0.850000,0.850000,-0.850000,0.850000,-0.850000,$1*%
G04 Aperture macros list end*
%ADD10C,1.000000*%
%ADD11C,0.500000*%
%ADD12RoundRect,0.140000X-0.170000X0.140000X-0.170000X-0.140000X0.170000X-0.140000X0.170000X0.140000X0*%
%ADD13RoundRect,0.140000X0.170000X-0.140000X0.170000X0.140000X-0.170000X0.140000X-0.170000X-0.140000X0*%
%ADD14RoundRect,0.140000X-0.140000X-0.170000X0.140000X-0.170000X0.140000X0.170000X-0.140000X0.170000X0*%
%ADD15RoundRect,0.243750X-0.456250X0.243750X-0.456250X-0.243750X0.456250X-0.243750X0.456250X0.243750X0*%
%ADD16RoundRect,0.135000X0.185000X-0.135000X0.185000X0.135000X-0.185000X0.135000X-0.185000X-0.135000X0*%
%ADD17RoundRect,0.225000X0.375000X-0.225000X0.375000X0.225000X-0.375000X0.225000X-0.375000X-0.225000X0*%
%ADD18RoundRect,0.140000X0.140000X0.170000X-0.140000X0.170000X-0.140000X-0.170000X0.140000X-0.170000X0*%
%ADD19RoundRect,0.135000X0.135000X0.185000X-0.135000X0.185000X-0.135000X-0.185000X0.135000X-0.185000X0*%
%ADD20RoundRect,0.250000X-0.600000X-2.600000X0.600000X-2.600000X0.600000X2.600000X-0.600000X2.600000X0*%
%ADD21RoundRect,0.135000X-0.185000X0.135000X-0.185000X-0.135000X0.185000X-0.135000X0.185000X0.135000X0*%
%ADD22RoundRect,0.135000X-0.135000X-0.185000X0.135000X-0.185000X0.135000X0.185000X-0.135000X0.185000X0*%
%ADD23FreePoly0,180.000000*%
%ADD24C,1.700000*%
%ADD25C,0.650000*%
%ADD26R,0.600000X1.450000*%
%ADD27R,0.300000X1.450000*%
%ADD28O,1.000000X2.100000*%
%ADD29O,1.000000X1.600000*%
%ADD30RoundRect,0.142500X-0.332500X0.382500X-0.332500X-0.382500X0.332500X-0.382500X0.332500X0.382500X0*%
%ADD31RoundRect,0.375000X-0.375000X0.625000X-0.375000X-0.625000X0.375000X-0.625000X0.375000X0.625000X0*%
%ADD32RoundRect,0.500000X-1.400000X0.500000X-1.400000X-0.500000X1.400000X-0.500000X1.400000X0.500000X0*%
%ADD33RoundRect,0.050000X-0.387500X-0.050000X0.387500X-0.050000X0.387500X0.050000X-0.387500X0.050000X0*%
%ADD34RoundRect,0.050000X-0.050000X-0.387500X0.050000X-0.387500X0.050000X0.387500X-0.050000X0.387500X0*%
%ADD35R,3.200000X3.200000*%
%ADD36FreePoly0,0.000000*%
%ADD37C,0.600000*%
%ADD38RoundRect,0.150000X-0.150000X0.587500X-0.150000X-0.587500X0.150000X-0.587500X0.150000X0.587500X0*%
%ADD39RoundRect,0.250000X0.350000X-0.450000X0.350000X0.450000X-0.350000X0.450000X-0.350000X-0.450000X0*%
%ADD40RoundRect,0.162500X-0.650000X-0.162500X0.650000X-0.162500X0.650000X0.162500X-0.650000X0.162500X0*%
%ADD41RoundRect,0.225000X0.225000X0.250000X-0.225000X0.250000X-0.225000X-0.250000X0.225000X-0.250000X0*%
%ADD42RoundRect,0.225000X-0.375000X0.225000X-0.375000X-0.225000X0.375000X-0.225000X0.375000X0.225000X0*%
%ADD43RoundRect,0.225000X-0.250000X0.225000X-0.250000X-0.225000X0.250000X-0.225000X0.250000X0.225000X0*%
%ADD44RoundRect,0.150000X-0.150000X0.512500X-0.150000X-0.512500X0.150000X-0.512500X0.150000X0.512500X0*%
%ADD45RoundRect,0.075000X-0.075000X-0.525000X0.075000X-0.525000X0.075000X0.525000X-0.075000X0.525000X0*%
%ADD46RoundRect,0.330000X-0.770000X-1.320000X0.770000X-1.320000X0.770000X1.320000X-0.770000X1.320000X0*%
%ADD47RoundRect,0.315000X-0.735000X-1.335000X0.735000X-1.335000X0.735000X1.335000X-0.735000X1.335000X0*%
%ADD48RoundRect,0.250000X-0.250000X-0.475000X0.250000X-0.475000X0.250000X0.475000X-0.250000X0.475000X0*%
%ADD49RoundRect,0.062500X0.300000X0.062500X-0.300000X0.062500X-0.300000X-0.062500X0.300000X-0.062500X0*%
%ADD50R,1.400000X2.550000*%
G04 APERTURE END LIST*
D10*
X180017731Y-121705323D02*
X188757131Y-130448745D01*
X180017731Y-121705323D02*
X143492432Y-121705323D01*
X143492432Y-121705323D02*
X134757131Y-130444723D01*
X143496531Y-150705323D02*
X134757131Y-141970022D01*
X180013832Y-150705323D02*
X188757131Y-141965923D01*
X188757131Y-130448745D02*
X188757131Y-141965923D01*
X180013832Y-150705323D02*
X143496531Y-150705323D01*
D11*
X183009477Y-118702926D02*
X140509476Y-118702926D01*
D10*
X134757131Y-130444723D02*
X134757131Y-141970022D01*
D12*
%TO.C,C26*%
X168931004Y-89076290D03*
X168931004Y-90036290D03*
%TD*%
D13*
%TO.C,C9*%
X161933004Y-60625286D03*
X161933004Y-59665286D03*
%TD*%
D14*
%TO.C,C3*%
X165751004Y-61056290D03*
X166711004Y-61056290D03*
%TD*%
D15*
%TO.C,D1*%
X168133004Y-30150286D03*
X168133004Y-32025286D03*
%TD*%
D16*
%TO.C,R6*%
X161133004Y-72535286D03*
X161133004Y-71515286D03*
%TD*%
D17*
%TO.C,D2*%
X165833004Y-87825286D03*
X165833004Y-84525286D03*
%TD*%
D14*
%TO.C,C16*%
X158595504Y-55656290D03*
X159555504Y-55656290D03*
%TD*%
D18*
%TO.C,C7*%
X156608004Y-67650286D03*
X155648004Y-67650286D03*
%TD*%
D14*
%TO.C,C29*%
X137707294Y-136715286D03*
X138667294Y-136715286D03*
%TD*%
D19*
%TO.C,R5*%
X139258004Y-70383790D03*
X138238004Y-70383790D03*
%TD*%
D20*
%TO.C,L2*%
X159083004Y-85300286D03*
X163583004Y-85300286D03*
%TD*%
D21*
%TO.C,R2*%
X159509502Y-34425286D03*
X159509502Y-35445286D03*
%TD*%
D22*
%TO.C,R14*%
X137657294Y-137715286D03*
X138677294Y-137715286D03*
%TD*%
D13*
%TO.C,C15*%
X161133004Y-74455286D03*
X161133004Y-73495286D03*
%TD*%
D23*
%TO.C,J3*%
X191043004Y-85622915D03*
D24*
X190158004Y-85622915D03*
D23*
X191043004Y-83082915D03*
D24*
X190158004Y-83082915D03*
D23*
X191043004Y-80542915D03*
D24*
X190158004Y-80542915D03*
D23*
X191043004Y-78002915D03*
D24*
X190158004Y-78002915D03*
D23*
X191043004Y-75462915D03*
D24*
X190158004Y-75462915D03*
D23*
X191043004Y-72922915D03*
D24*
X190158004Y-72922915D03*
D23*
X191043004Y-70382915D03*
D24*
X190158004Y-70382915D03*
D23*
X191043004Y-67842915D03*
D24*
X190158004Y-67842915D03*
D23*
X191043004Y-65302915D03*
D24*
X190158004Y-65302915D03*
D23*
X191043004Y-62762915D03*
D24*
X190158004Y-62762915D03*
D23*
X191043004Y-60222915D03*
D24*
X190158004Y-60222915D03*
D23*
X191043004Y-57682915D03*
D24*
X190158004Y-57682915D03*
D23*
X191043004Y-55142915D03*
D24*
X190158004Y-55142915D03*
D23*
X191043004Y-52602915D03*
D24*
X190158004Y-52602915D03*
D23*
X191043004Y-50062915D03*
D24*
X190158004Y-50062915D03*
%TD*%
D25*
%TO.C,J1*%
X164673004Y-31125286D03*
X158893004Y-31125286D03*
D26*
X165033004Y-32570286D03*
X164233004Y-32570286D03*
D27*
X163033004Y-32570286D03*
X162033004Y-32570286D03*
X161533004Y-32570286D03*
X160533004Y-32570286D03*
D26*
X159333004Y-32570286D03*
X158533004Y-32570286D03*
X158533004Y-32570286D03*
X159333004Y-32570286D03*
D27*
X160033004Y-32570286D03*
X161033004Y-32570286D03*
X162533004Y-32570286D03*
X163533004Y-32570286D03*
D26*
X164233004Y-32570286D03*
X165033004Y-32570286D03*
D28*
X166103004Y-31655286D03*
D29*
X166103004Y-27475286D03*
D28*
X157463004Y-31655286D03*
D29*
X157463004Y-27475286D03*
%TD*%
D30*
%TO.C,SW3*%
X140408004Y-53878790D03*
X140408004Y-58028790D03*
X138258004Y-53878790D03*
X138258004Y-58028790D03*
%TD*%
D12*
%TO.C,C24*%
X167031004Y-89076290D03*
X167031004Y-90036290D03*
%TD*%
D14*
%TO.C,C4*%
X167203004Y-67675286D03*
X168163004Y-67675286D03*
%TD*%
%TO.C,C6*%
X166101004Y-62956290D03*
X167061004Y-62956290D03*
%TD*%
D17*
%TO.C,D4*%
X170583004Y-87825286D03*
X170583004Y-84525286D03*
%TD*%
D31*
%TO.C,U3*%
X169083004Y-50906290D03*
X166783004Y-50906290D03*
D32*
X166783004Y-57206290D03*
D31*
X164483004Y-50906290D03*
%TD*%
D12*
%TO.C,C18*%
X158381004Y-89076290D03*
X158381004Y-90036290D03*
%TD*%
D33*
%TO.C,U1*%
X158454506Y-63806290D03*
X158454506Y-64206290D03*
X158454506Y-64606290D03*
X158454506Y-65006290D03*
X158454506Y-65406290D03*
X158454506Y-65806290D03*
X158454506Y-66206290D03*
X158454506Y-66606290D03*
X158454506Y-67006290D03*
X158454506Y-67406290D03*
X158454506Y-67806290D03*
X158454506Y-68206290D03*
X158454506Y-68606290D03*
X158454506Y-69006290D03*
D34*
X159292006Y-69843790D03*
X159692006Y-69843790D03*
X160092006Y-69843790D03*
X160492006Y-69843790D03*
X160892006Y-69843790D03*
X161292006Y-69843790D03*
X161692006Y-69843790D03*
X162092006Y-69843790D03*
X162492006Y-69843790D03*
X162892006Y-69843790D03*
X163292006Y-69843790D03*
X163692006Y-69843790D03*
X164092006Y-69843790D03*
X164492006Y-69843790D03*
D33*
X165329506Y-69006290D03*
X165329506Y-68606290D03*
X165329506Y-68206290D03*
X165329506Y-67806290D03*
X165329506Y-67406290D03*
X165329506Y-67006290D03*
X165329506Y-66606290D03*
X165329506Y-66206290D03*
X165329506Y-65806290D03*
X165329506Y-65406290D03*
X165329506Y-65006290D03*
X165329506Y-64606290D03*
X165329506Y-64206290D03*
X165329506Y-63806290D03*
D34*
X164492006Y-62968790D03*
X164092006Y-62968790D03*
X163692006Y-62968790D03*
X163292006Y-62968790D03*
X162892006Y-62968790D03*
X162492006Y-62968790D03*
X162092006Y-62968790D03*
X161692006Y-62968790D03*
X161292006Y-62968790D03*
X160892006Y-62968790D03*
X160492006Y-62968790D03*
X160092006Y-62968790D03*
X159692006Y-62968790D03*
X159292006Y-62968790D03*
D35*
X161892006Y-66406290D03*
%TD*%
D13*
%TO.C,C12*%
X164831004Y-61106290D03*
X164831004Y-60146290D03*
%TD*%
D36*
%TO.C,J2*%
X132523004Y-50065260D03*
D24*
X133408004Y-50065260D03*
D36*
X132523004Y-52605260D03*
D24*
X133408004Y-52605260D03*
D36*
X132523004Y-55145260D03*
D24*
X133408004Y-55145260D03*
D36*
X132523004Y-57685260D03*
D24*
X133408004Y-57685260D03*
D36*
X132523004Y-60225260D03*
D24*
X133408004Y-60225260D03*
D36*
X132523004Y-62765260D03*
D24*
X133408004Y-62765260D03*
D36*
X132523004Y-65305260D03*
D24*
X133408004Y-65305260D03*
D36*
X132523004Y-67845260D03*
D24*
X133408004Y-67845260D03*
D36*
X132523004Y-70385260D03*
D24*
X133408004Y-70385260D03*
D36*
X132523004Y-72925260D03*
D24*
X133408004Y-72925260D03*
D36*
X132523004Y-75465260D03*
D24*
X133408004Y-75465260D03*
D36*
X132523004Y-78005260D03*
D24*
X133408004Y-78005260D03*
D36*
X132523004Y-80545260D03*
D24*
X133408004Y-80545260D03*
D36*
X132523004Y-83085260D03*
D24*
X133408004Y-83085260D03*
D36*
X132523004Y-85625260D03*
D24*
X133408004Y-85625260D03*
%TD*%
D37*
%TO.C,L1*%
X152679794Y-136775336D03*
%TD*%
D12*
%TO.C,C17*%
X157431004Y-89076290D03*
X157431004Y-90036290D03*
%TD*%
%TO.C,C5*%
X162133004Y-71145286D03*
X162133004Y-72105286D03*
%TD*%
D38*
%TO.C,Q2*%
X166233004Y-80175286D03*
X164333004Y-80175286D03*
X165283004Y-82050286D03*
%TD*%
D19*
%TO.C,R7*%
X168643004Y-33337786D03*
X167623004Y-33337786D03*
%TD*%
D12*
%TO.C,C19*%
X162281004Y-89076290D03*
X162281004Y-90036290D03*
%TD*%
D39*
%TO.C,Y1*%
X159683004Y-74275286D03*
X159683004Y-72075286D03*
X157983004Y-72075286D03*
X157983004Y-74275286D03*
%TD*%
D40*
%TO.C,U4*%
X151608004Y-56751290D03*
X151608004Y-58021290D03*
X151608004Y-59291290D03*
X151608004Y-60561290D03*
X158783004Y-60561290D03*
X158783004Y-59291290D03*
X158783004Y-58021290D03*
X158783004Y-56751290D03*
%TD*%
D41*
%TO.C,C27*%
X169333004Y-83025286D03*
X167783004Y-83025286D03*
%TD*%
D12*
%TO.C,C22*%
X165131004Y-89076290D03*
X165131004Y-90036290D03*
%TD*%
D42*
%TO.C,D3*%
X168183004Y-84525286D03*
X168183004Y-87825286D03*
%TD*%
D18*
%TO.C,C8*%
X157661004Y-62956290D03*
X156701004Y-62956290D03*
%TD*%
D43*
%TO.C,C28*%
X159633004Y-79750286D03*
X159633004Y-81300286D03*
%TD*%
D44*
%TO.C,U2*%
X162672002Y-34897786D03*
X161722002Y-34897786D03*
X160772002Y-34897786D03*
X160772002Y-37172786D03*
X161722002Y-37172786D03*
X162672002Y-37172786D03*
%TD*%
D30*
%TO.C,SW1*%
X140408004Y-65133790D03*
X140408004Y-69283790D03*
X138258004Y-65133790D03*
X138258004Y-69283790D03*
%TD*%
D21*
%TO.C,R3*%
X162881004Y-60296290D03*
X162881004Y-61316290D03*
%TD*%
D12*
%TO.C,C30*%
X143957294Y-135205286D03*
X143957294Y-136165286D03*
%TD*%
D45*
%TO.C,U5*%
X155954506Y-91625290D03*
X156454506Y-91625290D03*
X156954506Y-91625290D03*
X157454506Y-91625290D03*
X157954506Y-91625290D03*
X158454506Y-91625290D03*
X158954506Y-91625290D03*
X159454506Y-91625290D03*
X159954506Y-91625290D03*
X160454506Y-91625290D03*
X160954506Y-91625290D03*
X161454506Y-91625290D03*
X161954506Y-91625290D03*
X162454506Y-91625290D03*
X162954506Y-91625290D03*
X163454506Y-91625290D03*
X163954506Y-91625290D03*
X164454506Y-91625290D03*
X164954506Y-91625290D03*
X165454506Y-91625290D03*
X165954506Y-91625290D03*
X166454506Y-91625290D03*
X166954506Y-91625290D03*
X167454506Y-91625290D03*
D46*
X154354506Y-93795290D03*
D47*
X169104506Y-93795290D03*
%TD*%
D12*
%TO.C,C25*%
X167981004Y-89076290D03*
X167981004Y-90036290D03*
%TD*%
D22*
%TO.C,R9*%
X138283004Y-81625286D03*
X139303004Y-81625286D03*
%TD*%
D12*
%TO.C,C23*%
X166081004Y-89076290D03*
X166081004Y-90036290D03*
%TD*%
D19*
%TO.C,R8*%
X151805504Y-55606290D03*
X150785504Y-55606290D03*
%TD*%
D14*
%TO.C,C10*%
X165331004Y-62006290D03*
X166291004Y-62006290D03*
%TD*%
D22*
%TO.C,R13*%
X136767294Y-135715286D03*
X137787294Y-135715286D03*
%TD*%
%TO.C,R10*%
X137647294Y-134715286D03*
X138667294Y-134715286D03*
%TD*%
D12*
%TO.C,C11*%
X163081004Y-71056290D03*
X163081004Y-72016290D03*
%TD*%
D13*
%TO.C,C14*%
X156535004Y-73204282D03*
X156535004Y-72244282D03*
%TD*%
D12*
%TO.C,C20*%
X163231004Y-89076290D03*
X163231004Y-90036290D03*
%TD*%
%TO.C,C21*%
X164181004Y-89076290D03*
X164181004Y-90036290D03*
%TD*%
D16*
%TO.C,R11*%
X166233004Y-78700286D03*
X166233004Y-77680286D03*
%TD*%
D30*
%TO.C,SW2*%
X140408004Y-76383790D03*
X140408004Y-80533790D03*
X138258004Y-76383790D03*
X138258004Y-80533790D03*
%TD*%
D21*
%TO.C,R4*%
X163881004Y-60296290D03*
X163881004Y-61316290D03*
%TD*%
D48*
%TO.C,C2*%
X166181004Y-59506290D03*
X168081004Y-59506290D03*
%TD*%
%TO.C,C1*%
X164833004Y-48606290D03*
X166733004Y-48606290D03*
%TD*%
D49*
%TO.C,U6*%
X142807294Y-137615286D03*
X142807294Y-137115286D03*
X142807294Y-136615286D03*
X142807294Y-136115286D03*
X142807294Y-135615286D03*
X142807294Y-135115286D03*
X139782294Y-135115286D03*
X139782294Y-135615286D03*
X139782294Y-136115286D03*
X139782294Y-136615286D03*
X139782294Y-137115286D03*
X139782294Y-137615286D03*
D50*
X141294794Y-136365286D03*
%TD*%
D21*
%TO.C,R1*%
X163909502Y-34425286D03*
X163909502Y-35445286D03*
%TD*%
D13*
%TO.C,C13*%
X160983004Y-60275286D03*
X160983004Y-59315286D03*
%TD*%
D16*
%TO.C,R12*%
X164333004Y-78710286D03*
X164333004Y-77690286D03*
%TD*%
M02*
