M48
; DRILL file {KiCad 9.0.6} date 2026-01-10T23:28:02+0000
; FORMAT={-:-/ absolute / metric / decimal}
; #@! TF.CreationDate,2026-01-10T23:28:02+00:00
; #@! TF.GenerationSoftware,Kicad,Pcbnew,9.0.6
; #@! TF.FileFunction,MixedPlating,1,2
FMAT,2
METRIC
; #@! TA.AperFunction,Plated,PTH,ViaDrill
T1C0.300
; #@! TA.AperFunction,Plated,PTH,ComponentDrill
T2C0.300
; #@! TA.AperFunction,Plated,PTH,ComponentDrill
T3C0.600
; #@! TA.AperFunction,Plated,PTH,ComponentDrill
T4C1.000
; #@! TA.AperFunction,NonPlated,NPTH,ComponentDrill
T5C0.650
%
G90
G05
T1
X133.333Y-47.025
X133.333Y-97.025
X134.757Y-130.445
X134.757Y-141.97
X136.133Y-50.075
X136.133Y-52.575
X136.133Y-57.725
X136.133Y-60.225
X136.133Y-62.675
X136.133Y-65.275
X136.133Y-70.325
X136.133Y-72.925
X136.133Y-75.425
X136.133Y-78.025
X136.133Y-83.125
X136.133Y-85.625
X136.833Y-37.025
X136.833Y-47.025
X136.833Y-62.025
X136.833Y-67.525
X136.833Y-72.025
X136.833Y-80.025
X136.833Y-97.025
X136.916Y-137.335
X136.927Y-136.535
X137.533Y-65.125
X137.533Y-69.875
X138.707Y-138.385
X138.833Y-33.025
X138.833Y-63.025
X139.757Y-134.135
X139.807Y-138.235
X139.933Y-70.425
X141.583Y-69.375
X141.633Y-65.125
X142.007Y-134.135
X143.433Y-80.925
X143.497Y-150.705
X143.833Y-63.025
X143.957Y-136.585
X144.833Y-72.025
X146.833Y-37.025
X146.833Y-47.025
X146.833Y-57.025
X146.833Y-69.525
X146.833Y-77.025
X146.833Y-87.025
X146.833Y-97.025
X146.857Y-117.385
X146.857Y-121.705
X146.857Y-150.705
X147.767Y-28.535
X148.183Y-71.225
X149.333Y-67.025
X149.333Y-74.525
X149.383Y-70.275
X150.883Y-62.325
X151.833Y-67.025
X151.833Y-72.025
X152.609Y-60.7
X153.033Y-70.525
X154.307Y-121.685
X154.333Y-77.025
X154.333Y-87.025
X154.357Y-117.77
X154.357Y-150.705
X154.433Y-57.95
X154.433Y-59.45
X155.053Y-75.425
X155.183Y-67.725
X155.412Y-72.954
X155.933Y-57.95
X155.933Y-59.45
X156.183Y-62.975
X156.535Y-73.694
X156.833Y-37.025
X156.833Y-47.025
X156.833Y-54.525
X157.47Y-88.519
X157.633Y-56.875
X157.633Y-63.525
X157.862Y-70.504
X157.985Y-73.419
X159.027Y-76.682
X159.133Y-77.475
X159.258Y-90.25
X159.655Y-89.429
X159.71Y-72.944
X159.872Y-68.922
X160.273Y-93.255
X160.622Y-68.642
X160.833Y-79.025
X160.892Y-65.406
X160.892Y-66.406
X160.892Y-67.406
X160.956Y-93.672
X161.376Y-68.907
X161.555Y-93.096
X161.697Y-63.785
X161.733Y-35.725
X161.783Y-81.225
X161.892Y-65.406
X161.892Y-66.406
X161.892Y-67.406
X161.959Y-73.718
X162.133Y-72.575
X162.135Y-83.6
X162.256Y-92.712
X162.297Y-88.296
X162.341Y-80.463
X162.892Y-65.406
X162.892Y-66.406
X162.907Y-72.499
X162.949Y-78.925
X163.11Y-92.845
X163.472Y-35.146
X163.565Y-71.317
X163.733Y-48.625
X163.991Y-64.301
X164.333Y-54.525
X164.374Y-62.008
X164.783Y-78.975
X165.551Y-92.725
X165.583Y-78.975
X165.733Y-46.975
X165.833Y-86.025
X165.833Y-87.225
X166.807Y-121.735
X166.81Y-62.174
X166.833Y-37.025
X166.833Y-43.525
X166.833Y-77.025
X166.833Y-97.025
X166.857Y-117.83
X166.857Y-150.705
X167.127Y-92.668
X167.393Y-87.855
X167.433Y-48.625
X167.583Y-63.175
X168.333Y-86.025
X168.633Y-67.675
X168.733Y-63.125
X169.333Y-54.525
X169.333Y-59.525
X169.333Y-62.475
X169.333Y-77.025
X170.573Y-69.925
X170.833Y-82.025
X170.883Y-47.875
X171.113Y-67.715
X176.077Y-28.895
X176.807Y-121.635
X176.833Y-37.025
X176.833Y-47.025
X176.833Y-67.025
X176.833Y-77.025
X176.833Y-87.025
X176.833Y-97.025
X176.857Y-117.385
X177.357Y-150.705
X185.333Y-33.025
X186.833Y-37.025
X186.833Y-47.025
X186.833Y-87.025
X186.833Y-97.025
X187.033Y-50.075
X187.033Y-52.603
X187.033Y-55.225
X187.033Y-58.225
X187.033Y-60.425
X187.033Y-63.025
X187.033Y-74.225
X187.033Y-78.225
X187.033Y-80.325
X187.033Y-83.075
X187.033Y-85.625
X187.353Y-76.415
X188.757Y-130.485
X188.757Y-141.966
X190.333Y-47.025
X190.333Y-97.025
T2
X152.68Y-136.775
T4
X133.408Y-50.065
X133.408Y-52.605
X133.408Y-55.145
X133.408Y-57.685
X133.408Y-60.225
X133.408Y-62.765
X133.408Y-65.305
X133.408Y-67.845
X133.408Y-70.385
X133.408Y-72.925
X133.408Y-75.465
X133.408Y-78.005
X133.408Y-80.545
X133.408Y-83.085
X133.408Y-85.625
X190.158Y-50.063
X190.158Y-52.603
X190.158Y-55.143
X190.158Y-57.683
X190.158Y-60.223
X190.158Y-62.763
X190.158Y-65.303
X190.158Y-67.843
X190.158Y-70.383
X190.158Y-72.923
X190.158Y-75.463
X190.158Y-78.003
X190.158Y-80.543
X190.158Y-83.083
X190.158Y-85.623
T5
X158.893Y-31.125
X164.673Y-31.125
T3
G00X157.463Y-27.775
M15
G01X157.463Y-27.175
M16
G05
G00X157.463Y-32.205
M15
G01X157.463Y-31.105
M16
G05
G00X166.103Y-27.775
M15
G01X166.103Y-27.175
M16
G05
G00X166.103Y-32.205
M15
G01X166.103Y-31.105
M16
G05
M30
